<?xml version="1.0" encoding="utf-8"?>
<!-- Generator: Adobe Illustrator 19.1.0, SVG Export Plug-In . SVG Version: 6.00 Build 0)  -->
<svg version="1.1" id="icon_alert" xmlns="http://www.w3.org/2000/svg" xmlns:xlink="http://www.w3.org/1999/xlink" x="0px" y="0px"
	 viewBox="0 0 100 125" style="enable-background:new 0 0 100 125;" xml:space="preserve">
<g>
	<path fill="#234075" d="M17.781,17.782c-4.147,4.145-7.12,9.028-8.915,14.219L8.607,32.26C3.443,25.437,3.801,15.852,9.827,9.826  c6.026-6.023,15.606-6.383,22.434-1.219l-0.258,0.258C26.806,10.663,21.928,13.635,17.781,17.782z M90.173,9.826  c-6.026-6.023-15.606-6.383-22.434-1.219l0.258,0.258c5.197,1.799,10.075,4.771,14.222,8.918c4.147,4.145,7.12,9.028,8.915,14.219  l0.258,0.258C96.557,25.437,96.199,15.852,90.173,9.826z M63.766,56.218l-8.141-4.07V38.75c0-3.106-2.519-5.625-5.625-5.625  s-5.625,2.519-5.625,5.625v16.875c0,0.277,0.119,0.515,0.158,0.781c0.059,0.408,0.095,0.81,0.242,1.195  c0.127,0.336,0.33,0.615,0.516,0.917c0.192,0.313,0.356,0.63,0.608,0.902c0.272,0.294,0.607,0.499,0.935,0.73  c0.228,0.16,0.393,0.379,0.65,0.507l11.25,5.625c0.807,0.404,1.667,0.593,2.51,0.593c2.065,0,4.051-1.137,5.037-3.109  C67.672,60.986,66.545,57.608,63.766,56.218z M87.727,85.398c2.197,2.197,2.197,5.757,0,7.954C86.629,94.451,85.189,95,83.75,95  s-2.878-0.549-3.977-1.648l-5.625-5.625c-1.541-1.541-1.936-3.739-1.316-5.68c-6.444,4.602-14.312,7.339-22.833,7.339  c-8.519,0-16.385-2.736-22.83-7.336c0.619,1.94,0.223,4.137-1.317,5.677l-5.625,5.625C19.128,94.451,17.689,95,16.25,95  s-2.878-0.549-3.977-1.648c-2.197-2.197-2.197-5.757,0-7.954l5.625-5.625c1.292-1.292,3.04-1.73,4.72-1.504  c-7.386-7.158-11.994-17.163-11.994-28.258c0-19.184,13.723-35.139,31.877-38.642V8.76c0-2.071,1.675-3.749,3.746-3.749h7.504  c2.071,0,3.746,1.678,3.746,3.749v2.609c18.154,3.503,31.877,19.459,31.877,38.642c0,11.095-4.609,21.102-11.994,28.26  c1.68-0.228,3.43,0.21,4.723,1.502L87.727,85.398z M78.124,50.011c0-15.508-12.617-28.125-28.125-28.125  S21.874,34.503,21.874,50.011s12.617,28.125,28.125,28.125S78.124,65.519,78.124,50.011z"/>
</g>
</svg>
