<?xml version="1.0" encoding="utf-8"?>
<!-- Generator: Adobe Illustrator 19.0.0, SVG Export Plug-In . SVG Version: 6.00 Build 0)  -->
<svg version="1.1" id="Layer_1" xmlns="http://www.w3.org/2000/svg" xmlns:xlink="http://www.w3.org/1999/xlink" x="0px"
	 y="0px" width="16px" height="16px" viewBox="-485 491 20 20" style="enable-background:new -485 491 20 20;" xml:space="preserve"
	>
<path fill="#234075" d="M-473.6,501.3c-0.1-0.1-0.2-0.2-0.3-0.3c0.1-0.1,0.2-0.2,0.3-0.3c1.1-1.1,2.2-2.2,3.3-3.3c0.4-0.4,0.4-0.9,0.1-1.2
	c-0.3-0.3-0.8-0.3-1.2,0.1c-1.2,1.2-2.4,2.4-3.6,3.6c-1.2-1.2-2.4-2.4-3.6-3.6c-0.4-0.4-0.8-0.4-1.2-0.1c-0.3,0.3-0.3,0.8,0.1,1.2
	c1.1,1.1,2.2,2.2,3.3,3.3c0.1,0.1,0.2,0.2,0.3,0.3c-0.1,0.1-0.2,0.2-0.3,0.3c-1.1,1.1-2.2,2.2-3.3,3.3c-0.4,0.4-0.4,0.9-0.1,1.2
	c0.3,0.3,0.8,0.3,1.2-0.1c1.2-1.2,2.4-2.4,3.6-3.6c1.2,1.2,2.4,2.4,3.6,3.6c0.4,0.4,0.8,0.4,1.2,0.1c0.3-0.3,0.3-0.8-0.1-1.2
	C-471.4,503.5-472.5,502.4-473.6,501.3z"/>
</svg>
