<?xml version="1.0" encoding="utf-8"?>
<!-- Generator: Adobe Illustrator 19.0.0, SVG Export Plug-In . SVG Version: 6.00 Build 0)  -->
<svg version="1.1" id="icon_info-blue" xmlns="http://www.w3.org/2000/svg" xmlns:xlink="http://www.w3.org/1999/xlink" x="0px" y="0px"
	 viewBox="87.5 29.5 25 25" enable-background="new 87.5 29.5 25 25" xml:space="preserve">
<circle fill="#5BC2E7" cx="100" cy="42" r="12.5"/>
<g>
	<path fill="#234075" d="M101.4,34.7c0.4,0,0.8,0.1,1.1,0.4c0.3,0.3,0.4,0.7,0.4,1.1c0,0.4-0.1,0.8-0.4,1.1
		c-0.3,0.3-0.7,0.4-1.1,0.4c-0.4,0-0.8-0.1-1.1-0.4c-0.3-0.3-0.4-0.7-0.4-1.1c0-0.4,0.1-0.8,0.4-1.1C100.7,34.9,101,34.7,101.4,34.7
		z M102.1,39.5l-2.1,7.3c-0.1,0.4-0.2,0.7-0.2,0.8c0,0.1,0,0.1,0.1,0.2c0.1,0.1,0.1,0.1,0.2,0.1c0.1,0,0.2-0.1,0.4-0.2
		c0.3-0.3,0.7-0.7,1.1-1.4l0.4,0.2c-1,1.8-2.1,2.7-3.3,2.7c-0.4,0-0.8-0.1-1.1-0.4c-0.3-0.3-0.4-0.6-0.4-1c0-0.3,0.1-0.6,0.2-1
		l1.4-4.9c0.1-0.5,0.2-0.8,0.2-1.1c0-0.2-0.1-0.3-0.2-0.4c-0.1-0.1-0.3-0.2-0.5-0.2c-0.1,0-0.2,0-0.4,0L98,40l3.5-0.6L102.1,39.5z"
		/>
</g>
</svg>
