<?xml version="1.0" encoding="utf-8"?>
<svg version="1.1" id="icon_warning-state" xmlns="http://www.w3.org/2000/svg" viewBox="0 0 30 30">
<circle cx="15" cy="15" r="14.5"/>
<circle cx="-35.5" cy="15.5" r="14.5"/>
<path fill="#E2B353" d="M12.1,7.8c2,0,3.9,0,5.8,0c-0.5,3.1-1,6.2-1.5,9.2c0,0.2-0.3,0.3-0.5,0.4c0,0-0.1,0-0.2,0
	c-1.9,0-1.9,0.1-2.2-1.7C13,13.1,12.6,10.4,12.1,7.8z"/>
<path fill="#E2B353" d="M16.9,20.5c0,0.9-0.8,1.7-1.8,1.7c-1.1,0-1.9-0.7-1.9-1.7c0-1,0.8-1.7,1.8-1.7
	C16,18.8,16.8,19.6,16.9,20.5z"/>
<path fill="#333333" d="M-29.8,10.7c0.5,0.5,1.1,1,1.6,1.5c-3,2.7-5.9,5.5-8.9,8.2c-1.9-1.7-3.7-3.5-5.6-5.2c0.5-0.5,1.1-1,1.6-1.5
	c1.3,1.2,2.7,2.5,4,3.7C-34.7,15.1-32.3,12.9-29.8,10.7z"/>
</svg>
