<?xml version="1.0" encoding="utf-8"?>
<!-- Generated by IcoMoon.io -->
<!DOCTYPE svg PUBLIC "-//W3C//DTD SVG 1.1//EN" "http://www.w3.org/Graphics/SVG/1.1/DTD/svg11.dtd">
<svg version="1.1" xmlns="http://www.w3.org/2000/svg" xmlns:xlink="http://www.w3.org/1999/xlink" width="16" height="16" viewBox="0 0 25 25">

  <symbol id="chev-blue" viewBox="0 0 25 25">
    <circle fill="#5BC2E7" cx="12.5" cy="12.5" r="12.5"/>
    <path fill="#234075" d="M11.5 7.5L10 8.9l3.6 3.6-3.6 3.6 1.5 1.4 5-5"/>
  </symbol>

  <symbol id="chev-white" viewBox="0 0 25 25">
    <circle fill="#FFF" cx="12.5" cy="12.5" r="12.5"></circle>
    <path fill="#234075" d="M11.5 7.5L10 8.9l3.6 3.6-3.6 3.6 1.5 1.4 5-5"></path>
  </symbol>

  <symbol id="info-blue" viewBox="87.5 29.5 25 25">
    <circle fill="#5BC2E7" cx="100" cy="42" r="12.5"></circle>
    <path fill="#234075" d="M101.4 34.7c.4 0 .8.1 1.1.4.3.3.4.7.4 1.1 0 .4-.1.8-.4 1.1-.3.3-.7.4-1.1.4-.4 0-.8-.1-1.1-.4-.3-.3-.4-.7-.4-1.1 0-.4.1-.8.4-1.1.4-.2.7-.4 1.1-.4zm.7 4.8l-2.1 7.3c-.1.4-.2.7-.2.8 0 .1 0 .1.1.2s.1.1.2.1.2-.1.4-.2c.3-.3.7-.7 1.1-1.4l.4.2c-1 1.8-2.1 2.7-3.3 2.7-.4 0-.8-.1-1.1-.4-.3-.3-.4-.6-.4-1 0-.3.1-.6.2-1l1.4-4.9c.1-.5.2-.8.2-1.1 0-.2-.1-.3-.2-.4-.1-.1-.3-.2-.5-.2h-.4l.1-.2 3.5-.6.6.1z"></path>
  </symbol>

  <symbol id="plus-white" viewBox="0 0 25 25">
    <circle fill="#fff" cx="12.5" cy="12.5" r="12.5"></circle>
    <path fill="#234075" d="M7.5 11.5h10v2h-10z"></path>
    <path fill="#234075" d="M11.5 7.5h2v10h-2z"></path>
  </symbol>

  <symbol id="minus-white" viewBox="0 0 25 25">
    <circle fill="#fff" cx="12.5" cy="12.5" r="12.5"></circle>
    <path fill="#234075" d="M7.5 11.5h10v2h-10z"></path>
  </symbol>

  <symbol id="plus-blue" viewBox="0 0 25 25">
    <circle fill="#5BC2E7" cx="12.5" cy="12.5" r="12.5"></circle>
    <path fill="#234075" d="M7.5 11.5h10v2h-10z">
    </path>
    <path fill="#234075" d="M11.5 7.5h2v10h-2z"></path>
  </symbol>

  <symbol id="minus-blue" viewBox="0 0 25 25">
    <circle fill="#5BC2E7" cx="12.5" cy="12.5" r="12.5"></circle>
    <path fill="#234075" d="M7.5 11.5h10v2h-10z"></path>
  </symbol>

  <symbol id="chevron-thick" viewBox="0 0 18.03 12" focusable="false">
    <path d="M18.02 2.667L9 12-.01 2.67 2.56.005 9 6.67 15.44.004z"></path>
  </symbol>

  <symbol id="chevron-thick-green" viewBox="0 0 18.03 12" focusable="false">
    <path d="M18.02 2.667L9 12-.01 2.67 2.56.005 9 6.67 15.44.004z"></path>
  </symbol>

  <symbol id="alert-blue" viewBox="-50 -50 200 200">
    <circle fill="#5BC2E7" cx="50" cy="50" r="100"/>
    <path d="M17.78 17.782c-4.146 4.145-7.12 9.028-8.914 14.22l-.26.258c-5.163-6.823-4.805-16.408 1.22-22.434 6.027-6.023 15.607-6.383 22.435-1.22l-.257.26c-5.197 1.797-10.075 4.77-14.222 8.916zm72.393-7.956c-6.026-6.023-15.606-6.383-22.434-1.22l.257.26c5.197 1.798 10.075 4.77 14.222 8.917 4.146 4.145 7.12 9.028 8.914 14.22l.258.257c5.165-6.823 4.807-16.408-1.22-22.434zM63.766 56.218l-8.14-4.07V38.75c0-3.106-2.52-5.625-5.626-5.625s-5.625 2.52-5.625 5.625v16.875c0 .277.12.515.158.78.06.41.095.81.242 1.196.127.337.33.616.516.918.193.313.357.63.61.902.27.294.606.5.934.73.228.16.393.38.65.507l11.25 5.625c.807.404 1.667.593 2.51.593 2.065 0 4.05-1.137 5.037-3.11 1.392-2.78.265-6.157-2.514-7.547zm23.96 29.18c2.198 2.197 2.198 5.757 0 7.954C86.63 94.452 85.19 95 83.75 95s-2.878-.55-3.977-1.648l-5.625-5.625c-1.54-1.54-1.936-3.74-1.316-5.68-6.444 4.602-14.312 7.34-22.833 7.34-8.52 0-16.386-2.737-22.83-7.337.618 1.94.222 4.137-1.318 5.677l-5.625 5.625C19.127 94.452 17.69 95 16.25 95s-2.878-.55-3.977-1.648c-2.197-2.197-2.197-5.757 0-7.954l5.625-5.625c1.292-1.292 3.04-1.73 4.72-1.504-7.386-7.16-11.994-17.164-11.994-28.26 0-19.183 13.723-35.138 31.877-38.64V8.76c0-2.07 1.676-3.75 3.747-3.75h7.504c2.072 0 3.747 1.68 3.747 3.75v2.61C75.65 14.87 89.374 30.827 89.374 50.01c0 11.096-4.61 21.103-11.994 28.26 1.68-.227 3.43.21 4.723 1.503l5.624 5.625zM78.125 50.01c0-15.507-12.617-28.124-28.125-28.124S21.873 34.503 21.873 50.01 34.49 78.137 50 78.137 78.123 65.52 78.123 50.01z"></path>
  </symbol>

  <symbol id="map-pin-blue" viewBox="-15 -15 130 130">
    <circle fill="#5BC2E7" cx="50" cy="50" r="65"/>
    <path d="M50 9.75c-15.715 0-28.5 12.785-28.5 28.5 0 24.812 21.664 48.876 22.586 49.888C45.603 89.802 47.75 90.75 50 90.75s4.397-.948 5.914-2.612C56.836 87.126 78.5 63.062 78.5 38.25c0-15.715-12.785-28.5-28.5-28.5zm0 73s-20.5-22.5-20.5-44.5c0-11.322 9.178-20.5 20.5-20.5s20.5 9.178 20.5 20.5c0 22-20.5 44.5-20.5 44.5z"></path>
    <path d="M50 22.25c-8.822 0-16 7.178-16 16s7.178 16 16 16 16-7.178 16-16-7.178-16-16-16zm0 24c-4.41 0-8-3.59-8-8s3.59-8 8-8 8 3.59 8 8-3.59 8-8 8z"></path>
  </symbol>

  <symbol id="checkbox" viewBox="0 0 25 25">
    <rect x="0.5" y="0.5" width="15" height="15" style="stroke: #000;stroke-width: 1px;fill: #fff;"/>
  </symbol>

  <symbol id="checkbox-checked" viewBox="0 0 25 25">
    <rect x="0.5" y="0.5" width="15" height="15" style="fill: #000;fill-rule: evenodd;stroke: #000;stroke-width: 1px;fill: #fff;"/>
    <path d="M13.000,4.981 C12.656,4.647 12.328,4.329 11.988,4.000 C9.851,6.009 7.692,8.038 5.516,10.084 C4.648,9.237 3.794,8.404 2.962,7.594 C2.624,7.922 2.294,8.243 2.000,8.528 C3.176,9.672 4.370,10.833 5.569,12.000 C8.035,9.671 10.523,7.320 13.000,4.981 Z"/>
  </symbol>

  <symbol id="save-blue" viewBox="-200 -200 800 800">
    <circle fill="#5BC2E7" cx="200" cy="200" r="400"/>
    <path class="st0" d="M302.3 52l64.3 79.3v229.3H52V52h250.3m0-52H52C23.3 0 0 23.3 0 52v308.7c0 28.7 23.3 52 52 52h314.7c28.7 0 52-23.3 52-52V131.3c0-11.9-4.1-23.5-11.6-32.8l-64.3-79.3C332.8 7.1 318 0 302.3 0z" fill="#234075"></path>
    <path class="st1" fill="none" stroke="#234075" stroke-width="52" stroke-linecap="round" stroke-linejoin="round" stroke-miterlimit="10" d="M239.7 52v143.3H110.1V52"></path>
  </symbol>

  <symbol id="print-blue" viewBox="-13 -15 60 60">
    <circle fill="#5BC2E7" cx="17" cy="15" r="30"/>
    <g fill="none" stroke="#234075" stroke-width="3">
      <path class="st000" stroke-linecap="round" stroke-linejoin="round" stroke-miterlimit="10" d="M9.4 25.8H1.5v-13h30v13h-8.3"></path>
      <path class="st01" d="M9.6 1.5h13.8v11.3H9.6zM9.4 22h13.8v8.3H9.4z"></path>
    </g>
  </symbol>

  <symbol id="envelope-blue" viewBox="-13 -15 60 60">
    <circle fill="#5BC2E7" cx="17" cy="15" r="30"/>
    <g fill="none" stroke="#234075" stroke-width="3">
      <path d="M0 5.2v21.4h33V5.2H0zm5.4 2.5h22.2l-11.1 9.6L5.4 7.7zm-3 .8L15.8 20c.4.3.9.3 1.3 0L30.6 8.5v15.6H2.4V8.5z"></path>
    </g>
  </symbol>

  <symbol id="caret" viewBox="0 0 60 100">
    <path d="M 55,50 5,95 5,5 z"></path>
  </symbol>

  <symbol id="caret-black" viewBox="0 0 320 320">
    <path d="M202 136l-44 48-40-48h84z"/>
  </symbol>

  <symbol id="close" viewBox="-485 491 20 20" focusable="false" style="pointer-events: none; display: block; width: 100%; height: 100%;">
    <path d="M-473.6 501.3l-.3-.3.3-.3 3.3-3.3c.4-.4.4-.9.1-1.2-.3-.3-.8-.3-1.2.1l-3.6 3.6-3.6-3.6c-.4-.4-.8-.4-1.2-.1-.3.3-.3.8.1 1.2l3.3 3.3.3.3-.3.3-3.3 3.3c-.4.4-.4.9-.1 1.2.3.3.8.3 1.2-.1l3.6-3.6 3.6 3.6c.4.4.8.4 1.2.1.3-.3.3-.8-.1-1.2l-3.3-3.3z"></path>
  </symbol>

  <symbol id="close-blue" viewBox="-485 491 20 20">
    <circle fill="#5BC2E7" cx="100" cy="10" r="10"></circle>
    <path d="M-473.6 501.3l-.3-.3.3-.3 3.3-3.3c.4-.4.4-.9.1-1.2-.3-.3-.8-.3-1.2.1l-3.6 3.6-3.6-3.6c-.4-.4-.8-.4-1.2-.1-.3.3-.3.8.1 1.2l3.3 3.3.3.3-.3.3-3.3 3.3c-.4.4-.4.9-.1 1.2.3.3.8.3 1.2-.1l3.6-3.6 3.6 3.6c.4.4.8.4 1.2.1.3-.3.3-.8-.1-1.2l-3.3-3.3z"></path>
  </symbol>
</svg>



