<?xml version="1.0" encoding="utf-8"?>
<!DOCTYPE svg PUBLIC "-//W3C//DTD SVG 1.1//EN" "http://www.w3.org/Graphics/SVG/1.1/DTD/svg11.dtd">
<svg version="1.1" id="Layer_1" xmlns="http://www.w3.org/2000/svg" xmlns:xlink="http://www.w3.org/1999/xlink" x="0px" y="0px" viewBox="0 0 290.541 270.27" style="enable-background:new 0 0 290.541 270.27;" xml:space="preserve">
     <g>
     	<path id="North-Coast-&amp;-Nechako" target-region="North Coast &amp; Nechako" d="M52.237,158.916l2.153,1.024c0.066,0.031,0.138,0.047,0.211,0.047c0.051,0,0.102-0.007,0.151-0.023
     		l2.248-0.727l2.662-0.652c0.113-0.027,0.212-0.095,0.28-0.189l1.314-1.802c0.054-0.074,0.086-0.162,0.093-0.253l0.32-4.269
     		l0.847-3.428c0.007-0.03,0.012-0.061,0.014-0.094l0.112-2.259l2.622-1.857c0.1-0.072,0.17-0.178,0.196-0.297l0.816-3.768
     		c0.038-0.173-0.022-0.354-0.154-0.472c-0.133-0.117-0.319-0.153-0.487-0.097l-4.051,1.397l-2.383-1.181
     		c-0.03-0.015-0.062-0.027-0.095-0.036l-2.03-0.526c-0.087-0.023-0.178-0.021-0.264,0.005l-0.603,0.179
     		c0.046-0.199-0.038-0.413-0.219-0.526l-1.988-1.244c-0.084-0.052-0.177-0.076-0.28-0.073l-1.334,0.051l-0.558-0.946
     		c-0.088-0.15-0.249-0.242-0.423-0.242h-2.579c-0.266,0-0.484,0.213-0.491,0.479l-0.05,1.823l-1.339,2.497
     		c-0.047,0.086-0.066,0.185-0.056,0.283l0.349,3.338c0.007,0.063,0.025,0.123,0.055,0.179l1.037,1.957l-0.027,1.723
     		c-0.001,0.051,0.006,0.103,0.022,0.152l0.679,2.222c0.032,0.103,0.097,0.193,0.185,0.256l1.939,1.381l0.418,1.192l-1.321,0.766
     		c-0.115,0.068-0.199,0.178-0.23,0.308c-0.032,0.13-0.01,0.267,0.061,0.379l1.973,3.139
     		C52.081,158.812,52.152,158.876,52.237,158.916z M69.262,179.522l-0.707-1.311c-0.086-0.16-0.252-0.258-0.433-0.258h-1.726
     		l-0.86-1.119l-0.125-1.949c-0.006-0.091-0.037-0.179-0.09-0.254l-3.073-4.329l-0.244-2.32c-0.015-0.138-0.086-0.263-0.197-0.345
     		l-0.912-0.673l-0.213-3.553l1.876,0.497c0.143,0.038,0.296,0.009,0.416-0.079l1.537-1.124c0.109-0.08,0.181-0.201,0.198-0.336
     		c0.017-0.134-0.023-0.27-0.109-0.374l-1.453-1.752l-0.649-2.084c-0.045-0.147-0.156-0.263-0.3-0.315
     		c-0.144-0.054-0.303-0.036-0.433,0.047l-1.871,1.185l-2.301,1.415l-2.11-0.15l-3.035-0.378c-0.156-0.019-0.313,0.038-0.421,0.154
     		c-0.108,0.116-0.153,0.276-0.122,0.431l0.361,1.803c0.035,0.179,0.166,0.322,0.34,0.374l2.533,0.767l-0.98,0.658
     		c-0.221,0.149-0.284,0.446-0.142,0.671l3.959,6.248l0.934,2.536c0.031,0.084,0.085,0.159,0.155,0.215l2.802,2.225l3.685,6.473
     		c0.011,0.019,0.024,0.038,0.038,0.056l0.867,1.126c0.095,0.125,0.24,0.193,0.39,0.193c0.055,0,0.111-0.009,0.165-0.027
     		l1.567-0.558c0.064-0.023,0.122-0.059,0.172-0.105l1.483-1.39c0.172-0.161,0.205-0.421,0.08-0.621L69.262,179.522z
     		 M79.586,147.786c-0.076,0.105-0.108,0.237-0.088,0.365l0.136,0.855l-0.698,0.239v-1.158c0-0.059-0.011-0.118-0.032-0.173
     		l-0.841-2.223c-0.053-0.139-0.165-0.245-0.306-0.292c-0.05-0.016-0.102-0.024-0.154-0.024c-0.093,0-0.186,0.026-0.266,0.077
     		l-1.379,0.889l-0.175-0.289l0.465-0.998l4.174-2.339l0.898,0.674l-0.155,2.221L79.586,147.786z M85.519,162.221H84.13l-1.308-2.39
     		c-0.025-0.046-0.057-0.088-0.095-0.122l-3.551-3.326l-0.345-1.709c-0.019-0.092-0.064-0.178-0.13-0.245l-1.383-1.42
     		c-0.121-0.167-0.229-0.387-0.253-0.508c0.087-0.018,0.324-0.02,0.609,0.029c5.659,0.986,7.849,7.849,8.186,9.03L85.519,162.221z
     		 M100.535,170.344l-0.659,4.524l-1.019,0.23l-1.404-1.256l-2.874-2.142l-1.45-3.722l-0.073-1.938l1.692-2.694
     		c0.038-0.06,0.062-0.126,0.071-0.197l0.221-1.633l3.787,2.781l1.316,3.354c0.089,0.226,0.33,0.353,0.568,0.299
     		c0.237-0.055,0.399-0.275,0.379-0.519l-0.25-3.137c-0.01-0.13-0.072-0.251-0.172-0.336l-1.228-1.04l-1.922-2.075l-0.296-1.622
     		l-0.422-3.697l0.64-0.343c0.155-0.082,0.253-0.241,0.259-0.416l0.036-1.032l1.389-2.733l1.198-1.173
     		c0.131-0.127,0.179-0.317,0.127-0.492c-0.052-0.174-0.196-0.305-0.375-0.341l-1.226-0.245c-0.118-0.024-0.24-0.003-0.343,0.056
     		l-1.778,1.032c-0.046,0.027-0.087,0.06-0.123,0.101l-1.017,1.158l-2.677,1.875c-0.131,0.091-0.21,0.242-0.21,0.402v3.568
     		l-0.46,0.901l-1.778-1.397c-0.166-0.132-0.397-0.141-0.573-0.025c-0.177,0.116-0.259,0.332-0.206,0.535l0.383,1.466l-0.474,2.326
     		l-0.15,0.36l-1.734-0.341l-1.142-2.517c-0.019-0.041-0.044-0.082-0.074-0.117l-1.129-1.319l0.304-1.467
     		c0.035-0.169-0.021-0.343-0.147-0.461l-1.549-1.435l-0.337-1.379c-0.022-0.091-0.07-0.173-0.137-0.239l-1.649-1.584l0.132-0.876
     		c0.019-0.124-0.011-0.25-0.082-0.353l-0.445-0.64l0.733-0.714l5.469,6.395c0.163,0.19,0.444,0.229,0.651,0.086
     		c0.207-0.142,0.275-0.416,0.157-0.637l-2.014-3.775c-0.019-0.036-0.043-0.068-0.07-0.099l-2.433-2.675l-0.263-1.805l0.548-3.129
     		c0.032-0.184-0.043-0.371-0.194-0.481l-2.068-1.513l-0.997-2.724c-0.043-0.118-0.13-0.216-0.242-0.271l-1.086-0.542l0.517-1.404
     		c0.006-0.017,0.011-0.034,0.016-0.051l1.059-4.238c0.033-0.132,0.01-0.271-0.063-0.386c-0.074-0.114-0.191-0.192-0.324-0.217
     		l-1.617-0.298l-0.571-1.792l4.021-3.243c0.039-0.032,0.073-0.07,0.101-0.112l1.997-3.016l2.489-3.459
     		c0.092-0.127,0.117-0.289,0.069-0.439l-0.478-1.473l-0.724-4.802l0.665-1.591c0.039-0.094,0.049-0.199,0.026-0.298l-0.575-2.519
     		l1.849-2.785c0.082-0.123,0.104-0.278,0.059-0.42l-1.093-3.462c-0.059-0.189-0.225-0.323-0.421-0.341l-2.271-0.222l-0.93-2.519
     		c-0.032-0.087-0.089-0.165-0.163-0.221l-3.236-2.465c-0.046-0.034-0.097-0.061-0.151-0.077l-3.064-0.956l-4.405-5.042
     		c-0.093-0.108-0.228-0.168-0.37-0.168h-2.542l-0.068-1.482l-0.355-2.908c-0.016-0.132-0.086-0.252-0.193-0.333l-2.263-1.703
     		l1.222-2.785c0.106-0.243,0.001-0.526-0.238-0.641l-3.141-1.505l1.206-3.075c0.045-0.116,0.045-0.243,0-0.359l-6.301-16.161
     		l-0.485-2.857c-0.008-0.045-0.021-0.088-0.041-0.13l-2.564-5.374l0.898-1.073c0.137-0.164,0.153-0.397,0.039-0.578l-4.506-7.146
     		c-0.018-0.029-0.04-0.056-0.064-0.081l-4.103-4.21l0.141-2.2c0.005-0.082-0.01-0.165-0.045-0.239l-0.724-1.555
     		c-0.028-0.06-0.067-0.112-0.115-0.156l-1.583-1.442l-0.628-1.914c-0.054-0.165-0.19-0.289-0.36-0.326l-1.528-0.343l-0.304-1.305
     		l-0.059-0.968c-0.005-0.079-0.029-0.156-0.07-0.223l-0.57-0.945l0.594-1.419c0.046-0.11,0.051-0.23,0.014-0.342l-0.787-2.408
     		c-0.006-0.018-0.013-0.037-0.021-0.054l-1.847-3.953c-0.101-0.213-0.34-0.327-0.568-0.266l-5.576,1.447l-2.58,0.651
     		c-0.19,0.047-0.334,0.204-0.365,0.398l-0.286,1.775l-2.341,0.661c-0.191,0.054-0.332,0.218-0.355,0.416L28.3,23.882l-1.989,2.902
     		l-2.191,0.223c-0.045,0.004-0.089,0.014-0.13,0.031l-6.229,2.452l-1.464,0.428l0.386-1.563c0.014-0.056,0.018-0.114,0.011-0.172
     		l-0.537-4.881c-0.007-0.064-0.027-0.126-0.057-0.182L5.539,3.82C5.496,3.752,5.448,3.634,5.432,3.557
     		C5.664,3.5,6.711,3.475,10.717,5.476c11.473,5.732,79.466,13.316,90.163,14.481c-0.113,0.53,0.057,1.164,0.2,1.565l-1.092,1.295
     		c-0.127,0.15-0.151,0.361-0.063,0.537c0.089,0.176,0.275,0.286,0.47,0.27l5.001-0.317l-0.099,0.608
     		c-0.005,0.032-0.007,0.065-0.006,0.097c0.004,0.097,0.035,0.191,0.093,0.27c0.077,0.106,0.193,0.177,0.322,0.198l2.169,0.343
     		l-0.515,1.196c-0.062,0.143-0.052,0.307,0.026,0.441l2.123,3.653c0.076,0.13,0.207,0.218,0.357,0.239
     		c0.149,0.02,0.3-0.028,0.409-0.131l2.035-1.953l3.386,1.428l1.922,1.93c0.049,0.049,0.108,0.087,0.172,0.112l2.742,1.052
     		l1.206,3.818l0.104,3.666c0.005,0.19,0.12,0.36,0.294,0.437l2.314,1.012l0.04,2.536c0.001,0.018,0.002,0.036,0.004,0.053
     		l0.337,2.693l-0.516,2.42c-0.049,0.231,0.072,0.464,0.29,0.556l2.793,1.179l1.903,0.742l2.724,1.516l0.143,0.814
     		c0.035,0.202,0.193,0.361,0.396,0.398l1.226,0.226l0.73,1.154c0.105,0.167,0.299,0.256,0.493,0.224l1.718-0.276l1.239,1.621
     		c0.081,0.105,0.202,0.174,0.335,0.189l2.855,0.328l3.154,1.333c0.024,0.009,0.049,0.018,0.074,0.025l1.719,0.422l0.079,1.96
     		l-0.465,1.487l-1.28-0.604c-0.115-0.054-0.246-0.062-0.367-0.021l-2.966,1.004c-0.031,0.01-0.062,0.025-0.09,0.041l-1.304,0.762
     		l-1.618,1.006l-0.704-0.058l-0.64-0.804c-0.069-0.086-0.166-0.147-0.274-0.172l-3.039-0.702c-0.262-0.061-0.524,0.101-0.588,0.361
     		l-0.252,1.027l-0.392,0.051l-1.672-0.686c-0.054-0.021-0.111-0.034-0.169-0.036l-1.795-0.062
     		c-0.038-0.001-0.072,0.002-0.106,0.008l-2.222,0.41c-0.166,0.03-0.305,0.145-0.367,0.302c-0.063,0.158-0.039,0.336,0.061,0.472
     		c0.071,0.097,0.141,0.221,0.185,0.323c-0.024-0.001-0.049-0.004-0.075-0.007c-0.114-0.015-0.226-0.024-0.335-0.029
     		c-0.066-0.003-0.13-0.002-0.194-0.002c-0.039,0-0.078-0.002-0.116,0c-0.082,0.003-0.161,0.01-0.239,0.019
     		c-0.017,0.002-0.034,0.003-0.051,0.005c-0.083,0.01-0.162,0.025-0.239,0.043c-0.011,0.002-0.023,0.004-0.034,0.007
     		c-0.075,0.018-0.146,0.039-0.215,0.063c-0.014,0.005-0.028,0.009-0.042,0.014c-0.062,0.023-0.121,0.049-0.179,0.077
     		c-0.02,0.009-0.04,0.018-0.059,0.028c-0.049,0.026-0.095,0.054-0.14,0.083c-0.025,0.016-0.05,0.033-0.074,0.05
     		c-0.037,0.027-0.071,0.056-0.105,0.086c-0.016,0.014-0.035,0.026-0.051,0.041c-0.015,0.014-0.028,0.029-0.042,0.044
     		c-0.007,0.007-0.016,0.014-0.023,0.021c-0.007,0.008-0.014,0.017-0.021,0.025c-0.016,0.017-0.03,0.035-0.044,0.053
     		c-0.014,0.018-0.029,0.036-0.042,0.055c-0.016,0.022-0.032,0.045-0.046,0.068c-0.009,0.015-0.019,0.03-0.028,0.046
     		c-0.015,0.026-0.03,0.053-0.043,0.08c-0.007,0.013-0.012,0.027-0.019,0.04c-0.013,0.029-0.026,0.058-0.037,0.088
     		c-0.005,0.013-0.009,0.026-0.013,0.04c-0.01,0.03-0.02,0.06-0.027,0.091c-0.004,0.016-0.007,0.032-0.01,0.047
     		c-0.006,0.029-0.012,0.058-0.017,0.087c-0.003,0.022-0.004,0.045-0.006,0.067c-0.002,0.024-0.005,0.047-0.006,0.071
     		c-0.002,0.047-0.001,0.095,0.002,0.143c0.039,0.562-0.175,1.245-0.177,1.252c-0.042,0.131-0.027,0.274,0.042,0.393l1.304,2.271
     		l-1.787,0.918l-0.903-0.164l-0.284-0.835c-0.074-0.217-0.291-0.352-0.515-0.33l-2.558,0.258c-0.257,0.027-0.45,0.247-0.442,0.506
     		l0.071,2.181l-1.428,2.52c-0.05,0.089-0.072,0.19-0.061,0.293l0.257,2.515l-2.591,1.298c-0.037,0.018-0.07,0.041-0.101,0.068
     		c-0.091,0.079-0.151,0.19-0.167,0.312l-0.219,1.773c-0.023,0.186,0.061,0.369,0.217,0.471l0.75,0.494l0.762,2.145l0.468,3.059
     		c0.011,0.072,0.038,0.141,0.079,0.202l1.086,1.598c0.137,0.202,0.401,0.272,0.621,0.166l1.745-0.844l0.84,2.805
     		c0.039,0.131,0.131,0.238,0.253,0.299c0.122,0.06,0.264,0.067,0.392,0.019l3.587-1.354c0.073-0.028,0.138-0.072,0.191-0.13
     		l1.19-1.314l3.516,1.909l1.337,0.84l0.442,1.767l-0.516,0.794c-0.028,0.042-0.049,0.089-0.062,0.138l-0.563,2.06
     		c-0.014,0.051-0.02,0.104-0.017,0.157l0.035,0.604c-0.038,0.255-0.012,0.822,0.728,1.43c0.418,0.344,1.004,0.549,1.475,0.714
     		c0.107,0.038,0.237,0.083,0.34,0.123c0.01,0.232,0.098,0.481,0.188,0.74c0.043,0.123,0.108,0.311,0.131,0.424
     		c-0.119,0.159-0.149,0.308-0.144,0.426c0.001,0.024,0.004,0.046,0.007,0.067c0.007,0.042,0.018,0.079,0.029,0.11
     		c0.154,0.419,0.659,0.492,1.303,0.543c0.949,0.075,2.208-0.743,2.531-1.162c0.008-0.011,0.019-0.023,0.026-0.033
     		c0.014-0.012,0.035-0.027,0.059-0.043c0.036-0.024,0.082-0.051,0.135-0.08l0.081,0.265c0.047,0.154,0.166,0.275,0.319,0.325
     		c0.038,0.012,0.077,0.02,0.117,0.023c0.118,0.008,0.236-0.026,0.332-0.099l1.252-0.95c0.514,0.073,0.926,0.074,1.237,0.004
     		c0.021-0.005,0.042-0.01,0.063-0.015c0.013-0.003,0.026-0.007,0.038-0.01c0.07-0.02,0.139-0.047,0.205-0.082
     		c0.003-0.001,0.005-0.003,0.008-0.004c0.027-0.014,0.053-0.031,0.078-0.048c0.008-0.005,0.015-0.012,0.023-0.017
     		c0.018-0.014,0.036-0.028,0.053-0.043c0.01-0.009,0.019-0.019,0.029-0.028c0.013-0.013,0.027-0.027,0.039-0.041
     		c0.01-0.013,0.02-0.026,0.029-0.039c0.01-0.013,0.02-0.026,0.028-0.04c0.01-0.017,0.019-0.035,0.028-0.053
     		c0.006-0.012,0.013-0.024,0.018-0.037c0.014-0.032,0.025-0.065,0.034-0.101c0.007-0.027,0.019-0.054,0.032-0.081
     		c0.005-0.011,0.011-0.021,0.018-0.033c0.012-0.021,0.026-0.041,0.042-0.061c0.007-0.009,0.014-0.018,0.022-0.028
     		c0.135-0.152,0.383-0.28,0.765-0.289c0.012,0,0.024,0,0.036,0c0.074,0,0.152,0.003,0.236,0.012
     		c1.371,0.149,1.745,0.318,1.811,0.417c-0.014,0.175-0.118,0.505-0.201,0.768c-0.019,0.059-0.036,0.116-0.054,0.171
     		c-0.004,0.014-0.009,0.029-0.013,0.043c-0.013,0.041-0.024,0.082-0.036,0.122c-0.051,0.176-0.083,0.323-0.087,0.452
     		c0,0.002,0,0.004,0,0.006c-0.001,0.02-0.001,0.039,0,0.058c0.006,0.191,0.077,0.345,0.261,0.458
     		c0.154,0.093,0.303,0.095,0.437,0.054c0.011-0.003,0.023-0.007,0.034-0.012c0.009-0.003,0.017-0.006,0.026-0.01
     		c0.051-0.02,0.101-0.048,0.15-0.081c0.007-0.004,0.013-0.009,0.02-0.013c0.01-0.007,0.019-0.014,0.029-0.021
     		c0.088-0.064,0.159-0.135,0.211-0.186c0.003-0.002,0.005-0.005,0.008-0.007c0.173-0.172,0.33-0.351,0.475-0.515
     		c0.128-0.147,0.294-0.336,0.404-0.429c0.005,0.006,0.009,0.013,0.015,0.02c0.002,0.004,0.005,0.007,0.007,0.011
     		c0.01,0.015,0.021,0.033,0.033,0.052c0.154,0.264,0.307,0.509,0.458,0.736c0.453,0.681,0.891,1.199,1.33,1.572
     		c0.397,0.338,1.031,0.95,1.392,1.303c0.164,0.16,0.272,0.267,0.275,0.271c0.134,0.135,0.334,0.179,0.512,0.115l0.488-0.174
     		c0.327,0.748,0.629,1.548,0.734,1.987c0.015,0.063,0.026,0.118,0.032,0.165c-0.004,0.002-0.008,0.005-0.012,0.008
     		c-0.446,0.295-0.531,0.593-0.36,1.269c0.135,0.533,0.441,1.179,0.602,1.501c-0.221,0.668-0.306,1.682,0.51,2.123
     		c0.182,0.099,0.34,0.176,0.481,0.244c0.429,0.21,0.59,0.287,0.834,0.676c0.1,0.158,0.11,0.241,0.124,0.364
     		c0.052,0.43,0.2,0.722,0.864,1.135c0.084,0.052,0.16,0.098,0.233,0.141l0,0c0.232,0.144,0.439,0.255,0.627,0.346l0.973,3.235
     		c0.034,0.114,0.109,0.212,0.21,0.276l3.029,1.887c0.046,0.028,0.096,0.049,0.148,0.061l1.671,0.391l0.942,3.323l-1.713,2.591
     		l-1.919-0.315l-2.059-0.863c-0.172-0.071-0.37-0.041-0.511,0.081l-1.845,1.591c-0.101,0.086-0.162,0.21-0.17,0.342
     		c-0.008,0.133,0.038,0.262,0.127,0.36l1.946,2.137l1.506,2.633l-0.509,1.469l-1.405,4.294c-0.061,0.185-0.006,0.389,0.14,0.52
     		l1.313,1.169c0.049,0.045,0.107,0.077,0.17,0.099l2.543,0.853l0.677,2.624l-0.171,2.547c-0.01,0.151,0.05,0.298,0.164,0.399
     		l1.73,1.542l-0.612,3.184c-0.008,0.039-0.01,0.079-0.008,0.119l0.077,1.417c0.005,0.09,0.034,0.176,0.084,0.251l1.435,2.103
     		l-0.193,2.208l-7.375,0.384c-0.139,0.008-0.269,0.074-0.356,0.183l-0.59,0.729l-0.665,0.036l-0.999-0.949
     		c-0.057-0.054-0.125-0.093-0.2-0.115l-3.81-1.119c-0.173-0.049-0.361-0.001-0.488,0.127c-0.127,0.128-0.174,0.316-0.121,0.488
     		l0.563,1.855l-0.239,0.684l-0.97-0.073c-0.075-0.005-0.149,0.006-0.219,0.034l-0.788,0.315l-1.056-1.104
     		c-0.061-0.064-0.138-0.11-0.224-0.133l-1.815-0.505c-0.147-0.042-0.303-0.012-0.424,0.079c-0.122,0.09-0.195,0.231-0.199,0.383
     		l-0.202,8.355l-18.834,0.239l-1.082-0.323l-0.732-1.252c-0.091-0.155-0.264-0.258-0.438-0.244l-1.406,0.04l-0.621-0.777
     		l0.311-1.713l0.806-1.284c0.073-0.118,0.094-0.26,0.058-0.392c-0.037-0.133-0.128-0.245-0.25-0.308l-1.102-0.564
     		c-0.088-0.045-0.187-0.064-0.284-0.05l-1.376,0.17l-1.664,0.016c-0.128,0.001-0.251,0.052-0.342,0.144l-2.547,2.53
     		c-0.145,0.144-0.186,0.364-0.102,0.55l0.625,1.388c0.085,0.189,0.281,0.306,0.489,0.287l0.496-0.042l0.077,1.467l0.248,2.123
     		l-0.579,1.342l-1.173,2.571l-0.796,0.421l-0.452-1.137c-0.054-0.138-0.168-0.243-0.308-0.288l-1.457-0.463
     		c-0.257-0.081-0.534,0.061-0.617,0.319l-0.387,1.21l-2.21-0.277c-0.162-0.02-0.324,0.041-0.431,0.165l-1.13,1.288l-0.302-0.409
     		l0.425-1.933c0.04-0.184-0.027-0.376-0.175-0.491l-1.106-0.879c-0.038-0.03-0.08-0.053-0.125-0.073l-2.864-1.129
     		c-0.14-0.055-0.297-0.043-0.427,0.032C100.645,170.065,100.557,170.194,100.535,170.344z" class="map-clickable-region"></path>
     <g>
     	<path id="Northeast" class="map-clickable-region" target-region="Northeast" d="M102.041,21.593c-0.006-0.045-0.018-0.09-0.036-0.132c-0.245-0.569-0.332-1.22-0.23-1.332
     		c0,0,0.068-0.012,0.174-0.006c0.03,0.003,0.058,0.006,0.083,0.009c0.036,0.005,0.074,0.012,0.116,0.023
     		c4.176,1.08,18.804,1.627,43.478,1.626c22.304,0,45.664-0.463,49.259-0.536l7.497,128.514l-0.384-0.26l0.255-1.721
     		c0.031-0.208-0.075-0.413-0.262-0.509l-1.148-0.587c-0.054-0.027-0.112-0.045-0.172-0.052l-0.799-0.083l-0.218-0.749l0.848-0.687
     		c0.15-0.122,0.215-0.319,0.167-0.507c-0.049-0.187-0.202-0.328-0.392-0.36l-2.031-0.348l-1.845-0.506
     		c0.17-0.337,0.309-0.77,0.224-1.2c-0.058-0.287-0.239-0.688-0.78-0.963c-0.658-0.334-0.676-0.454-0.721-0.746
     		c-0.023-0.155-0.053-0.346-0.138-0.578c-0.09-0.244-0.097-0.435-0.104-0.657c-0.012-0.308-0.024-0.656-0.264-1.071
     		c-0.397-0.688-1.539-1.249-1.667-1.31c-0.031-0.015-0.063-0.026-0.095-0.033c-0.098-0.024-0.202-0.017-0.297,0.02
     		c-0.025,0.01-0.058,0.021-0.089,0.031c-0.063,0.02-0.154,0.047-0.263,0.071c-0.026,0.006-0.052,0.011-0.078,0.016
     		c-0.022,0.004-0.044,0.008-0.066,0.012c-0.053,0.009-0.106,0.016-0.16,0.022c-0.004,0-0.007,0.001-0.011,0.001
     		c-0.064,0.006-0.128,0.009-0.192,0.009c-0.002,0-0.003,0-0.005,0c-0.057-0.001-0.113-0.005-0.167-0.012
     		c-0.013-0.002-0.025-0.005-0.038-0.007c-0.042-0.007-0.083-0.017-0.121-0.03c-0.013-0.004-0.026-0.008-0.039-0.014
     		c-0.046-0.018-0.09-0.039-0.127-0.067c-0.34-0.254-0.303-0.491-0.296-0.519c0.051-0.15,0.025-0.315-0.067-0.443
     		c-0.093-0.128-0.241-0.204-0.399-0.204h-2.374c-0.256-0.062-1.34-0.326-2.388-0.613c-0.206-0.056-0.305-0.101-0.349-0.128
     		c0.001-0.029,0.004-0.066,0.007-0.096c0.018-0.233,0.047-0.585-0.184-1.018c-0.391-0.734-0.626-1.561-0.638-1.6
     		c-0.022-0.062-0.541-1.521-1.244-2.557c-0.752-1.109-1.382-1.277-1.5-1.299c-0.062-0.012-0.126-0.011-0.189,0.001l-1.248,0.252
     		l-0.554-2.249c-0.024-0.097-0.077-0.184-0.152-0.251l-2.685-2.365l-2.175-2.459c-0.017-0.019-0.035-0.036-0.054-0.052
     		l-3.121-2.593c-0.091-0.077-0.208-0.117-0.327-0.114l-1.107,0.03l-3.219-1.793c-0.031-0.951-0.125-2.649-0.41-3.131
     		c-0.283-0.483-1.581-1.859-1.95-2.247c-0.14-0.267-0.684-1.251-1.563-2.223c-0.848-0.939-2.158-1.174-2.758-1.233
     		c-0.255-0.531-0.833-1.649-1.373-2.101c-0.046-0.038-0.092-0.07-0.14-0.099c-0.025-0.016-0.05-0.029-0.075-0.042
     		c-0.023-0.011-0.046-0.023-0.069-0.032c-0.344-0.146-0.658-0.043-0.849,0.123c-0.033,0.029-0.063,0.061-0.092,0.095
     		c-0.007,0.008-0.014,0.018-0.021,0.027c-0.012,0.016-0.025,0.031-0.036,0.047c-0.022,0.031-0.043,0.064-0.062,0.099
     		c-0.007,0.012-0.011,0.025-0.017,0.037c-0.016,0.033-0.032,0.066-0.046,0.101c-0.009,0.022-0.018,0.045-0.026,0.068
     		c-0.015,0.044-0.028,0.089-0.039,0.136c-0.006,0.025-0.011,0.05-0.016,0.075c-0.008,0.04-0.014,0.08-0.018,0.121
     		c-0.003,0.021-0.005,0.042-0.007,0.064c-0.004,0.052-0.005,0.105-0.005,0.158c0,0.014,0,0.027,0.001,0.041
     		c0.002,0.062,0.007,0.125,0.016,0.186c0.001,0.004,0.001,0.007,0.002,0.011c0.01,0.065,0.023,0.13,0.041,0.193c0,0,0,0,0,0
     		c0.017,0.061,0.038,0.121,0.063,0.178c0.003,0.007,0.007,0.014,0.01,0.022c0.025,0.056,0.052,0.11,0.084,0.161
     		c0.018,0.038,0.027,0.099,0.026,0.178c-0.001,0.264-0.099,0.728-0.253,1.202c-0.046,0.142-0.098,0.285-0.153,0.424
     		c-0.035,0.086-0.044,0.182-0.026,0.275c0.007,0.037,0.178,0.93,0.424,1.868c0.059,0.227,0.045,0.338,0.034,0.376
     		c-0.173,0.041-0.318,0.186-0.371,0.356c-0.003,0.01-0.083,0.256-0.498,0.529c-0.538,0.353-0.639,1.195-0.721,1.872
     		c-0.006,0.048-0.012,0.102-0.019,0.155c-0.002,0.016-0.004,0.033-0.006,0.05c-0.065-0.02-0.136-0.044-0.209-0.07l0.017-0.055
     		c-0.09-0.029-0.167-0.046-0.247-0.063c-0.07-0.016-0.142-0.032-0.237-0.066c-0.246-0.109-0.519-0.247-0.814-0.43
     		c-0.385-0.239-0.392-0.296-0.406-0.417c-0.021-0.169-0.052-0.425-0.268-0.77c-0.393-0.626-0.765-0.807-1.236-1.036
     		c-0.13-0.064-0.276-0.134-0.445-0.225c-0.277-0.15-0.087-0.858,0.013-1.098c0.059-0.137,0.051-0.294-0.019-0.425
     		c-0.005-0.009-0.465-0.869-0.619-1.477c-0.025-0.099-0.038-0.166-0.046-0.211c0.061-0.041,0.132-0.089,0.211-0.151
     		c0.24-0.193,0.643-0.515-0.804-3.646c-0.107-0.232-0.373-0.343-0.612-0.257l-0.625,0.223c-0.355-0.349-1.055-1.027-1.502-1.407
     		c-0.493-0.419-1.023-1.112-1.576-2.057c-0.044-0.076-0.14-0.235-0.29-0.372c-0.001-0.001-0.002-0.001-0.003-0.002
     		c-0.03-0.027-0.062-0.053-0.097-0.078c-0.013-0.009-0.025-0.017-0.038-0.025c-0.024-0.015-0.048-0.031-0.074-0.044
     		c-0.041-0.021-0.084-0.04-0.127-0.053c-0.007-0.002-0.014-0.003-0.02-0.005c-0.042-0.012-0.085-0.02-0.129-0.026
     		c-0.007-0.001-0.012-0.003-0.019-0.004c-0.018-0.002-0.035-0.001-0.053-0.002c-0.008,0-0.015-0.002-0.023-0.002
     		c-0.004,0-0.007,0.001-0.011,0.001c-0.026,0-0.052,0.002-0.078,0.005c-0.007,0.001-0.014,0.002-0.021,0.002
     		c-0.026,0.003-0.051,0.008-0.076,0.014c-0.009,0.002-0.018,0.004-0.027,0.006c-0.021,0.006-0.042,0.012-0.063,0.019
     		c-0.015,0.005-0.031,0.011-0.046,0.017c-0.013,0.006-0.027,0.011-0.041,0.017c-0.026,0.012-0.052,0.025-0.077,0.039
     		c-0.003,0.002-0.005,0.003-0.008,0.005c-0.095,0.054-0.185,0.122-0.274,0.202c0.001-0.008,0.001-0.015,0.002-0.022
     		c0.003-0.021,0.005-0.041,0.007-0.061c0.064-0.805-0.706-1.142-1.554-1.313c-0.385-0.078-0.786-0.121-1.132-0.158
     		c-0.074-0.008-0.147-0.014-0.218-0.017c-0.891-0.04-1.448,0.308-1.748,0.725c-0.002,0.002-0.004,0.004-0.005,0.007
     		c-0.017,0.024-0.033,0.048-0.048,0.072c-0.011,0.016-0.022,0.033-0.032,0.049c-0.004,0.007-0.008,0.014-0.012,0.021
     		c-0.037,0.065-0.07,0.132-0.096,0.2c-0.053,0.01-0.14,0.019-0.27,0.02c-0.007,0-0.013,0-0.02,0c-0.044,0-0.088-0.001-0.132-0.003
     		h-0.001c-0.322-0.013-0.63-0.065-0.633-0.065c-0.135-0.023-0.272,0.01-0.38,0.093l-0.856,0.65l-0.041-0.134
     		c-0.04-0.132-0.134-0.241-0.259-0.301c-0.125-0.06-0.269-0.064-0.396-0.012c-0.623,0.254-1.008,0.503-1.124,0.711
     		c-0.075,0.09-0.383,0.322-0.746,0.508c-0.003,0.001-0.005,0.002-0.007,0.004c-0.031,0.016-0.062,0.031-0.093,0.045
     		c-0.021,0.01-0.042,0.02-0.063,0.029c-0.016,0.007-0.032,0.014-0.048,0.021c-0.031,0.013-0.061,0.026-0.092,0.038
     		c-0.01,0.004-0.02,0.007-0.029,0.011c-0.033,0.012-0.066,0.024-0.098,0.034c-0.011,0.004-0.021,0.007-0.032,0.01
     		c-0.029,0.009-0.058,0.017-0.087,0.025c-0.015,0.004-0.031,0.008-0.046,0.011c-0.023,0.006-0.046,0.01-0.069,0.014
     		c-0.02,0.004-0.04,0.007-0.06,0.01c-0.018,0.002-0.036,0.004-0.054,0.006c-0.021,0.002-0.042,0.003-0.063,0.004
     		c-0.028,0.001-0.056,0.002-0.082-0.001c-0.115-0.01-0.209-0.019-0.286-0.029c0.02-0.279-0.09-0.594-0.191-0.885
     		c-0.044-0.127-0.115-0.332-0.131-0.43c0.048-0.13,0.049-0.272,0-0.403c-0.124-0.329-0.473-0.451-1.001-0.635
     		c-0.398-0.139-0.892-0.312-1.175-0.545c-0.353-0.291-0.381-0.48-0.383-0.516c0.013-0.051,0.018-0.102,0.015-0.152l-0.034-0.584
     		l0.522-1.908l0.592-0.909c0.075-0.114,0.098-0.254,0.065-0.387l-0.542-2.168c-0.031-0.123-0.108-0.229-0.215-0.296l-1.532-0.962
     		l-3.88-2.108c-0.2-0.11-0.448-0.068-0.6,0.101l-1.371,1.513l-2.982,1.127l-0.854-2.853c-0.041-0.138-0.141-0.252-0.273-0.31
     		c-0.132-0.058-0.283-0.056-0.412,0.008l-1.882,0.911l-0.785-1.155l-0.458-2.995c-0.005-0.032-0.012-0.062-0.022-0.091
     		l-0.833-2.343c-0.009-0.025-0.02-0.05-0.033-0.073c-0.038-0.069-0.093-0.129-0.16-0.173l-0.633-0.417l0.15-1.21l2.659-1.333
     		c0.182-0.091,0.289-0.286,0.269-0.489l-0.276-2.697l1.419-2.503c0.044-0.079,0.067-0.169,0.064-0.258l-0.061-1.861l1.712-0.173
     		l0.251,0.738c0.058,0.169,0.202,0.294,0.377,0.326l1.352,0.245c0.107,0.019,0.216,0.003,0.312-0.047l2.394-1.23
     		c0.119-0.062,0.208-0.17,0.247-0.299c0.038-0.128,0.022-0.267-0.045-0.384l-1.458-2.538c0.078-0.302,0.198-0.872,0.16-1.404
     		c-0.002-0.026-0.001-0.051,0.003-0.075c0.002-0.009,0.004-0.018,0.006-0.027c0.004-0.014,0.007-0.029,0.012-0.043
     		c0.004-0.01,0.009-0.019,0.014-0.029c0.007-0.012,0.012-0.025,0.021-0.037c0.006-0.009,0.013-0.017,0.02-0.026
     		c0.009-0.011,0.019-0.023,0.03-0.034c0.013-0.013,0.028-0.024,0.042-0.036c0.018-0.014,0.035-0.029,0.055-0.042
     		c0.013-0.009,0.029-0.017,0.043-0.025c0.024-0.013,0.048-0.027,0.074-0.038c0.016-0.007,0.033-0.013,0.049-0.019
     		c0.029-0.011,0.057-0.022,0.088-0.031c0.018-0.006,0.038-0.01,0.058-0.014c0.032-0.008,0.064-0.016,0.098-0.022
     		c0.022-0.004,0.045-0.007,0.068-0.01c0.034-0.005,0.068-0.01,0.104-0.014c0.027-0.002,0.056-0.003,0.084-0.005
     		c0.034-0.002,0.068-0.004,0.104-0.005c0.036,0,0.075,0.002,0.112,0.003c0.03,0.001,0.059,0.001,0.089,0.003
     		c0.07,0.004,0.141,0.011,0.215,0.02c0.063,0.008,0.121,0.012,0.175,0.015c0.015,0.001,0.031,0.002,0.046,0.002
     		c0.016,0,0.034,0.002,0.05,0.002c0.016,0,0.029-0.002,0.044-0.003c0.041-0.001,0.081-0.004,0.119-0.008
     		c0.019-0.002,0.037-0.004,0.055-0.007c0.046-0.007,0.09-0.016,0.131-0.027c0.005-0.001,0.011-0.003,0.016-0.004
     		c0.133-0.038,0.246-0.1,0.338-0.185c0.003-0.003,0.005-0.005,0.008-0.008c0.023-0.022,0.046-0.044,0.066-0.069
     		c0.026-0.031,0.047-0.062,0.064-0.092c0.002-0.003,0.005-0.006,0.007-0.009c0.003-0.005,0.005-0.01,0.007-0.015
     		c0.005-0.009,0.011-0.019,0.016-0.027c0.005-0.01,0.008-0.021,0.013-0.031c0.007-0.015,0.013-0.03,0.019-0.045
     		c0.007-0.018,0.012-0.036,0.017-0.053c0.005-0.016,0.009-0.031,0.013-0.047c0.004-0.018,0.007-0.036,0.01-0.053
     		c0.003-0.017,0.005-0.033,0.007-0.049c0.002-0.017,0.002-0.033,0.003-0.05c0.001-0.018,0.002-0.036,0.002-0.054
     		c0-0.015-0.001-0.029-0.002-0.044c-0.001-0.02-0.002-0.04-0.004-0.06c-0.001-0.011-0.003-0.021-0.005-0.033
     		c-0.003-0.023-0.006-0.047-0.011-0.07c-0.001-0.004-0.002-0.007-0.002-0.01c-0.013-0.063-0.029-0.124-0.049-0.184l1.513-0.278
     		l1.653,0.056l1.71,0.703c0.079,0.032,0.165,0.043,0.25,0.033l0.855-0.111c0.201-0.027,0.366-0.174,0.414-0.371l0.216-0.882
     		l2.4,0.554l0.666,0.835c0.084,0.106,0.209,0.173,0.344,0.184l1.077,0.088c0.104,0.01,0.21-0.016,0.299-0.073l1.745-1.084
     		l1.249-0.73l2.731-0.925l1.611,0.762c0.128,0.06,0.277,0.062,0.407,0.005c0.13-0.058,0.229-0.168,0.272-0.304l0.659-2.106
     		c0.017-0.054,0.025-0.111,0.022-0.167l-0.097-2.415c-0.009-0.218-0.161-0.405-0.374-0.458l-2.04-0.501l-3.183-1.345
     		c-0.043-0.018-0.089-0.03-0.135-0.036l-2.717-0.313l-1.29-1.686c-0.11-0.143-0.29-0.217-0.468-0.187l-1.688,0.269l-0.672-1.063
     		c-0.073-0.115-0.192-0.196-0.327-0.221l-1.101-0.202l-0.124-0.707c-0.025-0.146-0.116-0.273-0.245-0.345l-2.958-1.646
     		c-0.02-0.011-0.04-0.021-0.06-0.029l-1.921-0.75l-2.406-1.016l0.449-2.103c0.012-0.054,0.014-0.11,0.007-0.164l-0.343-2.749
     		l-0.045-2.826c-0.001-0.048-0.008-0.095-0.022-0.139c-0.042-0.133-0.14-0.245-0.272-0.303l-2.318-1.014l-0.097-3.423
     		c-0.001-0.045-0.009-0.09-0.023-0.133l-1.298-4.109c-0.045-0.143-0.153-0.257-0.293-0.311l-2.864-1.1l-1.916-1.925
     		c-0.045-0.044-0.098-0.081-0.157-0.105l-3.774-1.591c-0.181-0.076-0.39-0.038-0.531,0.099l-1.817,1.744l-1.685-2.898l0.667-1.549
     		c0.06-0.14,0.052-0.299-0.021-0.432c-0.073-0.133-0.204-0.225-0.354-0.248l-2.306-0.366l0.119-0.729
     		c0.024-0.147-0.021-0.297-0.121-0.408c-0.101-0.112-0.245-0.171-0.395-0.161l-4.467,0.283l0.538-0.639
     		C102.019,21.865,102.058,21.728,102.041,21.593"></path>
     </g>
     <g>
     	<path id="Cariboo" class="map-clickable-region" target-region="Cariboo" d="M203.091,151.45c0.041,0,0.083-0.006,0.123-0.016l0.047,0.032l-0.01,0.039l1.413,0.374l0.529,0.871
     		c0.019,0.033,0.043,0.062,0.069,0.09l1.014,1.031l-0.347,1.025c-0.635-0.123-1.074-0.055-1.307,0.201
     		c-0.085,0.093-0.265,0.354-0.108,0.749c0.262,0.661,1.209,2.002,1.344,2.19l1.636,1.896c0.158,0.182,0.421,0.223,0.627,0.099
     		l1.005-0.612l2.335,1.241l0.654,1.986c0.054,0.163,0.188,0.286,0.356,0.325l1.962,0.454l0.747,0.743
     		c0.13,0.129,0.322,0.175,0.495,0.119c0.175-0.055,0.304-0.203,0.335-0.383l0.278-1.589l1.433,0.692l0.907,1.553l0.158,0.813
     		c0.025,0.133,0.105,0.25,0.22,0.322l1.239,0.782l0.578,1.766c0.047,0.144,0.159,0.258,0.301,0.31l1.726,0.62l0.535,0.939
     		l-0.493,0.496c-0.11,0.11-0.161,0.266-0.137,0.42c0.023,0.154,0.118,0.287,0.255,0.361l1.738,0.925l-0.141,1.619
     		c-0.01,0.105,0.015,0.21,0.071,0.299l0.801,1.304l0.678,1.866l-0.413,1.049l-2.136,0.712c-0.145,0.048-0.259,0.161-0.309,0.306
     		l-0.836,2.412l-0.761,0.998l-1.499-0.049l-0.865-0.817l0.485-0.38c0.111-0.088,0.18-0.218,0.187-0.359
     		c0.008-0.141-0.045-0.28-0.146-0.378l-1.254-1.232v-2.631c0-0.109-0.036-0.214-0.103-0.302l-1.388-1.788
     		c-0.037-0.048-0.083-0.088-0.135-0.12l-2.188-1.314c-0.172-0.103-0.392-0.09-0.553,0.031l-1.557,1.196l-1.451-0.145l-1.61-1.487
     		c-0.083-0.076-0.189-0.122-0.301-0.13l-1.053-0.068c-0.123-0.01-0.248,0.032-0.345,0.111l-1.438,1.186
     		c-0.616-0.139-1.23-0.372-1.368-0.524c-0.136-0.674-1.186-2.154-1.51-2.601c-0.014-0.019-0.029-0.038-0.046-0.054l-1.147-1.172
     		c-0.107-0.11-0.26-0.162-0.411-0.144c-1.405,0.171-2.242,0.435-2.488,0.781c-0.359,0.504-0.477,1.706,0.053,2.232
     		c0.157,0.169,0.629,1.156,0.994,2.021c-0.022,0.223-0.049,0.661,0.028,1.051c-0.006,0.136-0.263,0.509-0.544,0.796l-1.323,0.635
     		c-0.218,0.059-0.827,0.257-1.079,0.702c-0.124,0.217-0.149,0.46-0.073,0.701c0.111,0.355,0.209,1.58,0.245,2.268
     		c0.001,0.028,0.005,0.056,0.011,0.083l0.586,2.595c0.021,0.092,0.068,0.176,0.135,0.243l2.37,2.326l0.27,2.323
     		c-0.007,0.602-0.024,1.308-0.035,1.403c-0.032,0.139-0.503,2.256-0.503,2.256c-0.01,0.046-0.014,0.092-0.011,0.139l0.106,1.617
     		l-1.933,0.641c-0.142,0.046-0.255,0.155-0.306,0.296l-0.512,1.38c-0.02,0.055-0.031,0.113-0.031,0.171v3.769h-6.391
     		c-0.117,0-0.23,0.042-0.32,0.119l-1.213,1.036l-1.107,0.334l-1.785-0.736v-1.736c0-0.271-0.22-0.491-0.492-0.491h-4.424
     		c-0.272,0-0.492,0.22-0.492,0.491v0.491h-5.899c-0.081,0-0.161,0.021-0.232,0.059l-1.028,0.552l-1.911,0.638
     		c-0.179,0.06-0.309,0.217-0.332,0.406l-0.4,3.243c-0.02,0.161,0.041,0.321,0.162,0.429l0.863,0.761
     		c0.044,0.606-0.003,1.228-0.109,1.368c-0.141,0.157-0.267,0.362-0.389,0.561c-0.099,0.16-0.273,0.444-0.383,0.539
     		c-0.587-0.254-2.611-1.057-2.984-1.206l-0.697-0.5c-0.097-0.07-0.217-0.101-0.333-0.09l-2.166,0.206
     		c-0.161,0.015-0.305,0.109-0.384,0.252l-1.341,2.423c-0.205,0.146-0.334,0.477-0.493,0.881c-0.198,0.506-1.517,1.304-2.419,1.727
     		l-2.862,0.673l-1.473-0.446l-0.675-0.513l-2.705-2.594l-0.867-1.627c-0.04-0.075-0.099-0.138-0.171-0.184
     		c-0.238-0.151-0.547-0.367-0.625-0.448c-0.276-0.287-0.726-0.243-1.496-0.14c-0.171,0.023-0.364,0.049-0.44,0.049
     		c-0.212-0.008-1.483-0.297-2.539-0.562c-0.136-0.033-0.281-0.007-0.396,0.071c-0.085,0.058-0.296,0.147-0.385,0.115
     		c-0.035-0.011-0.078-0.08-0.11-0.176c-0.129-0.381-0.121-0.693-0.115-0.901c0.006-0.21,0.014-0.529-0.287-0.693
     		c-0.199-0.11-0.42-0.083-0.631,0.062c-0.088,0.029-0.385-0.014-0.563-0.039c-0.407-0.058-0.827-0.118-1.182,0.045
     		c-0.267,0.123-0.411,0.34-0.5,0.503c-0.022-0.016-0.047-0.036-0.075-0.058c-0.642-0.52-1.039-0.611-1.329-0.676
     		c-0.122-0.028-0.184-0.043-0.216-0.058c-0.138-0.132-0.415-0.842-0.593-1.521c-0.016-0.061-0.044-0.119-0.082-0.17l-1.097-1.462
     		c-0.004-0.005-0.008-0.011-0.012-0.015c0.483-0.58,0.707-1.157,0.707-1.511c0.002-0.16,0.126-1.45,0.243-2.583
     		c0.005-0.047,0.003-0.094-0.005-0.139l-0.246-1.343c-0.013-0.069-0.04-0.134-0.079-0.191l-1.291-1.872
     		c-0.027-0.04-0.059-0.075-0.096-0.104l-2.631-2.121l-0.534-2.171l0.212-1.538l0.643-0.695c0.125-0.109,0.809-0.707,1.098-0.957
     		c0.481-0.415,0.48-1.024,0.48-1.462c0-0.215,0.113-0.685,0.189-0.953c0.092-0.202,0.214-0.419,0.296-0.529
     		c0.302-0.039,0.578-0.284,0.725-0.561c0.112-0.213,0.41-0.965-0.48-1.722c-0.667-0.567-1.255-1.045-1.517-1.257
     		c-0.152-0.726-0.623-1.753-1.615-1.785c-0.827-0.025-2.517-0.088-2.975-0.103c-0.092-0.064-0.274-0.217-0.359-0.499
     		c-0.044-0.145-0.019-0.207,0.008-0.272c0.119-0.284,0.028-0.475-0.069-0.585c-0.217-0.247-0.491-0.171-0.733-0.103
     		c-0.158,0.044-0.51,0.089-0.85,0.132c-0.869,0.11-1.512,0.205-1.866,0.413c-0.455,0.267-1.19,0.65-1.198,0.654
     		c-0.022,0.012-0.043,0.025-0.063,0.04l-0.222,0.161c-1.085-0.728-2.246-1.567-2.559-1.884c0.043-0.358,0.239-1.112,0.726-1.319
     		c0.846-0.358,1.688-0.721,1.688-0.721c0.127-0.056,0.225-0.161,0.27-0.292c0.045-0.132,0.033-0.275-0.034-0.397l-0.663-1.207
     		c-0.053-0.096-0.136-0.171-0.236-0.214l-1.618-0.698l-0.373-1.754l18.293-0.231c0.265-0.004,0.479-0.215,0.485-0.48l0.198-8.199
     		l1.078,0.3l1.192,1.245c0.139,0.145,0.352,0.191,0.537,0.117l0.99-0.395l1.233,0.091c0.219,0.017,0.427-0.118,0.5-0.327
     		l0.417-1.191c0.035-0.1,0.037-0.206,0.006-0.306l-0.345-1.137l2.823,0.827l1.065,1.012c0.097,0.094,0.232,0.144,0.364,0.135
     		l1.094-0.058c0.139-0.008,0.269-0.074,0.356-0.182l0.59-0.729l7.582-0.397c0.245-0.013,0.443-0.204,0.464-0.449l0.246-2.806
     		c0.01-0.114-0.02-0.226-0.083-0.321l-1.456-2.135l-0.066-1.22l0.653-3.398c0.033-0.171-0.027-0.345-0.156-0.46l-1.76-1.568
     		l0.16-2.385v-0.001c0.004-0.053-0.001-0.105-0.014-0.157l-0.764-2.957c-0.042-0.16-0.162-0.29-0.32-0.343l-2.7-0.906l-0.997-0.888
     		l1.302-3.98l0.58-1.672c0.046-0.134,0.033-0.282-0.038-0.405l-1.644-2.875c-0.018-0.031-0.039-0.061-0.063-0.087l-1.642-1.803
     		l1.232-1.062l1.832,0.767c0.036,0.015,0.072,0.025,0.111,0.032l2.29,0.377c0.191,0.031,0.383-0.053,0.49-0.215l2.014-3.045
     		c0.079-0.12,0.102-0.267,0.063-0.405l-1.083-3.818c-0.048-0.172-0.187-0.304-0.361-0.345l-1.874-0.437l-2.803-1.746l-0.716-2.382
     		c0.047,0.012,0.091,0.023,0.131,0.035c0.028,0.009,0.064,0.016,0.099,0.02c0.016,0.002,0.031,0.003,0.047,0.004
     		c0.008,0,0.018,0.002,0.026,0.002c0.021,0,0.041-0.002,0.061-0.004c0.005-0.001,0.011,0,0.016-0.001
     		c0.179-0.02,0.302-0.108,0.389-0.24c0.133-0.185,0.178-0.457,0.222-0.819c0.005-0.039,0.01-0.077,0.014-0.116
     		c0.035-0.286,0.126-1.047,0.284-1.166c0.457-0.3,0.689-0.617,0.806-0.84c0.107-0.057,0.223-0.145,0.321-0.283
     		c0.211-0.299,0.252-0.705,0.119-1.21c-0.182-0.695-0.325-1.382-0.382-1.666c0.246-0.646,0.644-1.923,0.247-2.553
     		c-0.067-0.105-0.078-0.269-0.062-0.396c0.376,0.406,0.88,1.363,1.131,1.921c0.07,0.156,0.216,0.258,0.383,0.281
     		c0.02,0.003,0.04,0.009,0.061,0.009c0.001,0,0.007,0,0.011,0c0.104,0.003,1.563,0.063,2.344,0.928
     		c0.913,1.011,1.443,2.062,1.449,2.073c0.022,0.043,0.051,0.084,0.085,0.12c0.621,0.65,1.676,1.8,1.86,2.112
     		c0.133,0.264,0.255,1.734,0.284,2.942c0.004,0.174,0.1,0.332,0.253,0.417l3.581,1.994c0.077,0.043,0.164,0.068,0.253,0.062
     		l1.056-0.029l2.95,2.452l2.171,2.453c0.014,0.016,0.028,0.03,0.043,0.043l2.592,2.284l0.63,2.557
     		c0.063,0.256,0.317,0.418,0.575,0.365l1.566-0.317c0.133,0.073,0.437,0.288,0.823,0.857c0.157,0.231,0.305,0.491,0.44,0.75
     		c0.404,0.777,0.682,1.552,0.682,1.552c0.005,0.019,0.07,0.247,0.187,0.572c0.002,0.004,0.003,0.008,0.005,0.013
     		c0,0.001,0.001,0.003,0.001,0.004c0.12,0.332,0.294,0.762,0.514,1.175c0.095,0.178,0.085,0.304,0.071,0.477
     		c-0.047,0.582,0.115,0.994,1.064,1.251c1.207,0.33,2.461,0.63,2.473,0.634c0.038,0.009,0.076,0.013,0.115,0.013h1.944
     		c0.068,0.313,0.254,0.667,0.661,0.972c0.068,0.051,0.138,0.092,0.211,0.13c0.012,0.006,0.023,0.012,0.035,0.018
     		c0.074,0.035,0.149,0.064,0.226,0.088c0.014,0.004,0.028,0.009,0.042,0.013c0.083,0.024,0.168,0.041,0.252,0.053
     		c0.011,0.002,0.022,0.003,0.034,0.005c0.101,0.013,0.201,0.019,0.3,0.02h0.002h0.002c0.394,0.001,0.76-0.086,0.986-0.155
     		c0.214,0.115,0.494,0.286,0.72,0.465c0.01,0.008,0.022,0.016,0.031,0.024c0.008,0.007,0.015,0.013,0.023,0.02
     		c0.128,0.107,0.234,0.215,0.292,0.315c0.117,0.204,0.123,0.369,0.132,0.615c0.01,0.255,0.021,0.57,0.165,0.962
     		c0.05,0.137,0.069,0.257,0.088,0.385c0.081,0.534,0.218,0.953,1.249,1.476c0.227,0.115,0.251,0.233,0.26,0.276
     		c0.062,0.306-0.251,0.797-0.411,0.986c-0.109,0.129-0.146,0.303-0.096,0.464c0.049,0.162,0.178,0.286,0.34,0.33l2.54,0.694
     		l1.009,0.174l-0.26,0.21c-0.154,0.125-0.218,0.33-0.163,0.519l0.402,1.381c0.056,0.192,0.222,0.33,0.421,0.351l1.036,0.11
     		l0.752,0.385l-0.249,1.676c-0.007,0.045-0.006,0.09-0.001,0.134c0.002,0.013,0.007,0.026,0.009,0.039
     		c0.006,0.03,0.013,0.059,0.025,0.087c0.007,0.016,0.016,0.03,0.025,0.046c0.013,0.023,0.025,0.046,0.041,0.067
     		c0.012,0.015,0.025,0.028,0.039,0.041c0.013,0.013,0.023,0.028,0.037,0.04l1.477,1.203
     		C202.87,151.414,202.98,151.45,203.091,151.45"></path>
     </g>
     <g>
     	<path id="Vancouver-Island-Coast" class="map-clickable-region" target-region="Vancouver Island / Coast" d="M105.315,189.768l-0.238,1.399c-0.167,0.3-0.414,0.633-0.511,0.789c-0.1-0.001,0.033-0.018-0.458-0.036
     		v-0.017c0-0.314-0.118-0.476-0.387-0.664c-0.134-0.093-0.305-0.287-0.36-0.394c-0.124-0.244-0.283-0.51-0.388-0.681
     		c0.116-0.528,0.214-1.138,0.144-1.473c0.035-0.156,0.272-0.525,0.407-0.637c0.141-0.042,0.46-0.19,1.337-0.822l0.711,0.243
     		L105.315,189.768z M106.528,198.909l-0.168,0.841l-0.548,0.051c-0.305-0.146-1.083-0.511-1.555-0.646
     		c-0.27-0.078-0.698-0.367-0.99-0.593c-0.02-0.275-0.022-0.543-0.005-0.617c0.052-0.155,0.075-0.384,0.113-0.775
     		c0.023-0.236,0.061-0.632,0.09-0.719c0.074-0.146,0.646-0.96,1.107-1.596l0.242-0.277l0.541,0.24l0.783,1.643l0.482,1.509
     		L106.528,198.909z M100.801,175.576c0.05-0.065,0.087-0.14,0.099-0.224l0.618-4.245l2.219,0.873l0.808,0.637l-0.407,1.844
     		c-0.027,0.123-0.003,0.235,0.062,0.339l-0.412,0.042l-1.176-0.592c-0.189-0.094-0.417-0.058-0.567,0.091L100.801,175.576z
     		 M108.125,185.478c-0.074,0.013-0.15,0.055-0.227,0.121C107.935,185.557,108.011,185.498,108.125,185.478z M135.432,225.247
     		l0.966,2.657c0.06,0.166,0.204,0.286,0.378,0.316c0.173,0.029,0.35-0.035,0.462-0.17l0.967-1.166
     		c0.129-0.156,0.15-0.376,0.051-0.552c-0.007-0.012-0.551-0.992-0.84-1.555c0.116-0.027,0.262-0.051,0.399-0.062l1.394,0.392
     		l-0.431,1.775c-0.006,0.023-0.01,0.047-0.012,0.071l-0.307,3.319c-0.008,0.09,0.008,0.18,0.048,0.262l0.615,1.252
     		c0.019,0.039,0.042,0.075,0.071,0.107l2.403,2.757c0.897,0.933,1.888,1.977,2.269,2.397c-0.206,0.296-0.671,0.844-1.078,1.283
     		c-0.135,0.145-0.169,0.359-0.086,0.539l1.362,2.975c0.018,0.041,0.043,0.08,0.072,0.114l1.187,1.398
     		c0.05,0.06,0.115,0.107,0.187,0.136l2.987,1.23l1.586,0.777c0.02,0.01,0.04,0.019,0.061,0.025l3.782,1.26l1.177,0.531
     		c0.299,0.37,1.445,1.813,1.909,2.7c0.174,0.332,0.322,0.587,0.447,0.801c0.267,0.46,0.39,0.669,0.432,1.075
     		c0.091,0.887,0.508,1.056,0.963,1.162c0.054,0.013,0.112,0.026,0.173,0.045c0.228,0.068,0.514,0.372,0.695,0.643
     		c0.2,0.298,2.173,2.115,2.956,2.524c0.025,0.014,0.043,0.025,0.052,0.029c-0.042,0.12-0.299,0.39-0.712,0.55
     		c-0.408,0.158-0.541,0.095-0.572,0.08c-0.131-0.127-0.325-0.171-0.5-0.111c-0.194,0.066-0.326,0.245-0.332,0.45
     		c-0.001,0.027-0.02,0.667,0.054,1.159c0.087,0.582,0.488,0.674,0.66,0.714c0.086,0.02,0.101,0.023,0.144,0.069
     		c0.318,0.35,1.016,0.587,1.433,0.703c0.162,0.389,0.479,1.088,0.779,1.384c0.225,0.261,0.713,1.901,0.728,2.583
     		c0.008,0.325,0.051,0.489,0.083,0.576c-0.006,0.045-0.058,0.188-0.151,0.425C164.292,265,164.266,265,164.222,265
     		c-0.182,0-0.481-0.146-0.721-0.264c-0.093-0.047-0.182-0.09-0.264-0.127c-0.169-0.075-0.323-0.111-0.471-0.111
     		c-0.46,0-0.73,0.349-0.775,0.706c-0.256,0.757-0.635,1.646-0.842,1.901c-0.221-0.043-0.73-0.382-1.074-0.613
     		c-0.291-0.194-0.592-0.397-0.896-0.567c-0.6-0.334-0.789-0.382-1.099-0.441c-0.185-0.036-0.438-0.085-1.011-0.289
     		c-0.245-0.088-0.458-0.162-0.648-0.228c-0.864-0.302-1.258-0.439-2.271-0.988c-0.746-0.402-1.261-0.635-1.674-0.822
     		c-0.297-0.134-0.554-0.25-0.816-0.393c-0.476-0.261-0.944-0.408-1.719-0.652c-0.377-0.119-0.833-0.263-1.405-0.457
     		c-1.146-0.386-1.561-0.414-1.809-0.429c-0.097-0.007-0.097-0.007-0.134-0.025c-0.207-0.11-1.56-1.071-2.755-1.939
     		c-0.938-0.592-2.53-1.634-2.808-1.905c-0.106-0.105-0.23-0.208-0.36-0.317c-0.341-0.284-0.665-0.552-0.741-0.938
     		c0.134-0.074,0.5-0.155,0.774-0.215c0.46-0.102,1.032-0.228,1.631-0.478c0.494-0.204,0.941-0.426,1.002-0.855
     		c0.057-0.409-0.253-0.656-0.553-0.896c-0.227-0.181-0.51-0.406-0.751-0.74c-0.244-0.339-0.552-0.686-0.98-0.686
     		c-0.47,0-0.731,0.393-1.007,0.807c-0.161,0.243-0.345,0.519-0.592,0.78c-0.023,0.024-0.043,0.045-0.063,0.065
     		c-0.072-0.172-0.179-0.367-0.362-0.527c-0.611-0.535-1.844-0.772-2.407-0.675c-0.503,0.088-0.9,0.555-1.251,0.967
     		c-0.069,0.081-0.134,0.159-0.203,0.232l-1.201-1.544c-0.089-0.113-0.222-0.182-0.366-0.19l-1.59-0.072
     		c-0.961-0.758-1.828-1.627-1.943-1.947c0.156-0.389,0.53-0.77,0.889-0.681c0.19,0.045,0.319,0.098,0.423,0.14
     		c0.117,0.047,0.226,0.091,0.36,0.091c0.162,0,0.543-0.067,0.578-0.681c0.052-0.901-0.3-1.75-1.076-2.597
     		c-0.232-0.252-0.594-0.589-1.062-0.589c-0.387,0-0.652,0.221-0.865,0.4c-0.111,0.093-0.209,0.175-0.298,0.208
     		c-0.015-0.053-0.035-0.107-0.062-0.165c0.028-0.051,0.072-0.119,0.107-0.173c0.236-0.364,0.631-0.972,0.338-1.851
     		c-0.193-0.577-0.658-0.909-1.276-0.909c-0.621,0-1.224,0.328-1.291,0.366c-0.078,0.044-0.143,0.109-0.187,0.186
     		c-0.241,0.424-0.585,0.856-0.72,0.955c-0.125-0.094-0.308-0.362-0.472-0.601c-0.214-0.313-0.48-0.702-0.846-1.097
     		c-0.275-0.298-0.555-0.442-0.855-0.442c-0.463,0-0.764,0.35-0.983,0.607c-0.077,0.09-0.206,0.241-0.25,0.262
     		c-0.134,0.023-0.235-0.025-0.294-0.071c-0.094-1.049-0.139-2.266-0.075-2.475c0.083-0.138,0.128-0.277,0.134-0.407
     		c1.789-0.951,2.039-1.479,2.039-1.872c0-0.642-0.484-0.997-1.362-1.644c-0.325-0.239-0.723-0.531-1.201-0.909
     		c-0.448-0.354-0.703-0.485-0.938-0.485c-0.203,0-0.384,0.102-0.484,0.271c-0.214,0.365,0.002,0.781,0.553,1.771
     		c0.199,0.357,0.424,0.761,0.495,0.968c0.006,0.016,0.01,0.031,0.014,0.043c-0.083,0.022-0.204,0.044-0.293,0.06
     		c-0.202,0.036-0.431,0.077-0.66,0.162c-0.072,0.026-0.117,0.037-0.142,0.041c-0.019-0.017-0.037-0.037-0.057-0.058
     		c-0.105-0.109-0.265-0.273-0.533-0.399c-0.118-0.056-0.235-0.108-0.352-0.16c-0.392-0.174-0.762-0.34-1.171-0.631
     		c-0.358-0.256-0.463-0.377-0.534-0.459c-0.025-0.03-0.053-0.061-0.086-0.094c-0.028-0.108-0.053-0.403,0.161-0.726
     		c0.075-0.114,0.205-0.234,0.341-0.361c0.427-0.397,1.221-1.136,0.183-2.268c-0.237-0.26-0.559-0.556-0.949-0.556
     		c-0.429,0-0.651,0.326-0.799,0.542c-0.061,0.09-0.154,0.225-0.237,0.232c-0.442,0-1.337-0.58-1.938-1.136
     		c0.071-0.143,0.386-0.441,0.884-0.718c0.639-0.356,1.29-0.95,0.641-2.412c-0.355-0.798-1.043-1.238-1.938-1.238
     		c-0.279,0-0.572,0.046-0.825,0.13c-0.611,0.201-0.592,0.635-0.58,0.922c0.011,0.268,0.031,0.718-0.199,1.607
     		c-0.006,0.024-0.012,0.048-0.018,0.07c-0.045-0.081-0.09-0.164-0.13-0.237c-0.226-0.419-0.508-0.938-0.878-1.4
     		c-0.847-1.059-0.95-1.151-1.622-1.662c-0.164-0.123-0.366-0.277-0.63-0.485c-0.405-0.32-0.719-0.461-1.019-0.461
     		c-0.656,0-0.867,0.622-1.021,1.077c-0.081,0.24-0.166,0.489-0.294,0.683c-0.036,0.054-0.063,0.076-0.059,0.077
     		c-0.082,0-0.27-0.103-0.701-0.594c-0.06-0.068-0.111-0.126-0.148-0.164c-0.123-0.124-0.348-0.367-0.533-0.57l0.551-0.598
     		c0.065-0.07,0.107-0.156,0.124-0.25c0.121-0.707,0.259-1.966-0.165-2.469c-0.114-0.135-0.262-0.222-0.439-0.251
     		c-0.009-0.141,0.02-0.389,0.076-0.59c0.018-0.065,0.023-0.134,0.013-0.201l-0.38-2.618c-0.037-0.253-0.259-0.432-0.517-0.42
     		c-0.005,0-0.505,0.031-1.017,0.031c-0.52,0-0.741-0.033-0.82-0.049c-0.199-0.217-0.518-0.753-0.696-1.05
     		c-0.15-0.252-0.672-1.628-1.017-2.538c-0.204-0.536-0.391-1.032-0.519-1.348c-0.147-0.365-0.125-0.399-0.034-0.544
     		c0.093-0.147,0.233-0.368,0.295-0.737c0.019-0.115,0.034-0.221,0.042-0.319c0.378-0.13,0.793-0.295,0.976-0.599
     		c0.359-0.127,1.511-0.308,2.503-0.416c0.873,0.233,3.28,0.873,3.463,0.906c0.145,0.026,1.303,0.216,1.804,0.297l1.054,1.828
     		c0.045,0.077,0.11,0.141,0.189,0.184c2.565,1.41,4.053,2.125,4.422,2.125c0.04,0,0.085-0.006,0.129-0.018
     		c0.211,0.055,0.797,0.338,1.319,0.639c0.061,0.035,0.128,0.056,0.197,0.064l0.962,0.097l1.837,0.721l1.959,1.091
     		c0.029,0.018,0.061,0.03,0.093,0.041l2.893,0.901l2.652,0.714l2.071,0.52l2.984,0.97c0.06,0.019,0.124,0.025,0.185,0.023
     		l1.94-0.131L135.432,225.247z M133.446,222.65l-0.963,0.065l-2.926-0.951l-2.094-0.526l-0.403-0.108
     		c0.147-0.021,0.39-0.039,0.798-0.013c0.326,0.021,0.948,0.123,1.55,0.223c1.336,0.222,1.705,0.266,1.936,0.193
     		c0.296-0.085,1.769-0.257,2.288-0.173c-0.006,0.251-0.092,0.665-0.193,0.982C133.406,222.443,133.412,222.551,133.446,222.65z
     		 M144.688,226.729c-0.161,0.251-0.459,0.642-0.763,0.99c-0.023,0.026-0.044,0.055-0.061,0.086
     		c-0.148,0.268-0.417,0.706-0.535,0.829c-0.001,0-0.204-0.006-0.235-0.015c-0.149-0.049-0.313-0.023-0.441,0.07
     		c-0.127,0.092-0.202,0.24-0.202,0.397v1.306c-0.083,0.093-0.167,0.18-0.235,0.244c-0.221-0.103-0.594-0.282-0.971-0.466
     		l-0.061-1.778l1.667-1.742l0.718-0.591C143.879,226.248,144.355,226.533,144.688,226.729z M154.504,235.154l-0.011,0.02
     		l-1.196,0.642l-1.474-0.091c-0.017-0.001-0.033-0.002-0.05-0.001l-2.237,0.09c-0.194,0.008-0.365,0.13-0.437,0.309
     		c-0.072,0.181-0.03,0.387,0.105,0.526l1.359,1.39c0.015,0.016,0.031,0.03,0.048,0.044l1.407,1.102l1.249,1.397v0.944l-0.856-0.156
     		l-2.098-0.964l-2.291-3.121l-1.215-2.082l-0.288-0.951c-0.005-0.018-0.012-0.036-0.019-0.053
     		c-0.623-1.452-1.035-2.282-1.223-2.469l-0.257-0.256c0.44-1.052,0.676-1.777,0.703-2.161c0.183-0.185,0.785-0.529,1.054-0.682
     		c0.355-0.202,0.482-0.277,0.572-0.376c0.161-0.176,0.313-0.343-0.171-2.474c-0.027-0.12-0.099-0.225-0.2-0.295l-1.609-1.112
     		c-0.095-0.067-0.211-0.095-0.326-0.086l-1.131,0.109l-2.014-0.147l0.054-0.936c0.011-0.195-0.094-0.377-0.267-0.467l-2.036-1.039
     		c-0.051-0.027-0.107-0.043-0.164-0.05l-2.208-0.269c-0.045-0.006-0.091-0.006-0.135,0.001l-2.581,0.403
     		c0.055-0.319,0.082-0.676,0.009-0.946c-0.033-0.123-0.12-0.295-0.344-0.417c-0.694-0.378-2.756-0.025-3.125,0.053
     		c-0.183,0.015-0.996-0.124-1.532-0.212c-0.655-0.11-1.274-0.212-1.649-0.235c-0.336-0.021-0.587-0.016-0.778-0.001
     		c-0.036-0.216-0.078-0.497-0.113-0.753c0.023-0.264-0.063-0.771-0.718-1.537c-0.419-0.49-0.807-0.722-1.189-0.704
     		c-0.155,0.006-0.286,0.054-0.39,0.119l-1.26,0.21l-0.701-0.123l-0.147-0.768c0.283-0.322,0.641-0.725,0.72-0.805
     		c0.194-0.165,2.044-1.371,2.381-1.587c0.125-0.078,0.213-0.211,0.229-0.367c0.044-0.425-0.144-0.48-0.925-0.643
     		c-0.189-0.128-0.65-0.427-1.084-0.61c-0.412-0.172-1.09-0.217-1.869-0.255c-0.21-0.01-0.393-0.018-0.517-0.031
     		c-0.33-0.036-0.576,0.052-0.747,0.123c-0.003-0.012-0.007-0.023-0.011-0.036c-0.05-0.162-0.125-0.408-0.276-0.789
     		c-0.212-0.536-0.533-0.629-0.766-0.633c-0.515,0.016-0.837,0.621-1.021,1.156c-0.047,0.051-0.121,0.124-0.209,0.212
     		c-0.455,0.454-0.877,0.898-1.071,1.349c-0.251-0.099-0.616-0.212-1.109-0.212c-0.635,0-0.778-0.61-0.799-0.728
     		c-0.033-0.202-0.188-0.363-0.389-0.402c-0.576-0.115-1.272-0.264-1.374-0.299c-0.23-0.107-2.175-1.23-2.69-1.6
     		c-0.002-0.348,0.042-1.199,0.093-1.922c0.01-0.154-0.051-0.302-0.166-0.404l-1.39-1.218l-1.287-1.088l-0.176-0.956l0.357-0.721
     		c0.543,0.029,1.214,0.13,1.424,0.293c0.349,0.272,0.821,0.267,1.294-0.012c0.541-0.32,1.062-1.003,0.961-1.639
     		c-0.045-0.28-0.201-0.495-0.439-0.608c-0.423-0.2-0.97,0.01-1.292,0.177l-2.136-0.285c-0.041-0.127-0.073-0.25-0.088-0.338
     		c0.361-0.242,1.44-0.816,2.365-1.275c0.09-0.044,0.163-0.115,0.212-0.203c1.558-2.826,1.404-3.32,1.353-3.482
     		c-0.049-0.157-0.153-0.282-0.294-0.353c-0.507-0.252-1.048,0.19-2.159,1.261c-0.148,0.143-0.328,0.315-0.411,0.384
     		c-0.072,0.019-0.269,0.05-0.702,0.031c-0.055-0.118-0.111-0.366-0.126-0.575c-0.004-0.056-0.018-0.112-0.04-0.164l-0.688-1.563
     		l-0.739-3.117l0.355-1.783c0.007-0.035,0.01-0.072,0.009-0.109c-0.021-0.766-0.036-1.635-0.026-1.839
     		c0.131-0.406,0.835-2.16,1.101-2.523c0.587-0.319,0.507-1.674,0.503-1.737c-0.055-0.855-0.407-1.444-0.966-1.652
     		c0-0.002,0.001-0.004,0.001-0.005c0.038-0.155-0.001-0.319-0.106-0.44c-0.381-0.437-1.641-1.881-1.876-2.08
     		c-0.133-0.113-0.54-0.457-1.671,0.49c-0.043,0.036-0.079,0.079-0.108,0.127c-0.285,0.483-0.635,1.042-0.836,1.328
     		c-0.001-0.001-0.001-0.001-0.001-0.001c-0.173-0.128-0.409-0.304-0.745-0.45c-0.386-0.169-0.464-0.242-0.478-0.263
     		c-0.001-0.003-0.012-0.037-0.005-0.165c0.01-0.184,0.165-0.533,0.302-0.788c1.086-0.371,2.258-0.751,2.432-0.781
     		c0.177-0.014,0.359-0.137,0.434-0.299c0.116-0.247,0.217-0.463-1.341-2.645c-0.099-0.139-0.26-0.217-0.435-0.206
     		c-0.171,0.012-0.323,0.112-0.402,0.264l-0.417,0.802l-1.1-0.648l-0.301-0.82l1.142-1.133l0.988,0.497
     		c0.084,0.043,0.178,0.059,0.272,0.05l1.149-0.12l0.124,0.162c0.088,0.119,0.226,0.118,0.375,0.118h0.021
     		c0.141,0,0.276,0.02,0.37-0.087l1.36-1.472l2.355,0.297c0.234,0.031,0.458-0.113,0.53-0.338l0.362-1.133l0.767,0.243l0.568,1.431
     		c0.052,0.129,0.156,0.23,0.287,0.279c0.131,0.048,0.276,0.039,0.4-0.026l1.429-0.756c0.096-0.051,0.173-0.131,0.217-0.23
     		l1.246-2.733l0.635-1.472c0.034-0.079,0.047-0.166,0.037-0.252l-0.26-2.221l-0.101-1.941c-0.007-0.133-0.067-0.257-0.167-0.345
     		c-0.1-0.087-0.232-0.131-0.364-0.118l-0.655,0.054l-0.343-0.76l2.163-2.15l1.492-0.014c0.019,0,0.037-0.002,0.056-0.004
     		l1.254-0.156l0.49,0.251l-0.572,0.911c-0.033,0.052-0.056,0.112-0.067,0.174l-0.368,2.025c-0.025,0.139,0.011,0.283,0.1,0.395
     		l0.914,1.143c0.096,0.121,0.247,0.198,0.398,0.184l1.36-0.038l0.683,1.168c0.063,0.108,0.164,0.188,0.284,0.223l1.34,0.4
     		c0.048,0.015,0.096,0.021,0.147,0.021l0.087-0.001l0.466,2.194c0.033,0.156,0.14,0.285,0.286,0.349l1.696,0.732l0.321,0.585
     		c-0.318,0.136-0.751,0.321-1.185,0.505c-1.09,0.462-1.336,1.889-1.336,2.353c0,0.262,0,0.589,3.293,2.765
     		c0.172,0.114,0.396,0.108,0.562-0.013l0.469-0.343c0.153-0.081,0.781-0.411,1.206-0.661c0.209-0.121,1.013-0.224,1.493-0.285
     		c0.191-0.025,0.37-0.048,0.529-0.072c0.01,0.067,0.026,0.137,0.049,0.211c0.251,0.827,0.901,1.121,0.975,1.152
     		c0.055,0.023,0.113,0.036,0.173,0.039c0,0,2.133,0.077,3.097,0.108c0.451,0.014,0.673,0.902,0.707,1.138
     		c0.018,0.125,0.082,0.237,0.181,0.316c0.007,0.006,0.752,0.6,1.638,1.353c0.181,0.154,0.281,0.31,0.273,0.429
     		c-0.003,0.049-0.024,0.089-0.045,0.116c-0.269,0.004-0.628,0.209-1.044,1.151c-0.008,0.019-0.016,0.039-0.022,0.06
     		c-0.024,0.083-0.238,0.824-0.238,1.297c0,0.339-0.009,0.57-0.139,0.682c-0.32,0.276-1.123,0.978-1.123,0.978
     		c-0.013,0.012-0.026,0.024-0.038,0.036l-0.765,0.829c-0.068,0.073-0.112,0.166-0.126,0.267l-0.246,1.785
     		c-0.008,0.062-0.005,0.124,0.01,0.184l0.596,2.423c0.026,0.104,0.085,0.198,0.169,0.265l2.705,2.181l1.191,1.727l0.214,1.169
     		c-0.065,0.636-0.241,2.371-0.241,2.61c-0.006,0.105-0.174,0.661-0.837,1.256c-0.18,0.162-0.603,0.542-0.337,0.965
     		c0.191,0.304,0.524,0.3,0.894,0.19l0.822,1.095c0.216,0.8,0.56,1.761,1.006,2.012c0.191,0.107,0.361,0.146,0.512,0.18
     		c0.228,0.052,0.463,0.106,0.928,0.482c0.251,0.204,0.586,0.426,0.946,0.352c0.344-0.071,0.49-0.356,0.578-0.526
     		c0.027-0.051,0.067-0.129,0.079-0.143c0.094-0.042,0.433,0.006,0.635,0.035c0.213,0.03,0.429,0.062,0.638,0.056
     		c0.013,0.236,0.053,0.529,0.164,0.857c0.174,0.513,0.493,0.715,0.73,0.795c0.402,0.134,0.806-0.003,1.044-0.119
     		c0.786,0.195,2.246,0.544,2.585,0.544c0.145,0,0.344-0.027,0.574-0.057c0.21-0.028,0.582-0.078,0.747-0.07
     		c0.176,0.153,0.442,0.334,0.608,0.442l0.842,1.581c0.024,0.046,0.055,0.086,0.092,0.122l1.892,1.834l0.9,0.843
     		c0.013,0.011,0.025,0.022,0.038,0.033l0.766,0.582c0.047,0.036,0.099,0.062,0.156,0.078l0.456,0.138l-0.634,0.242
     		c-0.164,0.063-0.282,0.208-0.31,0.382l-0.26,1.624c-0.03,0.187,0.051,0.376,0.208,0.483l1.823,1.248
     		c0.23,0.335,0.483,0.721,0.563,0.867c-0.006,0.124-0.04,0.391-0.065,0.594c-0.046,0.368-0.082,0.657-0.093,0.886
     		c-0.635,0.008-2.009,0.027-2.196,0.027c-0.124,0-1.595,0.268-1.595,1.001c0,0.166,0,0.374,1.04,1.467
     		c0.263,0.3,0.533,0.67,0.611,0.832c-0.044,0.142-0.162,0.417-0.224,0.561c-0.003,0.008-0.007,0.016-0.01,0.023
     		c-0.396-0.152-1.046-0.435-1.481-0.638c-0.036-0.016-0.072-0.038-0.106-0.056c-0.166-0.095-0.418-0.236-0.719-0.134
     		c-0.201,0.066-0.356,0.22-0.462,0.458c-0.171,0.386-0.435,1.163-0.531,1.531c-0.039,0.15-0.142,0.541,0.887,1.898l-0.277,2.274
     		c-0.006,0.046-0.005,0.092,0.003,0.137l0.246,1.528c0.006,0.036,0.015,0.07,0.028,0.103l1.028,2.59L154.504,235.154z"></path>
     </g>
     <g>
     	<path id="Mainland-/-Southwest" class="map-clickable-region" target-region="Mainland / Southwest" d="M195.786,251.241H179.61c-0.027,0-0.055,0.003-0.082,0.006l-2.879,0.485h-5.448
     		c-0.275,0-0.497,0.004-0.676,0.005c-0.182,0.003-0.357,0.004-0.465,0.001c-0.03-0.064-0.068-0.141-0.12-0.233
     		c-0.111-0.196-0.214-0.341-0.305-0.467c-0.17-0.239-0.216-0.302-0.216-0.564c0-0.39-0.205-0.559-0.328-0.622
     		c-0.354-0.189-0.693,0.04-0.965,0.224c-0.066,0.045-0.168,0.114-0.234,0.148c-0.344-0.066-0.605,0.154-0.783,0.305
     		c-0.208,0.176-0.467,0.396-0.996,0.515c-0.082,0.018-0.144,0.029-0.189,0.034c-0.042-0.222-0.113-0.588-0.497-0.851
     		c-0.025-0.018-0.048-0.034-0.068-0.048c-0.055-0.107-0.133-0.194-0.186-0.252l-0.108-0.115c-0.239-0.253-0.412-0.436-0.677-1.626
     		c-0.056-0.249-0.08-0.408-0.091-0.508c0.142-0.043,0.322-0.133,0.467-0.345c0.045-0.066,0.094-0.131,0.142-0.196
     		c0.277-0.372,0.693-0.931,0.329-1.569c-0.047-0.081-0.075-0.156-0.105-0.23c-0.165-0.41-0.359-0.777-1.212-1.455
     		c-0.101-0.081-0.154-0.14-0.18-0.176c0.079-0.07,0.253-0.16,0.326-0.197c0.154-0.079,0.457-0.236,0.456-0.555
     		c0.037-0.141,0.184-0.54,0.284-0.812c0.117-0.315,0.233-0.631,0.296-0.836c0.121-0.397,0.037-0.697-0.014-0.876
     		c-0.007-0.025-0.015-0.048-0.02-0.071c0.088-0.198,0.071-0.425-0.051-0.628c-0.247-0.413-1.009-0.78-1.437-0.78
     		c-0.603,0-0.83,0.65-1.051,1.279c-0.049,0.141-0.1,0.285-0.155,0.426c-0.089,0.226-0.235,0.472-0.377,0.709
     		c-0.259,0.433-0.503,0.842-0.503,1.271c0,0.353-0.359,1.129-0.619,1.34c-0.002,0.001-0.004,0.002-0.006,0.003
     		c-0.031-0.025-0.065-0.047-0.102-0.064c-0.001-0.001-0.894-0.421-1.056-0.504c-0.179-0.094-1.934-0.799-2.383-0.903
     		c-0.266-0.062-1.03-0.491-1.205-0.655c-0.04-0.071-0.118-0.208-0.217-0.381c-0.233-0.41-0.829-1.458-0.96-1.733
     		c-0.027-0.341-0.171-1.045-0.515-2.709l0.606-1.098l0.01-0.005c0.158-0.084,0.257-0.247,0.259-0.426l0.001-0.058l0.101-0.183
     		l-0.098-0.054l0.028-2.212c0-0.064-0.011-0.127-0.034-0.187l-1.045-2.631l-0.226-1.406l0.293-2.404
     		c0.015-0.13-0.021-0.259-0.101-0.363c-0.384-0.491-0.748-1.062-0.818-1.273c0.079-0.282,0.243-0.768,0.38-1.115
     		c0.018,0.01,0.036,0.018,0.055,0.027c2.072,0.966,2.223,0.882,2.432,0.765c0.138-0.078,0.229-0.18,0.247-0.337
     		c0.019-0.063,0.071-0.18,0.13-0.316c0.164-0.381,0.282-0.667,0.311-0.877c0.018-0.136,0.067-0.497-0.874-1.568
     		c-0.208-0.218-0.443-0.481-0.607-0.68c0.169-0.071,0.36-0.136,0.436-0.144c0.247,0,2.53-0.034,2.53-0.034
     		c0.071,0,0.14-0.023,0.204-0.053l0.244-0.127h0.002l0.069-0.022c0.177-0.084,0.281-0.249,0.282-0.433
     		c0-0.071-0.015-0.143-0.047-0.21c-0.025-0.053-0.059-0.101-0.1-0.14c0.016-0.225,0.057-0.55,0.082-0.752
     		c0.078-0.622,0.099-0.827,0.037-1.003c-0.075-0.214-0.451-0.779-0.754-1.214c-0.035-0.05-0.077-0.092-0.127-0.125l-1.641-1.123
     		l0.166-1.036l1.928-0.737l-0.015-0.04l2.626-0.618c0.032-0.007,0.063-0.018,0.093-0.033c0.423-0.195,2.552-1.219,2.968-2.281
     		c0.063-0.162,0.11-0.274,0.144-0.35c0.066-0.043,0.121-0.102,0.16-0.173l1.349-2.437l1.724-0.164l0.597,0.428
     		c0.033,0.023,0.068,0.042,0.105,0.057c0.025,0.01,2.539,1.007,3.061,1.238c0.771,0.34,1.266-0.467,1.563-0.948
     		c0.099-0.162,0.201-0.328,0.282-0.418c0.109-0.121,0.188-0.283,0.245-0.465l0.482,0.299l1.504,1.556
     		c0.041,0.043,0.089,0.077,0.142,0.102l2.896,1.379c0.034,0.016,0.068,0.028,0.104,0.036l1.997,0.448
     		c0.051,0.012,0.105,0.014,0.158,0.009l2.517-0.256l0.4,1.044l-0.8,3.354c-0.008,0.038-0.014,0.076-0.014,0.114v3.854l-1.211,1.225
     		c-0.03,0.03-0.057,0.066-0.078,0.103l-0.74,1.305c-0.665-0.105-1.817-0.284-2.068-0.284c-0.46,0-0.671,0.343-0.797,0.548
     		c-0.052,0.084-0.101,0.165-0.164,0.233c-0.287,0.315-0.719,1.419-0.911,1.933l-1.333,2.038c-0.108,0.165-0.107,0.379,0.004,0.544
     		l1.001,1.491c0.055,0.082,0.134,0.146,0.226,0.182l2.017,0.805c0.016,0.006,0.032,0.012,0.048,0.016l2.803,0.795
     		c0.11,0.031,0.228,0.024,0.332-0.023c0.177-0.077,1.643-0.725,2.13-0.99c0.087,0.051,0.229,0.179,0.322,0.295
     		c0.093,0.118,0.235,0.187,0.386,0.187h3.797c0.18,0.291,0.299,0.613,0.256,0.724c-0.296,0.762,0.721,1.631,1.393,2.103
     		c0.476,0.546,1.009,1.173,1.24,1.468c-0.139,0.195-0.469,0.552-0.893,0.929c-0.312,0.277-0.228,0.69-0.16,1.022
     		c0.024,0.119,0.069,0.341,0.063,0.387c-0.106,0.18-0.118,0.393-0.034,0.583c0.152,0.343,0.646,0.605,1.503,0.781l1.706,0.239
     		l0.04,0.748l-1.146,1.28c-0.063,0.071-0.105,0.158-0.12,0.253l-0.278,1.791l-0.694,1.7c-0.053,0.131-0.048,0.277,0.014,0.404
     		c0.062,0.126,0.176,0.219,0.311,0.256c0.027,0.007,2.703,0.737,3.471,0.983c0.31,0.099,0.461,0.267,0.531,0.381
     		c-0.191,0.409-0.63,1.346-0.765,1.616c-0.209,0.419-0.072,1.339,0.081,2.038c0.022,0.101,0.075,0.188,0.152,0.258l0.676,0.596
     		L195.786,251.241z"></path>
     </g>
     <g>
     	<path id="Thompson-Okanagan" class="map-clickable-region" target-region="Thompson-Okanagan" d="M216.87,246.929l-0.422,3.042l-8.526,1.162h-8.061l-2.975,0.112l0.427-1.159
     		c0.07-0.188,0.017-0.401-0.133-0.536l-0.805-0.719c-0.108-0.547-0.164-1.11-0.13-1.238c0.177-0.354,0.867-1.835,0.867-1.835
     		c0.045-0.097,0.058-0.206,0.036-0.31c-0.07-0.33-0.412-0.962-1.248-1.229c-0.579-0.186-2.143-0.62-2.976-0.848l0.506-1.24
     		c0.014-0.036,0.025-0.072,0.031-0.11l0.265-1.706l1.184-1.323c0.087-0.096,0.131-0.224,0.124-0.354l-0.073-1.357
     		c-0.013-0.234-0.19-0.428-0.423-0.46l-2.074-0.288c-0.243-0.051-0.512-0.135-0.679-0.206c0.045-0.263-0.011-0.538-0.058-0.773
     		c-0.012-0.057-0.027-0.132-0.037-0.193c1.322-1.201,1.255-1.615,1.084-1.909c-0.163-0.282-1.188-1.46-1.498-1.814
     		c-0.026-0.031-0.057-0.058-0.09-0.081c-0.492-0.34-0.992-0.824-1.067-1.027c0.242-0.747-0.408-1.644-0.544-1.819
     		c-0.093-0.121-0.237-0.191-0.389-0.191h-3.832c-0.381-0.398-0.898-0.67-1.36-0.387c-0.217,0.132-1.24,0.598-1.936,0.908
     		l-2.608-0.741l-1.852-0.739l-0.735-1.095l1.185-1.811c0.02-0.032,0.037-0.064,0.05-0.1c0.252-0.681,0.609-1.512,0.735-1.663
     		c0.125-0.138,0.208-0.272,0.275-0.382c0.014-0.022,0.03-0.048,0.046-0.072c0.323,0.032,1.296,0.179,2.162,0.32
     		c0.202,0.032,0.405-0.064,0.506-0.244l0.877-1.544l1.307-1.323c0.091-0.092,0.142-0.216,0.142-0.345v-3.998l0.822-3.446
     		c0.023-0.097,0.016-0.198-0.019-0.291l-0.59-1.536c-0.08-0.208-0.288-0.335-0.509-0.313l-2.811,0.286l-1.865-0.417l-2.766-1.319
     		l-1.484-1.535c-0.028-0.029-0.06-0.054-0.094-0.076l-0.917-0.57c0-0.308-0.022-0.59-0.042-0.775
     		c-0.013-0.124-0.071-0.236-0.163-0.318l-0.816-0.719l0.331-2.678l1.656-0.553c0.026-0.008,0.052-0.019,0.077-0.033l0.956-0.514
     		h6.267c0.272,0,0.492-0.219,0.492-0.491v-0.492h3.441v1.573c0,0.2,0.12,0.38,0.305,0.455l2.251,0.927
     		c0.105,0.042,0.22,0.049,0.329,0.016l1.374-0.413c0.066-0.02,0.126-0.052,0.178-0.097l1.153-0.986h6.701
     		c0.271,0,0.491-0.221,0.491-0.492v-4.173l0.4-1.076l2.07-0.686c0.212-0.071,0.35-0.275,0.336-0.498l-0.126-1.926
     		c0.08-0.365,0.458-2.058,0.486-2.182c0.012-0.052,0.043-0.191,0.059-1.642c0-0.021-0.001-0.042-0.003-0.062l-0.293-2.526
     		c-0.013-0.111-0.064-0.215-0.144-0.293l-2.391-2.347l-0.544-2.414c-0.017-0.319-0.105-1.818-0.271-2.418
     		c0.082-0.073,0.299-0.173,0.482-0.217c0.034-0.008,0.068-0.019,0.099-0.035l1.442-0.692c0.048-0.023,0.092-0.053,0.13-0.09
     		c0.308-0.298,1.01-1.065,0.882-1.725c-0.062-0.317-0.025-0.746-0.006-0.885c0.012-0.086,0.001-0.176-0.033-0.257
     		c-0.257-0.619-0.895-2.095-1.256-2.455c-0.116-0.132-0.09-0.713,0.034-0.938c0.188-0.11,0.877-0.272,1.586-0.373l0.95,0.97
     		c0.609,0.84,1.279,1.908,1.32,2.182c0.12,0.809,1.538,1.191,2.373,1.348c0.142,0.026,0.29-0.012,0.403-0.103l1.469-1.212
     		l0.686,0.045l1.603,1.48c0.078,0.072,0.178,0.117,0.284,0.128l1.808,0.18c0.127,0.012,0.249-0.024,0.349-0.1l1.446-1.11
     		l1.822,1.095l1.229,1.582v2.669c0,0.132,0.053,0.258,0.147,0.35l1.002,0.985l-0.494,0.387c-0.112,0.089-0.181,0.221-0.188,0.365
     		c-0.006,0.143,0.049,0.282,0.154,0.38l1.416,1.337c0.087,0.082,0.202,0.131,0.321,0.134l1.939,0.063
     		c0.158,0.009,0.311-0.067,0.407-0.193l0.963-1.263c0.032-0.041,0.057-0.088,0.074-0.137l0.782-2.258l2.125-0.708
     		c0.138-0.046,0.249-0.151,0.301-0.286l0.252-0.639l1.016,0.057c0.225,0.015,0.429-0.128,0.497-0.343l0.382-1.218l0.795,0.877
     		c0.063,0.07,0.146,0.12,0.237,0.145l2.055,0.55l0.439,0.788l-1.318,2.33c-0.07,0.125-0.082,0.273-0.034,0.407
     		c0.048,0.135,0.151,0.241,0.284,0.293l1.446,0.565c0.088,0.034,0.184,0.042,0.276,0.024l0.443-0.089l0.582,0.878
     		c0.13,0.194,0.377,0.272,0.594,0.184l1.022-0.411h1.257c0.182,0,0.348-0.101,0.433-0.258l0.395,1.29
     		c0.026,0.086,0.076,0.163,0.144,0.223l1.196,1.061c0.013,0.01,0.025,0.021,0.039,0.03l0.969,0.697l0.921,1.408
     		c0.029,0.045,0.066,0.086,0.109,0.118l1.076,0.842l0.603,2.065l0.221,0.646c0.057,0.167,0.199,0.29,0.372,0.324
     		c0.174,0.034,0.351-0.029,0.466-0.162c0.931-1.084,1.404-1.84,1.404-2.248c0-0.128,0.097-0.389,0.253-0.522
     		c0.082-0.07,0.132-0.062,0.154-0.059c0.384,0.066,1.013,0.411,1.193,0.614c-0.13,0.372-0.063,0.666-0.013,0.886
     		c0.02,0.092,0.038,0.171,0.039,0.242c0.006,0.426,0.385,1.237,0.547,1.567c0.034,0.068,0.084,0.13,0.146,0.175l2.027,1.522
     		l0.687,1.57c0.04,0.091,0.106,0.168,0.19,0.22l1.032,0.643l0.413,1.691l0.013,0.36l-0.536,1.203
     		c-0.027,0.061-0.041,0.126-0.042,0.192l-0.022,1.28c-0.213,1.053-0.014,1.297,0.071,1.403c0.083,0.104,0.197,0.172,0.322,0.2
     		c0.092,0.086,0.217,0.295,0.243,0.41c-0.101,0.161-0.224,0.321-0.314,0.416c-0.208-0.03-0.449,0.061-0.727,0.261
     		c-0.902,0.654-0.731,0.991-0.658,1.134c0.075,0.149,0.235,0.245,0.403,0.267c0.219,0.143,0.797,0.712,1.303,1.256
     		c-0.076,0.239-0.166,0.466-0.234,0.58c-0.619,0.059-2.492,0.337-2.898,0.397c-0.033,0.006-0.065,0.014-0.097,0.025
     		c-0.578,0.212-1.584,0.646-1.821,1.179c-0.596,1.339-0.742,1.973-0.758,2.299c-0.22,0.052-0.616,0.092-0.989,0.099
     		c-0.645-0.24-1.411-0.578-1.661-0.755c-0.047-0.33-0.169-0.795-0.222-0.988v-0.732c0-0.822-0.91-1.567-1.241-1.745
     		c-0.044-0.023-0.128-0.066-0.239-0.121c-0.609-0.302-1.025-0.526-1.241-0.669c0.02-0.042,0.039-0.086,0.056-0.121
     		c0.238-0.518,0.464-1.007,0.07-1.315c-0.392-0.306-0.85,0.058-1.095,0.253c-1.198,0.957-1.779,2.362-1.859,2.855
     		c-0.057,0.343-0.043,0.849-0.034,1.183c0.003,0.09,0.005,0.164,0.005,0.219c0,0.247,0.298,1.653,0.547,2.787
     		c0.01,0.043,0.025,0.086,0.046,0.126l0.842,1.581c0.072,0.135,0.204,0.229,0.355,0.254l0.954,0.154l0.826,1.658l-1.035,1.086
     		c-0.665,0.393-1.396,0.745-1.586,0.759c-0.264,0.023-0.931-0.112-1.348-0.22c-0.71-0.337-1.545-0.772-1.672-0.881
     		c-0.392-0.441-1.591-0.264-1.827-0.225c-0.348,0.059-0.721,0.162-0.853,0.482l-0.035,0.086c-0.03,0.075-0.1,0.251-0.158,0.346
     		c-0.03,0.002-0.063,0.005-0.1,0.008c-0.666,0.057-0.906,0.013-0.993-0.029c-0.127-0.563-0.29-1.611-0.291-1.622
     		c-0.02-0.13-0.092-0.247-0.199-0.324l-1.153-0.827c-1.393-0.827-1.66-0.648-1.837-0.53c-0.179,0.12-0.269,0.332-0.237,0.553
     		c0.013,0.09,0.016,0.232,0.022,0.395c0.018,0.522,0.04,1.171,0.282,1.564c0.175,0.285,0.419,1.395,0.422,1.673
     		c-0.041,0.21-0.514,1.035-0.93,1.674c-0.057,0.088-0.085,0.191-0.078,0.296l0.101,1.73c0.001,0.021,0.004,0.041,0.007,0.061
     		l0.387,2.089l0.081,1.775c-0.096,0.562-0.265,1.154-0.399,1.425c-0.462-0.182-1.164-0.302-1.643-0.01
     		c-0.293,0.179-0.451,0.474-0.445,0.833c0.013,0.709,0.07,1.654,0.263,2.134c0.157,0.387,0.89,2.018,0.921,2.088
     		c0.009,0.02,0.019,0.04,0.031,0.057l0.381,0.616l-9.165,1.145c-0.116,0.015-0.222,0.07-0.301,0.155l-0.529,0.575l-1.623,0.982
     		c-0.025,0.015-0.049,0.034-0.071,0.052c-0.142,0.126-0.854,0.788-0.854,1.468c0,0.519,0.67,3.578,0.804,4.186
     		c0.007,0.029,0.016,0.058,0.028,0.086c0.183,0.43,0.79,1.847,0.92,2.069c0.098,0.169,0.645,1.154,0.859,1.54L216.87,246.929z"></path>
     </g>
     <g>
     	<path id="Kootenay" class="map-clickable-region" target-region="Kootenay" d="M284.378,243.443l-12.053,2.175l-13.654,1.204l-16.951,1.961l-17.521,0.914
     		c-0.059,0.003-0.116,0.018-0.17,0.042l-1.08,0.471l-5.568-0.178l0.396-2.853l0.44-2.292c0.022-0.114,0.003-0.23-0.053-0.33
     		c0,0-0.833-1.502-0.957-1.715c-0.073-0.128-0.485-1.067-0.848-1.917c-0.379-1.722-0.769-3.65-0.771-3.929
     		c0-0.132,0.235-0.465,0.491-0.702l1.643-0.994c0.04-0.024,0.076-0.054,0.108-0.087l0.454-0.494l9.747-1.218
     		c0.166-0.021,0.311-0.125,0.382-0.276c0.072-0.151,0.062-0.329-0.026-0.471l-0.768-1.24c-0.102-0.226-0.754-1.681-0.892-2.023
     		c-0.1-0.247-0.175-0.934-0.19-1.772c0.144-0.051,0.563-0.008,0.864,0.154c0.199,0.108,0.429,0.112,0.632,0.013
     		c0.544-0.268,0.835-1.398,0.984-2.298c0.005-0.034,0.007-0.069,0.006-0.103l-0.085-1.861c-0.001-0.023-0.004-0.045-0.008-0.068
     		l-0.388-2.092l-0.089-1.537c0.662-1.032,0.998-1.717,0.998-2.038c0-0.43-0.261-1.731-0.564-2.223
     		c-0.089-0.146-0.118-0.611-0.131-0.928c0.169,0.083,0.358,0.184,0.526,0.282l0.95,0.682c0.058,0.358,0.182,1.097,0.284,1.539
     		c0.209,0.897,1.436,0.788,2.025,0.737c0.066-0.005,0.118-0.011,0.15-0.011c0.518,0,0.761-0.528,0.907-0.89
     		c0.284-0.078,0.944-0.112,1.167-0.056c0.254,0.213,0.91,0.572,1.955,1.068c0.027,0.014,0.056,0.025,0.086,0.031
     		c0.192,0.051,1.18,0.296,1.717,0.261c0.555-0.043,1.727-0.724,2.073-0.931c0.038-0.023,0.073-0.051,0.104-0.083l1.319-1.385
     		c0.142-0.149,0.176-0.373,0.083-0.558l-1.093-2.193c-0.07-0.141-0.205-0.24-0.361-0.265l-0.963-0.156l-0.695-1.305
     		c-0.243-1.11-0.497-2.341-0.51-2.511c0-0.06-0.002-0.145-0.005-0.244c-0.008-0.28-0.02-0.747,0.021-1.001
     		c0.032-0.193,0.292-0.886,0.822-1.554c0.091,0.336,0.526,0.623,1.842,1.275c0.096,0.049,0.171,0.084,0.209,0.105
     		c0.21,0.113,0.724,0.602,0.724,0.879v0.799c0,0.046,0.006,0.09,0.018,0.133c0.086,0.305,0.212,0.816,0.222,1.001
     		c0.014,0.256,0.036,0.644,2.373,1.495c0.054,0.02,0.11,0.03,0.168,0.03c1.048,0,1.704-0.162,1.947-0.485
     		c0.122-0.16,0.16-0.362,0.111-0.533c-0.001-0.015-0.029-0.388,0.664-1.947c0.098-0.142,0.674-0.449,1.224-0.657
     		c1.277-0.189,2.689-0.385,2.875-0.389c0.19-0.003,0.695-0.01,1.087-1.562c0.04-0.159-0.002-0.328-0.112-0.45
     		c-0.633-0.7-1.073-1.134-1.389-1.398c0.022-0.016,0.043-0.031,0.063-0.045c0.07,0.017,0.145,0.019,0.219,0.012
     		c0.449-0.056,0.864-0.654,1.07-1.003c0.173-0.293,0.131-0.693-0.115-1.126c-0.083-0.144-0.263-0.42-0.513-0.578
     		c0.008-0.155,0.038-0.392,0.081-0.596c0.007-0.03,0.01-0.06,0.011-0.091l0.021-1.225l0.289-0.649l1.006,0.193l0.398,0.362
     		l1.315,1.883c0.018,0.025,0.038,0.049,0.06,0.07l1.577,1.545c0.098,0.098,0.231,0.147,0.371,0.14l1.502-0.082l-0.067,0.383
     		c-0.038,0.219,0.073,0.433,0.273,0.529l1.12,0.535l1.04,1.961l0.232,0.378l-0.428,0.186c-0.155,0.066-0.265,0.209-0.29,0.376
     		c-0.026,0.167,0.036,0.336,0.165,0.447l1.282,1.104c0.052,0.045,0.114,0.078,0.18,0.098l1.051,0.315l1.067,0.493
     		c0.031,0.015,0.063,0.026,0.097,0.034l1.113,0.254l0.192,1.258c-0.015,0.468,0.05,1.223,0.595,1.41
     		c0.377,0.13,1.125-0.062,1.728-0.258c0.486-0.207,1.066-0.43,1.415-0.54c0.097,0.323,0.236,0.844,0.345,1.295
     		c0.006,0.024,0.013,0.047,0.023,0.069c0.06,0.147,0.243,0.396,0.775,0.738c0.37,0.237,1.714,1.301,2.372,1.827l0.144,1.389v2.178
     		c0,0.116,0.042,0.23,0.117,0.319l1.2,1.408l0.015,0.554c0.004,0.131,0.06,0.257,0.157,0.346l0.363,0.337l0.155,0.824l-0.296,1.047
     		c-0.027,0.097-0.024,0.201,0.009,0.295l0.482,1.376c0.219,0.525,0.462,1.201,0.475,1.361c0,0.362,0.192,1.228,0.236,1.417
     		l0.299,1.116l-0.679,0.888c-0.031,0.041-0.056,0.086-0.074,0.134l-0.267,0.756c-0.037,0.106-0.037,0.221,0,0.327l0.246,0.695
     		c0.048,0.135,0.152,0.242,0.285,0.294c0.865,0.338,1.008,0.307,1.122,0.283c0.065-0.014,0.141-0.029,0.58-0.305v2.75
     		c0,0.141,0.061,0.276,0.167,0.37l0.899,0.791l0.833,1.43c0.025,0.042,0.055,0.08,0.091,0.113l0.93,0.862l0.284,0.583
     		c0.083,0.169,0.254,0.276,0.442,0.276h2.108l1.392,0.895l0.65,1.591L284.378,243.443z"></path>
     </g>
     </g>
</svg>