<?xml version="1.0" encoding="utf-8"?>
<!-- Generator: Adobe Illustrator 16.0.0, SVG Export Plug-In . SVG Version: 6.00 Build 0)  -->
<!DOCTYPE svg PUBLIC "-//W3C//DTD SVG 1.0//EN" "http://www.w3.org/TR/2001/REC-SVG-20010904/DTD/svg10.dtd">
<svg version="1.0" id="Layer_1" xmlns="http://www.w3.org/2000/svg" xmlns:xlink="http://www.w3.org/1999/xlink" x="0px" y="0px"
	 width="270px" height="290px" viewBox="0 0 270 290" enable-background="new 0 0 270 290" xml:space="preserve">
<g>
	<path id="North-Coast-_x26_-Nechako" fill="#224176" stroke="#FFFFFF" stroke-miterlimit="10" d="M49.544,167.1l2.001,0.951
		c0.061,0.029,0.128,0.045,0.196,0.045c0.047,0,0.095-0.008,0.14-0.021l2.089-0.676l2.474-0.606c0.105-0.024,0.197-0.088,0.26-0.175
		l1.221-1.676c0.05-0.068,0.08-0.15,0.086-0.234l0.297-3.967l0.787-3.187c0.006-0.028,0.011-0.057,0.013-0.087l0.104-2.1
		l2.437-1.726c0.093-0.067,0.158-0.165,0.182-0.276l0.758-3.501c0.035-0.161-0.021-0.329-0.143-0.438
		c-0.124-0.109-0.296-0.143-0.453-0.09l-3.765,1.297l-2.214-1.097c-0.028-0.015-0.058-0.025-0.088-0.034l-1.886-0.488
		c-0.081-0.021-0.166-0.02-0.246,0.005l-0.561,0.166c0.043-0.185-0.035-0.384-0.203-0.489l-1.848-1.155
		c-0.078-0.048-0.165-0.071-0.26-0.067l-1.24,0.047l-0.519-0.879c-0.082-0.14-0.231-0.225-0.393-0.225h-2.396
		c-0.247,0-0.45,0.197-0.457,0.444l-0.046,1.694l-1.244,2.32c-0.044,0.08-0.062,0.172-0.052,0.264l0.324,3.102
		c0.007,0.059,0.023,0.114,0.051,0.166l0.964,1.818l-0.025,1.602c-0.001,0.047,0.006,0.096,0.021,0.141l0.631,2.065
		c0.029,0.096,0.09,0.18,0.172,0.238l1.802,1.283l0.388,1.108l-1.228,0.711c-0.107,0.063-0.185,0.166-0.213,0.287
		c-0.03,0.12-0.009,0.248,0.057,0.352l1.833,2.917C49.399,167.003,49.465,167.063,49.544,167.1z M65.365,186.249l-0.657-1.218
		c-0.08-0.149-0.234-0.24-0.402-0.24h-1.604l-0.799-1.04l-0.116-1.812c-0.006-0.084-0.035-0.166-0.084-0.236l-2.855-4.022
		l-0.227-2.155c-0.014-0.129-0.08-0.245-0.183-0.321l-0.848-0.626l-0.198-3.301l1.744,0.461c0.133,0.035,0.275,0.009,0.387-0.072
		l1.428-1.045c0.101-0.074,0.168-0.188,0.184-0.313c0.016-0.125-0.021-0.251-0.102-0.348l-1.35-1.628l-0.603-1.937
		c-0.042-0.137-0.145-0.244-0.279-0.293c-0.134-0.051-0.282-0.033-0.402,0.044l-1.739,1.101l-2.138,1.315l-1.961-0.14l-2.82-0.352
		c-0.145-0.018-0.291,0.035-0.392,0.144c-0.1,0.108-0.142,0.257-0.113,0.4l0.335,1.676c0.033,0.166,0.154,0.3,0.316,0.348
		l2.354,0.712l-0.911,0.612c-0.206,0.138-0.264,0.414-0.132,0.624l3.679,5.806l0.868,2.356c0.029,0.078,0.079,0.148,0.144,0.2
		l2.604,2.067l3.424,6.016c0.01,0.018,0.022,0.035,0.035,0.052l0.806,1.046c0.088,0.117,0.223,0.18,0.362,0.18
		c0.051,0,0.103-0.008,0.153-0.025l1.456-0.518c0.06-0.021,0.113-0.055,0.16-0.098l1.378-1.292c0.16-0.149,0.19-0.392,0.074-0.577
		L65.365,186.249z M74.959,156.757c-0.071,0.097-0.101,0.22-0.082,0.339l0.126,0.795l-0.648,0.222v-1.076
		c0-0.055-0.01-0.109-0.03-0.161l-0.782-2.065c-0.049-0.129-0.153-0.228-0.284-0.271c-0.046-0.015-0.095-0.022-0.143-0.022
		c-0.086,0-0.173,0.024-0.248,0.072l-1.281,0.826l-0.163-0.27l0.432-0.927l3.879-2.174l0.834,0.626l-0.144,2.064L74.959,156.757z
		 M80.473,170.171h-1.291l-1.215-2.221c-0.023-0.043-0.053-0.082-0.088-0.113l-3.3-3.091l-0.32-1.588
		c-0.018-0.086-0.06-0.166-0.121-0.229l-1.285-1.319c-0.112-0.155-0.213-0.359-0.235-0.472c0.081-0.018,0.301-0.02,0.566,0.026
		c5.259,0.917,7.294,7.294,7.607,8.392L80.473,170.171z M94.427,177.72l-0.612,4.204l-0.947,0.214l-1.305-1.167l-2.67-1.99
		l-1.348-3.459l-0.068-1.801l1.572-2.504c0.036-0.057,0.058-0.117,0.066-0.184l0.206-1.518l3.519,2.584l1.223,3.117
		c0.083,0.211,0.307,0.328,0.528,0.278c0.22-0.052,0.371-0.256,0.352-0.482l-0.232-2.915c-0.009-0.121-0.067-0.233-0.16-0.313
		l-1.141-0.967l-1.786-1.928l-0.275-1.508l-0.392-3.436l0.595-0.318c0.144-0.076,0.235-0.225,0.241-0.387l0.033-0.959l1.291-2.54
		l1.113-1.09c0.122-0.118,0.166-0.294,0.118-0.457c-0.048-0.162-0.182-0.284-0.348-0.317l-1.14-0.228
		c-0.109-0.022-0.223-0.003-0.318,0.052l-1.652,0.959c-0.043,0.025-0.081,0.057-0.114,0.094l-0.945,1.076l-2.488,1.743
		c-0.122,0.085-0.195,0.225-0.195,0.374v3.314l-0.427,0.838l-1.652-1.299c-0.154-0.122-0.369-0.131-0.532-0.022
		c-0.165,0.108-0.241,0.309-0.191,0.497l0.355,1.362l-0.44,2.161l-0.139,0.335l-1.611-0.317l-1.062-2.338
		c-0.018-0.039-0.041-0.076-0.069-0.109l-1.049-1.226l0.282-1.363c0.033-0.157-0.02-0.319-0.137-0.429l-1.439-1.334l-0.313-1.281
		c-0.021-0.084-0.065-0.16-0.127-0.222l-1.532-1.472l0.123-0.814c0.018-0.115-0.01-0.232-0.076-0.328l-0.414-0.595l0.681-0.663
		l5.083,5.942c0.151,0.177,0.413,0.213,0.605,0.08c0.192-0.132,0.255-0.387,0.146-0.592l-1.872-3.509
		c-0.018-0.033-0.04-0.063-0.065-0.092l-2.261-2.485l-0.245-1.678l0.509-2.907c0.03-0.172-0.04-0.346-0.18-0.447l-1.922-1.406
		l-0.926-2.531c-0.04-0.109-0.121-0.201-0.225-0.252l-1.009-0.504l0.48-1.305c0.006-0.016,0.01-0.031,0.015-0.047l0.984-3.938
		c0.031-0.123,0.009-0.252-0.059-0.359c-0.069-0.106-0.177-0.179-0.301-0.202l-1.503-0.277l-0.531-1.666l3.737-3.014
		c0.036-0.03,0.068-0.065,0.094-0.104l1.856-2.803l2.313-3.214c0.085-0.118,0.109-0.269,0.064-0.408l-0.444-1.369l-0.673-4.463
		l0.618-1.479c0.037-0.087,0.046-0.185,0.024-0.277L81.154,119l1.718-2.588c0.076-0.114,0.097-0.258,0.055-0.391l-1.016-3.217
		c-0.055-0.175-0.209-0.3-0.392-0.317l-2.11-0.206l-0.864-2.341c-0.03-0.081-0.083-0.153-0.151-0.206l-3.007-2.291
		c-0.042-0.032-0.09-0.057-0.14-0.072l-2.848-0.888l-4.093-4.686c-0.086-0.101-0.212-0.156-0.344-0.156H65.6l-0.063-1.377
		l-0.33-2.702c-0.015-0.123-0.08-0.234-0.18-0.31l-2.103-1.583l1.136-2.588c0.099-0.226,0.001-0.489-0.221-0.596l-2.919-1.399
		l1.121-2.857c0.042-0.108,0.042-0.226,0-0.333l-5.855-15.019l-0.451-2.655c-0.007-0.042-0.02-0.082-0.038-0.121l-2.383-4.994
		l0.834-0.997c0.127-0.152,0.143-0.369,0.037-0.537l-4.188-6.641c-0.017-0.027-0.037-0.052-0.06-0.076l-3.813-3.912l0.131-2.044
		c0.005-0.076-0.009-0.153-0.042-0.222l-0.673-1.445c-0.026-0.056-0.063-0.104-0.107-0.145l-1.471-1.34l-0.583-1.779
		c-0.05-0.153-0.177-0.269-0.334-0.303l-1.42-0.319l-0.283-1.212l-0.055-0.9c-0.005-0.073-0.027-0.145-0.065-0.207l-0.53-0.878
		l0.552-1.318c0.043-0.103,0.047-0.214,0.013-0.318l-0.731-2.238c-0.005-0.017-0.012-0.035-0.02-0.05l-1.716-3.673
		c-0.094-0.198-0.316-0.304-0.528-0.248l-5.182,1.345l-2.398,0.605c-0.176,0.044-0.31,0.19-0.339,0.37l-0.266,1.649l-2.175,0.614
		c-0.177,0.05-0.309,0.203-0.33,0.387l-0.273,2.336l-1.849,2.697l-2.036,0.207c-0.042,0.004-0.083,0.013-0.121,0.029l-5.789,2.279
		l-1.36,0.397l0.358-1.452c0.013-0.052,0.017-0.106,0.01-0.16l-0.499-4.536c-0.006-0.06-0.025-0.117-0.053-0.169L6.147,22.969
		c-0.04-0.063-0.084-0.173-0.1-0.244c0.216-0.053,1.188-0.076,4.912,1.783c10.662,5.327,73.848,12.375,83.789,13.457
		c-0.105,0.493,0.053,1.082,0.186,1.455l-1.015,1.204c-0.118,0.139-0.14,0.335-0.059,0.499c0.083,0.163,0.255,0.266,0.437,0.25
		l4.647-0.294l-0.092,0.565c-0.004,0.03-0.006,0.061-0.005,0.09c0.003,0.09,0.032,0.177,0.086,0.251
		c0.071,0.098,0.179,0.165,0.299,0.184l2.016,0.318l-0.479,1.112c-0.058,0.133-0.048,0.285,0.024,0.41l1.973,3.395
		c0.071,0.121,0.192,0.203,0.332,0.222c0.138,0.019,0.279-0.026,0.38-0.122l1.891-1.815l3.147,1.327l1.786,1.793
		c0.045,0.045,0.1,0.081,0.16,0.104l2.548,0.978l1.121,3.548l0.097,3.407c0.004,0.176,0.111,0.334,0.273,0.406l2.15,0.94
		l0.037,2.356c0.001,0.017,0.002,0.034,0.004,0.049l0.313,2.502l-0.479,2.249c-0.045,0.215,0.067,0.431,0.27,0.517l2.596,1.096
		l1.769,0.689l2.531,1.409l0.133,0.756c0.033,0.188,0.18,0.335,0.368,0.37l1.139,0.21l0.679,1.073
		c0.097,0.155,0.278,0.238,0.458,0.208l1.597-0.256l1.151,1.506c0.075,0.098,0.188,0.162,0.311,0.175l2.653,0.305l2.931,1.239
		c0.022,0.008,0.045,0.017,0.068,0.023l1.598,0.392l0.073,1.822l-0.433,1.382l-1.189-0.562c-0.107-0.05-0.229-0.058-0.341-0.02
		l-2.756,0.933c-0.029,0.009-0.058,0.023-0.083,0.038l-1.212,0.708l-1.504,0.935l-0.654-0.054l-0.595-0.748
		c-0.064-0.08-0.154-0.136-0.255-0.16l-2.824-0.652c-0.243-0.057-0.487,0.094-0.546,0.335l-0.234,0.955l-0.365,0.047l-1.554-0.638
		c-0.05-0.02-0.103-0.031-0.157-0.033l-1.668-0.058c-0.035-0.001-0.067,0.002-0.098,0.007l-2.065,0.381
		c-0.154,0.028-0.284,0.135-0.341,0.281c-0.059,0.147-0.036,0.313,0.057,0.438c0.066,0.09,0.131,0.206,0.172,0.3
		c-0.022-0.001-0.045-0.003-0.069-0.006c-0.106-0.014-0.21-0.022-0.312-0.027c-0.062-0.003-0.121-0.002-0.18-0.002
		c-0.036,0-0.073-0.002-0.108,0c-0.076,0.002-0.149,0.009-0.222,0.018c-0.016,0.002-0.031,0.003-0.047,0.004
		c-0.077,0.009-0.15,0.023-0.222,0.04c-0.01,0.002-0.021,0.004-0.031,0.007c-0.07,0.017-0.136,0.036-0.2,0.059
		c-0.013,0.004-0.026,0.008-0.039,0.013c-0.058,0.021-0.113,0.045-0.167,0.072c-0.019,0.008-0.037,0.017-0.055,0.026
		c-0.046,0.024-0.088,0.05-0.13,0.077c-0.023,0.015-0.046,0.031-0.069,0.046c-0.034,0.025-0.066,0.052-0.098,0.08
		c-0.015,0.013-0.032,0.024-0.047,0.038c-0.014,0.013-0.026,0.027-0.039,0.041c-0.006,0.006-0.015,0.013-0.021,0.02
		c-0.007,0.007-0.013,0.016-0.02,0.023c-0.015,0.016-0.028,0.033-0.041,0.049s-0.027,0.034-0.039,0.051
		c-0.015,0.021-0.03,0.042-0.043,0.063c-0.008,0.014-0.018,0.028-0.026,0.043c-0.014,0.024-0.028,0.049-0.04,0.074
		c-0.006,0.012-0.011,0.025-0.018,0.037c-0.012,0.027-0.024,0.054-0.034,0.082c-0.005,0.012-0.008,0.024-0.012,0.038
		c-0.009,0.028-0.019,0.056-0.025,0.084c-0.004,0.015-0.007,0.03-0.009,0.043c-0.006,0.027-0.011,0.054-0.016,0.081
		c-0.002,0.021-0.003,0.042-0.005,0.062c-0.002,0.022-0.005,0.044-0.006,0.066c-0.001,0.043,0,0.088,0.002,0.133
		c0.036,0.522-0.163,1.157-0.165,1.163c-0.039,0.122-0.025,0.255,0.039,0.365l1.212,2.111l-1.661,0.853l-0.839-0.152L114.14,85.7
		c-0.069-0.202-0.271-0.327-0.479-0.307l-2.377,0.24c-0.239,0.025-0.418,0.23-0.411,0.47l0.066,2.027l-1.327,2.342
		c-0.046,0.083-0.067,0.177-0.057,0.272l0.239,2.337l-2.408,1.206c-0.034,0.017-0.065,0.038-0.094,0.063
		c-0.084,0.074-0.14,0.177-0.155,0.29l-0.204,1.648c-0.021,0.173,0.057,0.343,0.202,0.438l0.697,0.459l0.708,1.994l0.435,2.842
		c0.01,0.067,0.035,0.131,0.073,0.188l1.009,1.485c0.127,0.188,0.373,0.253,0.577,0.154l1.622-0.784l0.781,2.606
		c0.036,0.122,0.122,0.221,0.235,0.278c0.113,0.056,0.246,0.063,0.364,0.018l3.333-1.258c0.068-0.026,0.128-0.067,0.178-0.121
		l1.105-1.221l3.268,1.774l1.243,0.78l0.411,1.642l-0.479,0.738c-0.026,0.039-0.045,0.083-0.058,0.128l-0.523,1.915
		c-0.013,0.047-0.019,0.097-0.016,0.146l0.033,0.562c-0.036,0.237-0.011,0.764,0.676,1.329c0.389,0.319,0.933,0.51,1.371,0.663
		c0.1,0.036,0.22,0.077,0.316,0.115c0.009,0.215,0.091,0.447,0.175,0.688c0.04,0.114,0.101,0.289,0.122,0.394
		c-0.111,0.147-0.139,0.286-0.134,0.396c0,0.022,0.003,0.042,0.006,0.062c0.006,0.039,0.017,0.074,0.027,0.103
		c0.143,0.389,0.612,0.457,1.211,0.504c0.882,0.07,2.052-0.69,2.352-1.08c0.007-0.01,0.018-0.021,0.024-0.031
		c0.013-0.011,0.033-0.025,0.055-0.04c0.033-0.022,0.076-0.047,0.125-0.074l0.075,0.246c0.043,0.143,0.154,0.255,0.296,0.302
		c0.035,0.011,0.071,0.019,0.109,0.021c0.109,0.007,0.219-0.024,0.309-0.092l1.163-0.883c0.478,0.068,0.861,0.069,1.15,0.003
		c0.02-0.004,0.039-0.009,0.059-0.014c0.012-0.003,0.024-0.007,0.035-0.009c0.065-0.019,0.129-0.044,0.19-0.076
		c0.003-0.001,0.005-0.003,0.007-0.004c0.025-0.013,0.049-0.029,0.073-0.044c0.007-0.005,0.014-0.011,0.021-0.016
		c0.017-0.013,0.034-0.026,0.049-0.04c0.009-0.009,0.018-0.018,0.027-0.026c0.012-0.012,0.025-0.025,0.037-0.038
		c0.009-0.012,0.019-0.024,0.027-0.036c0.009-0.012,0.019-0.024,0.026-0.037c0.009-0.016,0.018-0.033,0.026-0.049
		c0.005-0.011,0.012-0.022,0.017-0.034c0.013-0.03,0.023-0.061,0.031-0.094c0.007-0.025,0.018-0.05,0.03-0.075
		c0.005-0.01,0.01-0.02,0.017-0.031c0.011-0.019,0.024-0.038,0.039-0.057c0.006-0.008,0.013-0.017,0.02-0.026
		c0.125-0.141,0.356-0.26,0.711-0.269c0.011,0,0.022,0,0.034,0c0.069,0,0.141,0.003,0.219,0.011
		c1.274,0.138,1.622,0.295,1.683,0.387c-0.013,0.163-0.11,0.47-0.187,0.714c-0.018,0.055-0.033,0.108-0.05,0.159
		c-0.003,0.013-0.008,0.027-0.012,0.04c-0.012,0.039-0.022,0.077-0.034,0.114c-0.047,0.164-0.077,0.3-0.081,0.42
		c0,0.002,0,0.004,0,0.005c-0.001,0.019-0.001,0.037,0,0.054c0.005,0.177,0.071,0.32,0.242,0.425
		c0.143,0.086,0.282,0.088,0.406,0.05c0.01-0.003,0.021-0.006,0.032-0.011c0.008-0.002,0.016-0.005,0.024-0.009
		c0.047-0.019,0.094-0.044,0.14-0.075c0.006-0.004,0.012-0.008,0.019-0.012c0.009-0.006,0.018-0.013,0.027-0.02
		c0.082-0.059,0.148-0.125,0.196-0.173c0.002-0.001,0.004-0.004,0.007-0.006c0.161-0.16,0.307-0.326,0.441-0.479
		c0.118-0.137,0.272-0.313,0.376-0.399c0.004,0.006,0.008,0.012,0.014,0.019c0.002,0.003,0.004,0.006,0.006,0.01
		c0.01,0.014,0.02,0.031,0.031,0.048c0.143,0.246,0.285,0.473,0.426,0.684c0.42,0.633,0.828,1.114,1.235,1.461
		c0.369,0.314,0.958,0.883,1.294,1.211c0.152,0.148,0.252,0.248,0.256,0.252c0.124,0.125,0.311,0.166,0.475,0.106l0.454-0.162
		c0.304,0.695,0.585,1.439,0.683,1.847c0.014,0.059,0.023,0.11,0.029,0.153c-0.004,0.002-0.008,0.005-0.012,0.007
		c-0.414,0.274-0.492,0.551-0.334,1.18c0.125,0.495,0.41,1.095,0.56,1.395c-0.206,0.621-0.284,1.563,0.474,1.973
		c0.17,0.092,0.316,0.164,0.447,0.227c0.398,0.195,0.549,0.267,0.775,0.628c0.092,0.146,0.102,0.224,0.115,0.338
		c0.048,0.4,0.186,0.671,0.803,1.055c0.078,0.048,0.148,0.091,0.217,0.131l0,0c0.215,0.134,0.407,0.237,0.582,0.321l0.904,3.006
		c0.031,0.106,0.102,0.197,0.195,0.257l2.814,1.753c0.043,0.026,0.09,0.045,0.138,0.057l1.554,0.363l0.875,3.088l-1.592,2.408
		l-1.783-0.293l-1.914-0.802c-0.16-0.066-0.344-0.038-0.475,0.075l-1.715,1.479c-0.094,0.08-0.15,0.195-0.158,0.318
		c-0.008,0.124,0.035,0.243,0.118,0.334l1.809,1.986l1.399,2.447l-0.473,1.365l-1.306,3.991c-0.058,0.172-0.006,0.361,0.13,0.482
		l1.221,1.087c0.045,0.042,0.099,0.071,0.157,0.092l2.363,0.793l0.63,2.438l-0.16,2.367c-0.009,0.141,0.047,0.276,0.152,0.371
		l1.608,1.433l-0.569,2.958c-0.007,0.037-0.009,0.074-0.007,0.111l0.071,1.316c0.005,0.084,0.031,0.164,0.078,0.233l1.334,1.954
		l-0.18,2.053l-6.854,0.356c-0.129,0.007-0.25,0.069-0.331,0.17l-0.548,0.678l-0.618,0.033l-0.929-0.882
		c-0.053-0.051-0.115-0.086-0.186-0.107l-3.541-1.039c-0.16-0.046-0.335-0.001-0.453,0.117c-0.118,0.119-0.162,0.294-0.112,0.454
		l0.522,1.724l-0.222,0.636l-0.901-0.067c-0.069-0.005-0.139,0.006-0.203,0.031l-0.732,0.293l-0.981-1.026
		c-0.057-0.06-0.128-0.103-0.208-0.124l-1.687-0.469c-0.136-0.039-0.281-0.012-0.394,0.073c-0.113,0.084-0.181,0.215-0.185,0.356
		l-0.188,7.764l-17.502,0.223l-1.005-0.301l-0.68-1.163c-0.084-0.144-0.246-0.239-0.407-0.227l-1.307,0.037l-0.577-0.722
		l0.289-1.592l0.749-1.193c0.068-0.11,0.087-0.242,0.054-0.365c-0.035-0.123-0.119-0.227-0.232-0.285l-1.024-0.525
		c-0.082-0.041-0.173-0.059-0.264-0.046l-1.279,0.158l-1.546,0.015c-0.119,0.001-0.233,0.049-0.318,0.134l-2.367,2.351
		c-0.135,0.135-0.173,0.339-0.095,0.512l0.581,1.29c0.079,0.176,0.261,0.284,0.455,0.267l0.461-0.039l0.071,1.363l0.23,1.973
		l-0.538,1.248l-1.09,2.389l-0.74,0.391l-0.42-1.057c-0.05-0.128-0.156-0.225-0.286-0.268l-1.354-0.43
		c-0.239-0.075-0.497,0.057-0.574,0.297l-0.359,1.124l-2.054-0.257c-0.151-0.02-0.301,0.037-0.401,0.152l-1.05,1.197l-0.281-0.38
		l0.395-1.796c0.037-0.172-0.025-0.35-0.163-0.457l-1.028-0.816c-0.035-0.028-0.074-0.05-0.116-0.068l-2.662-1.049
		c-0.13-0.051-0.276-0.04-0.396,0.029C94.529,177.461,94.448,177.58,94.427,177.72z"/>
	<g>
		<path id="Northeast" fill="#224176" stroke="#FFFFFF" stroke-miterlimit="10" d="M95.827,39.485
			c-0.005-0.042-0.017-0.083-0.033-0.123c-0.228-0.529-0.309-1.134-0.214-1.238c0,0,0.063-0.011,0.162-0.006
			c0.028,0.003,0.054,0.006,0.077,0.008c0.034,0.005,0.069,0.011,0.108,0.021c3.881,1.004,17.475,1.512,40.404,1.511
			c20.728,0,42.436-0.43,45.777-0.498l6.967,119.428l-0.357-0.241l0.237-1.6c0.028-0.193-0.069-0.384-0.243-0.473l-1.067-0.546
			c-0.05-0.025-0.104-0.041-0.159-0.049l-0.743-0.076l-0.202-0.696l0.787-0.639c0.141-0.113,0.2-0.296,0.156-0.471
			c-0.046-0.174-0.188-0.306-0.365-0.335l-1.887-0.323l-1.715-0.47c0.158-0.313,0.287-0.716,0.208-1.115
			c-0.054-0.268-0.222-0.64-0.725-0.896c-0.611-0.31-0.628-0.422-0.67-0.692c-0.021-0.145-0.05-0.322-0.128-0.537
			c-0.084-0.228-0.091-0.404-0.098-0.611c-0.011-0.286-0.021-0.609-0.244-0.995c-0.369-0.64-1.431-1.161-1.55-1.218
			c-0.028-0.014-0.059-0.023-0.089-0.03c-0.09-0.022-0.188-0.016-0.275,0.019c-0.023,0.01-0.054,0.02-0.083,0.029
			c-0.058,0.018-0.144,0.043-0.244,0.065c-0.024,0.005-0.048,0.011-0.072,0.015c-0.021,0.004-0.041,0.008-0.062,0.012
			c-0.049,0.008-0.099,0.015-0.148,0.02c-0.004,0-0.007,0.002-0.011,0.002c-0.06,0.005-0.118,0.008-0.179,0.008
			c-0.002,0-0.002,0-0.004,0c-0.053-0.001-0.105-0.004-0.155-0.012c-0.013-0.001-0.023-0.004-0.036-0.006
			c-0.039-0.006-0.076-0.016-0.111-0.027c-0.013-0.004-0.024-0.008-0.037-0.014c-0.043-0.017-0.083-0.036-0.117-0.063
			c-0.316-0.236-0.282-0.456-0.275-0.482c0.047-0.139,0.023-0.292-0.063-0.411s-0.224-0.189-0.371-0.189h-2.205
			c-0.238-0.058-1.246-0.303-2.22-0.57c-0.191-0.052-0.284-0.094-0.324-0.119c0.001-0.027,0.003-0.061,0.007-0.089
			c0.016-0.217,0.043-0.544-0.172-0.946c-0.363-0.682-0.582-1.451-0.593-1.487c-0.021-0.058-0.503-1.414-1.155-2.376
			c-0.699-1.031-1.285-1.187-1.395-1.208c-0.058-0.011-0.117-0.01-0.176,0.001l-1.16,0.234l-0.514-2.09
			c-0.023-0.09-0.072-0.171-0.143-0.233l-2.494-2.198l-2.021-2.285c-0.016-0.018-0.033-0.034-0.051-0.048l-2.9-2.41
			c-0.084-0.072-0.193-0.109-0.303-0.106l-1.029,0.028l-2.991-1.667c-0.028-0.883-0.116-2.461-0.382-2.91
			c-0.262-0.449-1.469-1.728-1.812-2.088c-0.13-0.248-0.636-1.163-1.452-2.066c-0.789-0.873-2.006-1.091-2.563-1.146
			c-0.237-0.493-0.774-1.532-1.276-1.952c-0.042-0.035-0.085-0.065-0.129-0.092c-0.023-0.015-0.047-0.027-0.07-0.039
			c-0.021-0.01-0.043-0.021-0.064-0.03c-0.319-0.136-0.611-0.04-0.789,0.114c-0.03,0.027-0.059,0.057-0.085,0.088
			c-0.007,0.007-0.013,0.017-0.02,0.025c-0.011,0.015-0.023,0.029-0.034,0.043c-0.02,0.029-0.039,0.06-0.057,0.092
			c-0.007,0.011-0.011,0.023-0.016,0.034c-0.016,0.031-0.03,0.062-0.043,0.094c-0.009,0.021-0.018,0.042-0.024,0.063
			c-0.015,0.041-0.026,0.083-0.036,0.126c-0.006,0.023-0.01,0.046-0.016,0.069c-0.007,0.037-0.012,0.075-0.016,0.113
			c-0.004,0.02-0.006,0.039-0.007,0.059c-0.004,0.049-0.005,0.098-0.005,0.147c0,0.013,0,0.025,0.001,0.038
			c0.002,0.058,0.007,0.116,0.015,0.173c0.001,0.004,0.001,0.007,0.002,0.01c0.01,0.061,0.021,0.121,0.038,0.18l0,0
			c0.017,0.057,0.036,0.112,0.059,0.165c0.003,0.007,0.007,0.013,0.009,0.021c0.023,0.052,0.049,0.103,0.078,0.15
			c0.018,0.035,0.025,0.092,0.025,0.165c-0.002,0.246-0.093,0.677-0.236,1.117c-0.042,0.132-0.09,0.265-0.142,0.394
			c-0.032,0.08-0.041,0.169-0.024,0.255c0.007,0.035,0.166,0.864,0.395,1.736c0.055,0.211,0.041,0.314,0.031,0.35
			c-0.16,0.038-0.295,0.173-0.345,0.331c-0.003,0.009-0.077,0.238-0.463,0.491c-0.5,0.328-0.594,1.111-0.67,1.74
			c-0.005,0.045-0.011,0.095-0.018,0.144c-0.002,0.015-0.004,0.031-0.006,0.046c-0.06-0.019-0.126-0.041-0.194-0.065l0.016-0.051
			c-0.083-0.027-0.154-0.043-0.229-0.059c-0.065-0.015-0.133-0.03-0.221-0.062c-0.229-0.101-0.482-0.229-0.756-0.399
			c-0.358-0.222-0.365-0.275-0.378-0.388c-0.02-0.157-0.048-0.395-0.249-0.715c-0.365-0.582-0.711-0.75-1.148-0.963
			c-0.121-0.06-0.257-0.125-0.414-0.209c-0.258-0.14-0.08-0.797,0.012-1.021c0.056-0.127,0.048-0.273-0.018-0.395
			c-0.004-0.008-0.432-0.808-0.574-1.373c-0.023-0.092-0.035-0.154-0.043-0.196c0.057-0.038,0.123-0.083,0.195-0.14
			c0.224-0.179,0.598-0.479-0.746-3.388c-0.1-0.216-0.348-0.319-0.569-0.239l-0.581,0.207c-0.33-0.324-0.98-0.954-1.396-1.308
			c-0.458-0.389-0.95-1.033-1.465-1.911c-0.04-0.071-0.13-0.219-0.269-0.346c-0.002-0.001-0.002-0.001-0.004-0.002
			c-0.027-0.025-0.057-0.049-0.09-0.073c-0.012-0.008-0.023-0.016-0.035-0.023c-0.022-0.014-0.045-0.029-0.068-0.041
			c-0.039-0.02-0.078-0.037-0.119-0.049c-0.006-0.002-0.012-0.003-0.018-0.004c-0.039-0.011-0.079-0.019-0.12-0.024
			c-0.007-0.001-0.011-0.003-0.018-0.004c-0.017-0.001-0.032-0.001-0.05-0.001c-0.007,0-0.014-0.002-0.021-0.002
			c-0.004,0-0.006,0.001-0.01,0.001c-0.023,0-0.049,0.001-0.072,0.004c-0.007,0.001-0.014,0.002-0.02,0.002
			c-0.024,0.003-0.047,0.007-0.07,0.013c-0.009,0.001-0.018,0.003-0.025,0.005c-0.02,0.006-0.039,0.011-0.059,0.018
			c-0.014,0.005-0.029,0.01-0.043,0.016c-0.012,0.005-0.025,0.01-0.038,0.016c-0.024,0.011-0.048,0.023-0.071,0.036
			c-0.003,0.002-0.005,0.003-0.008,0.005c-0.088,0.05-0.172,0.113-0.254,0.188c0.001-0.007,0.001-0.014,0.002-0.021
			c0.002-0.02,0.004-0.038,0.006-0.057c0.06-0.748-0.656-1.061-1.444-1.22c-0.357-0.072-0.73-0.112-1.052-0.146
			c-0.069-0.008-0.137-0.013-0.203-0.016c-0.828-0.037-1.346,0.286-1.625,0.674c-0.002,0.002-0.003,0.004-0.004,0.006
			c-0.016,0.022-0.031,0.045-0.045,0.067c-0.01,0.015-0.02,0.031-0.029,0.046c-0.004,0.006-0.008,0.013-0.011,0.02
			c-0.035,0.06-0.065,0.123-0.089,0.186c-0.049,0.009-0.13,0.018-0.251,0.019c-0.006,0-0.012,0-0.019,0
			c-0.041,0-0.082-0.001-0.123-0.002h-0.001c-0.299-0.012-0.585-0.061-0.588-0.061c-0.125-0.021-0.252,0.009-0.353,0.086
			l-0.795,0.604l-0.038-0.125c-0.037-0.123-0.125-0.224-0.241-0.28s-0.25-0.06-0.368-0.011c-0.579,0.236-0.937,0.468-1.044,0.661
			c-0.07,0.084-0.356,0.299-0.693,0.472c-0.003,0.001-0.004,0.002-0.006,0.004c-0.029,0.015-0.058,0.029-0.086,0.042
			c-0.02,0.01-0.039,0.019-0.059,0.027c-0.015,0.006-0.03,0.013-0.044,0.02c-0.029,0.012-0.057,0.024-0.086,0.035
			c-0.009,0.004-0.019,0.006-0.027,0.01c-0.031,0.011-0.061,0.022-0.091,0.032c-0.01,0.003-0.02,0.006-0.03,0.009
			c-0.027,0.008-0.054,0.016-0.081,0.023c-0.014,0.004-0.029,0.008-0.042,0.01c-0.021,0.006-0.043,0.009-0.064,0.013
			c-0.019,0.003-0.037,0.006-0.056,0.009c-0.017,0.002-0.033,0.003-0.05,0.005c-0.02,0.002-0.039,0.003-0.058,0.004
			c-0.026,0.001-0.052,0.002-0.077-0.001c-0.106-0.009-0.194-0.018-0.266-0.027c0.019-0.259-0.083-0.552-0.177-0.823
			c-0.041-0.118-0.107-0.308-0.122-0.399c0.045-0.121,0.046-0.253,0-0.375c-0.115-0.306-0.439-0.419-0.93-0.59
			c-0.37-0.129-0.829-0.29-1.092-0.507c-0.328-0.27-0.354-0.446-0.356-0.479c0.012-0.047,0.017-0.095,0.014-0.141l-0.032-0.543
			l0.485-1.773l0.55-0.845c0.07-0.106,0.091-0.236,0.061-0.359l-0.504-2.015c-0.029-0.114-0.1-0.212-0.2-0.275l-1.424-0.894
			l-3.605-1.959c-0.186-0.102-0.417-0.063-0.558,0.094l-1.274,1.406l-2.771,1.047l-0.793-2.651
			c-0.038-0.128-0.131-0.234-0.254-0.288c-0.123-0.054-0.263-0.052-0.383,0.007l-1.749,0.847l-0.729-1.073l-0.425-2.783
			c-0.005-0.03-0.011-0.058-0.021-0.084l-0.774-2.178c-0.008-0.023-0.019-0.046-0.03-0.068c-0.036-0.064-0.086-0.12-0.149-0.161
			l-0.588-0.387l0.14-1.125l2.471-1.239c0.169-0.084,0.269-0.266,0.25-0.455l-0.256-2.506l1.319-2.326
			c0.041-0.073,0.062-0.157,0.06-0.24l-0.057-1.729l1.591-0.161l0.233,0.686c0.054,0.157,0.188,0.273,0.35,0.303l1.256,0.228
			c0.1,0.018,0.201,0.002,0.29-0.044l2.225-1.143c0.111-0.058,0.193-0.158,0.229-0.278c0.036-0.119,0.021-0.248-0.042-0.357
			l-1.355-2.358c0.072-0.281,0.184-0.811,0.148-1.305c-0.001-0.024-0.001-0.047,0.003-0.07c0.002-0.008,0.004-0.017,0.005-0.025
			c0.004-0.013,0.007-0.027,0.011-0.04c0.004-0.009,0.008-0.018,0.013-0.027c0.006-0.011,0.011-0.023,0.02-0.035
			c0.005-0.008,0.012-0.016,0.019-0.024c0.008-0.01,0.018-0.021,0.028-0.032c0.012-0.012,0.026-0.022,0.039-0.033
			c0.017-0.013,0.033-0.027,0.051-0.039c0.012-0.008,0.027-0.016,0.04-0.023c0.022-0.012,0.044-0.025,0.068-0.035
			c0.015-0.007,0.031-0.012,0.046-0.018c0.027-0.01,0.053-0.021,0.082-0.029c0.017-0.006,0.035-0.01,0.054-0.013
			c0.03-0.007,0.06-0.015,0.091-0.021c0.021-0.004,0.042-0.006,0.063-0.009c0.032-0.005,0.063-0.009,0.097-0.013
			c0.025-0.001,0.052-0.002,0.078-0.004c0.032-0.002,0.063-0.004,0.097-0.005c0.034,0,0.07,0.002,0.104,0.003
			c0.028,0.001,0.055,0.001,0.083,0.003c0.065,0.003,0.131,0.01,0.2,0.019c0.059,0.007,0.112,0.011,0.163,0.014
			c0.014,0.001,0.029,0.002,0.042,0.002c0.015,0,0.032,0.002,0.047,0.002c0.015,0,0.027-0.002,0.041-0.003
			c0.038-0.001,0.076-0.003,0.111-0.007c0.018-0.002,0.034-0.004,0.051-0.006c0.042-0.007,0.083-0.015,0.122-0.025
			c0.004-0.001,0.01-0.002,0.015-0.003c0.124-0.036,0.229-0.093,0.314-0.172c0.002-0.003,0.004-0.005,0.007-0.008
			c0.021-0.02,0.042-0.041,0.061-0.064c0.024-0.029,0.044-0.058,0.06-0.085c0.002-0.003,0.005-0.005,0.007-0.008
			c0.002-0.005,0.004-0.009,0.006-0.014c0.004-0.008,0.01-0.018,0.015-0.025c0.005-0.009,0.008-0.02,0.012-0.029
			c0.006-0.014,0.012-0.028,0.018-0.042c0.007-0.017,0.011-0.033,0.016-0.049c0.004-0.015,0.008-0.029,0.012-0.043
			c0.004-0.017,0.007-0.034,0.009-0.049c0.003-0.016,0.005-0.031,0.007-0.045c0.001-0.016,0.001-0.031,0.002-0.046
			c0.001-0.017,0.002-0.034,0.002-0.05c0-0.014-0.001-0.027-0.002-0.041c-0.001-0.019-0.001-0.037-0.003-0.056
			c-0.001-0.01-0.003-0.02-0.005-0.031c-0.002-0.021-0.005-0.043-0.01-0.065c-0.001-0.004-0.001-0.006-0.001-0.009
			c-0.012-0.059-0.027-0.115-0.046-0.171l1.406-0.258l1.536,0.052l1.589,0.653c0.074,0.03,0.153,0.04,0.232,0.031l0.794-0.103
			c0.187-0.025,0.34-0.162,0.385-0.345l0.201-0.82l2.23,0.515l0.619,0.776c0.078,0.098,0.194,0.161,0.319,0.171l1.001,0.082
			c0.097,0.009,0.195-0.015,0.278-0.068l1.622-1.007l1.161-0.678l2.538-0.86l1.497,0.708c0.119,0.056,0.257,0.058,0.378,0.004
			c0.121-0.054,0.213-0.156,0.253-0.283l0.612-1.957c0.016-0.05,0.023-0.103,0.021-0.155l-0.09-2.244
			c-0.009-0.203-0.149-0.376-0.348-0.425l-1.896-0.466l-2.958-1.25c-0.04-0.017-0.083-0.028-0.125-0.033l-2.525-0.291l-1.199-1.567
			c-0.102-0.133-0.269-0.202-0.435-0.174l-1.569,0.25l-0.625-0.988c-0.068-0.107-0.178-0.182-0.304-0.205l-1.023-0.188l-0.115-0.657
			c-0.023-0.136-0.107-0.254-0.228-0.321l-2.749-1.53c-0.019-0.01-0.037-0.02-0.056-0.027l-1.785-0.697l-2.236-0.944l0.417-1.954
			c0.011-0.05,0.013-0.103,0.006-0.153l-0.319-2.555l-0.042-2.626c-0.001-0.044-0.008-0.088-0.021-0.129
			c-0.039-0.124-0.13-0.228-0.253-0.282l-2.154-0.942l-0.09-3.181c-0.001-0.042-0.008-0.083-0.021-0.124l-1.206-3.818
			c-0.042-0.133-0.143-0.239-0.272-0.289l-2.662-1.022l-1.78-1.789c-0.042-0.041-0.091-0.075-0.146-0.098l-3.507-1.479
			c-0.168-0.071-0.362-0.035-0.493,0.092l-1.689,1.621l-1.566-2.693l0.62-1.439c0.056-0.13,0.048-0.278-0.02-0.401
			s-0.189-0.209-0.329-0.23l-2.143-0.34l0.111-0.677c0.022-0.137-0.02-0.276-0.112-0.379c-0.094-0.104-0.228-0.159-0.367-0.149
			l-4.151,0.263l0.5-0.594C95.806,39.738,95.843,39.611,95.827,39.485"/>
	</g>
	<g>
		<path id="Cariboo" fill="#224176" stroke="#FFFFFF" stroke-miterlimit="10" d="M189.732,160.162c0.038,0,0.077-0.006,0.115-0.016
			l0.043,0.029l-0.01,0.037l1.313,0.348l0.491,0.809c0.018,0.031,0.041,0.059,0.064,0.084l0.942,0.958l-0.322,0.952
			c-0.591-0.113-0.998-0.051-1.215,0.188c-0.079,0.086-0.246,0.329-0.101,0.695c0.244,0.615,1.124,1.861,1.25,2.035l1.52,1.763
			c0.146,0.169,0.392,0.207,0.583,0.092l0.934-0.568l2.17,1.153l0.608,1.846c0.05,0.15,0.174,0.266,0.33,0.302l1.824,0.422
			l0.693,0.69c0.121,0.119,0.299,0.162,0.46,0.11c0.163-0.051,0.282-0.188,0.312-0.356l0.258-1.477l1.332,0.644l0.844,1.443
			l0.146,0.755c0.023,0.124,0.098,0.232,0.204,0.3l1.151,0.727l0.537,1.642c0.044,0.134,0.148,0.239,0.279,0.287l1.604,0.576
			l0.497,0.873l-0.458,0.461c-0.103,0.103-0.149,0.248-0.128,0.391s0.11,0.267,0.238,0.336l1.614,0.859l-0.131,1.504
			c-0.009,0.098,0.015,0.195,0.065,0.278l0.745,1.212l0.63,1.734l-0.384,0.975l-1.985,0.661c-0.135,0.045-0.24,0.149-0.287,0.284
			l-0.777,2.242l-0.707,0.928l-1.393-0.046l-0.804-0.759l0.45-0.354c0.104-0.082,0.168-0.203,0.174-0.334
			c0.008-0.131-0.041-0.26-0.135-0.352l-1.166-1.145v-2.445c0-0.102-0.033-0.199-0.096-0.28l-1.289-1.661
			c-0.035-0.045-0.078-0.082-0.126-0.112l-2.033-1.221c-0.16-0.096-0.364-0.084-0.515,0.028l-1.446,1.111l-1.349-0.135l-1.496-1.381
			c-0.077-0.071-0.176-0.113-0.279-0.121l-0.979-0.063c-0.115-0.009-0.23,0.03-0.32,0.103l-1.337,1.103
			c-0.573-0.129-1.144-0.345-1.271-0.487c-0.126-0.626-1.103-2.001-1.403-2.416c-0.013-0.018-0.027-0.035-0.043-0.051l-1.065-1.089
			c-0.1-0.103-0.241-0.151-0.382-0.134c-1.306,0.158-2.084,0.404-2.313,0.726c-0.334,0.468-0.443,1.585,0.049,2.074
			c0.146,0.157,0.585,1.074,0.924,1.878c-0.02,0.207-0.045,0.614,0.026,0.977c-0.005,0.127-0.244,0.473-0.505,0.74l-1.23,0.59
			c-0.202,0.055-0.768,0.238-1.002,0.652c-0.115,0.201-0.139,0.428-0.068,0.651c0.104,0.33,0.194,1.468,0.229,2.108
			c0,0.025,0.004,0.051,0.01,0.076l0.545,2.412c0.02,0.086,0.063,0.163,0.125,0.226l2.203,2.161l0.25,2.159
			c-0.006,0.56-0.021,1.216-0.032,1.304c-0.03,0.129-0.468,2.097-0.468,2.097c-0.01,0.043-0.013,0.085-0.01,0.129l0.098,1.503
			l-1.796,0.596c-0.132,0.043-0.237,0.145-0.284,0.275l-0.476,1.282c-0.019,0.051-0.028,0.104-0.028,0.159v3.502h-5.939
			c-0.109,0-0.215,0.039-0.298,0.111l-1.127,0.963l-1.028,0.31l-1.66-0.684v-1.613c0-0.252-0.203-0.456-0.457-0.456h-4.111
			c-0.252,0-0.457,0.204-0.457,0.456v0.456h-5.481c-0.075,0-0.149,0.02-0.216,0.055l-0.955,0.514l-1.775,0.592
			c-0.167,0.057-0.287,0.202-0.309,0.378l-0.372,3.014c-0.019,0.149,0.038,0.298,0.15,0.398l0.802,0.708
			c0.041,0.563-0.002,1.141-0.102,1.271c-0.131,0.146-0.248,0.337-0.361,0.521c-0.092,0.149-0.254,0.413-0.355,0.501
			c-0.545-0.236-2.427-0.982-2.773-1.121l-0.647-0.465c-0.091-0.064-0.202-0.094-0.31-0.083l-2.013,0.191
			c-0.149,0.014-0.284,0.101-0.356,0.233l-1.246,2.252c-0.191,0.137-0.311,0.443-0.459,0.819c-0.184,0.47-1.41,1.212-2.248,1.604
			l-2.659,0.625l-1.369-0.414l-0.627-0.477l-2.515-2.41l-0.805-1.512c-0.037-0.07-0.092-0.129-0.159-0.172
			c-0.222-0.141-0.509-0.341-0.581-0.416c-0.256-0.267-0.674-0.227-1.391-0.131c-0.158,0.021-0.338,0.047-0.408,0.047
			c-0.197-0.008-1.379-0.277-2.359-0.523c-0.127-0.03-0.262-0.006-0.368,0.066c-0.079,0.055-0.274,0.137-0.358,0.107
			c-0.031-0.011-0.072-0.074-0.102-0.164c-0.12-0.354-0.112-0.645-0.107-0.838c0.006-0.194,0.014-0.491-0.266-0.644
			c-0.186-0.103-0.391-0.077-0.587,0.058c-0.082,0.027-0.358-0.013-0.523-0.036c-0.378-0.054-0.769-0.109-1.098,0.042
			c-0.249,0.114-0.382,0.316-0.465,0.467c-0.021-0.014-0.043-0.033-0.07-0.053c-0.597-0.484-0.965-0.568-1.235-0.629
			c-0.113-0.025-0.171-0.04-0.201-0.054c-0.128-0.122-0.386-0.782-0.551-1.413c-0.015-0.057-0.041-0.111-0.076-0.158l-1.02-1.359
			c-0.003-0.004-0.007-0.01-0.011-0.014c0.449-0.539,0.657-1.075,0.657-1.404c0.002-0.148,0.117-1.348,0.226-2.4
			c0.004-0.043,0.002-0.087-0.005-0.129l-0.229-1.248c-0.012-0.064-0.037-0.125-0.073-0.178l-1.2-1.739
			c-0.025-0.037-0.055-0.069-0.089-0.097l-2.445-1.971l-0.496-2.018l0.197-1.43l0.597-0.646c0.116-0.102,0.752-0.657,1.021-0.89
			c0.447-0.386,0.446-0.951,0.446-1.358c0-0.2,0.105-0.637,0.175-0.886c0.085-0.188,0.199-0.39,0.275-0.492
			c0.281-0.035,0.537-0.264,0.674-0.521c0.104-0.197,0.381-0.896-0.446-1.6c-0.62-0.527-1.167-0.971-1.41-1.168
			c-0.141-0.675-0.579-1.629-1.501-1.659c-0.769-0.022-2.339-0.081-2.765-0.096c-0.085-0.06-0.254-0.202-0.333-0.464
			c-0.041-0.135-0.018-0.191,0.007-0.252c0.111-0.264,0.026-0.441-0.064-0.544c-0.202-0.229-0.457-0.159-0.681-0.096
			c-0.147,0.04-0.474,0.083-0.79,0.122c-0.808,0.103-1.405,0.191-1.734,0.385c-0.423,0.248-1.106,0.604-1.113,0.607
			c-0.021,0.011-0.04,0.023-0.059,0.037l-0.207,0.149c-1.008-0.677-2.087-1.456-2.378-1.751c0.04-0.332,0.222-1.033,0.675-1.226
			c0.786-0.333,1.568-0.67,1.568-0.67c0.118-0.052,0.209-0.149,0.251-0.271s0.031-0.255-0.032-0.368l-0.616-1.123
			c-0.049-0.088-0.126-0.158-0.22-0.198l-1.503-0.648l-0.347-1.63l17-0.215c0.247-0.004,0.445-0.199,0.451-0.446l0.184-7.619
			l1.002,0.278l1.108,1.157c0.129,0.135,0.326,0.178,0.498,0.108l0.92-0.367l1.146,0.085c0.203,0.017,0.396-0.109,0.465-0.304
			l0.387-1.107c0.033-0.092,0.035-0.191,0.006-0.283l-0.32-1.057l2.623,0.768l0.99,0.941c0.09,0.087,0.215,0.133,0.338,0.125
			l1.017-0.054c0.13-0.008,0.25-0.069,0.331-0.169l0.549-0.678l7.045-0.369c0.229-0.012,0.412-0.189,0.432-0.417l0.229-2.608
			c0.01-0.105-0.019-0.209-0.077-0.298l-1.353-1.983l-0.063-1.135l0.607-3.157c0.031-0.159-0.025-0.321-0.145-0.428l-1.636-1.457
			l0.148-2.216v-0.002c0.004-0.049-0.001-0.098-0.013-0.146l-0.711-2.747c-0.039-0.149-0.15-0.27-0.297-0.319l-2.509-0.842
			l-0.927-0.825l1.21-3.699l0.539-1.554c0.043-0.124,0.03-0.262-0.035-0.376l-1.528-2.672c-0.016-0.029-0.035-0.057-0.059-0.081
			l-1.525-1.675l1.145-0.987l1.703,0.713c0.033,0.014,0.066,0.023,0.104,0.029l2.127,0.351c0.178,0.029,0.356-0.049,0.456-0.2
			l1.872-2.83c0.072-0.111,0.094-0.248,0.058-0.376l-1.007-3.548c-0.044-0.16-0.174-0.282-0.335-0.32l-1.741-0.406l-2.605-1.623
			l-0.665-2.214c0.044,0.011,0.085,0.021,0.122,0.033c0.025,0.008,0.059,0.015,0.092,0.019c0.015,0.002,0.029,0.003,0.043,0.004
			c0.008,0,0.018,0.002,0.025,0.002c0.02,0,0.037-0.002,0.057-0.004c0.004-0.001,0.01,0,0.015-0.001
			c0.166-0.019,0.28-0.101,0.361-0.223c0.124-0.172,0.165-0.424,0.206-0.761c0.005-0.036,0.01-0.071,0.014-0.107
			c0.032-0.266,0.117-0.973,0.264-1.083c0.424-0.279,0.641-0.574,0.749-0.781c0.099-0.053,0.207-0.135,0.298-0.263
			c0.196-0.278,0.234-0.655,0.111-1.125c-0.17-0.646-0.303-1.284-0.355-1.548c0.229-0.601,0.599-1.787,0.229-2.373
			c-0.063-0.098-0.072-0.25-0.058-0.368c0.35,0.377,0.818,1.267,1.051,1.785c0.065,0.145,0.201,0.24,0.355,0.261
			c0.02,0.003,0.038,0.008,0.058,0.008c0.001,0,0.007,0,0.01,0c0.097,0.003,1.452,0.059,2.179,0.862
			c0.848,0.939,1.341,1.917,1.346,1.927c0.021,0.04,0.048,0.078,0.08,0.111c0.576,0.604,1.557,1.673,1.729,1.963
			c0.123,0.245,0.236,1.611,0.264,2.734c0.004,0.162,0.093,0.309,0.234,0.388l3.328,1.853c0.072,0.04,0.152,0.063,0.235,0.058
			l0.981-0.027l2.741,2.279l2.018,2.28c0.013,0.015,0.026,0.028,0.04,0.04l2.408,2.123l0.586,2.376
			c0.059,0.238,0.295,0.388,0.534,0.339l1.456-0.294c0.123,0.068,0.406,0.268,0.764,0.796c0.146,0.215,0.284,0.457,0.41,0.697
			c0.375,0.722,0.633,1.442,0.633,1.442c0.005,0.018,0.065,0.23,0.174,0.532c0.002,0.004,0.003,0.007,0.005,0.012
			c0,0.001,0.001,0.002,0.001,0.003c0.111,0.309,0.273,0.708,0.478,1.092c0.089,0.165,0.079,0.282,0.065,0.443
			c-0.043,0.541,0.107,0.924,0.989,1.163c1.122,0.307,2.287,0.585,2.298,0.589c0.035,0.009,0.071,0.013,0.107,0.013h1.807
			c0.063,0.291,0.236,0.619,0.614,0.902c0.063,0.048,0.128,0.086,0.196,0.121c0.011,0.006,0.021,0.012,0.032,0.017
			c0.069,0.032,0.139,0.06,0.21,0.082c0.014,0.004,0.025,0.009,0.039,0.013c0.077,0.021,0.156,0.037,0.234,0.049
			c0.01,0.002,0.021,0.002,0.031,0.004c0.094,0.013,0.188,0.018,0.279,0.02h0.002h0.002c0.365,0,0.705-0.08,0.916-0.145
			c0.199,0.107,0.459,0.266,0.669,0.432c0.009,0.008,0.021,0.016,0.028,0.023c0.008,0.006,0.014,0.012,0.021,0.018
			c0.119,0.1,0.218,0.2,0.271,0.293c0.109,0.189,0.114,0.344,0.123,0.572c0.01,0.236,0.02,0.529,0.153,0.894
			c0.046,0.127,0.063,0.239,0.081,0.357c0.076,0.497,0.203,0.886,1.161,1.372c0.211,0.106,0.233,0.217,0.241,0.256
			c0.059,0.285-0.232,0.741-0.381,0.917c-0.102,0.12-0.137,0.281-0.09,0.431c0.045,0.15,0.166,0.266,0.316,0.307l2.359,0.645
			l0.938,0.162l-0.241,0.195c-0.144,0.116-0.203,0.307-0.152,0.482l0.374,1.283c0.052,0.179,0.206,0.307,0.392,0.326l0.963,0.103
			l0.698,0.357l-0.231,1.558c-0.006,0.042-0.006,0.084-0.001,0.125c0.002,0.012,0.007,0.023,0.009,0.036
			c0.006,0.028,0.012,0.055,0.023,0.081c0.006,0.015,0.014,0.027,0.022,0.043c0.013,0.021,0.023,0.042,0.038,0.062
			c0.012,0.015,0.023,0.026,0.037,0.038c0.012,0.012,0.021,0.026,0.033,0.037l1.373,1.118
			C189.527,160.128,189.629,160.162,189.732,160.162"/>
	</g>
	<g>
		<path id="Vancouver-Island-Coast" fill="#224176" stroke="#FFFFFF" stroke-miterlimit="10" d="M98.869,195.771l-0.221,1.3
			c-0.155,0.279-0.385,0.588-0.475,0.733c-0.093-0.001,0.031-0.017-0.426-0.033v-0.017c0-0.291-0.109-0.441-0.359-0.616
			c-0.125-0.087-0.284-0.267-0.334-0.366c-0.115-0.227-0.263-0.475-0.361-0.633c0.108-0.49,0.199-1.058,0.134-1.369
			c0.033-0.145,0.253-0.488,0.378-0.592c0.131-0.039,0.427-0.177,1.242-0.764l0.661,0.226L98.869,195.771z M99.997,204.266
			l-0.156,0.781l-0.509,0.047c-0.283-0.135-1.006-0.475-1.445-0.6c-0.251-0.072-0.649-0.342-0.92-0.551
			c-0.019-0.256-0.021-0.506-0.005-0.574c0.048-0.144,0.07-0.356,0.105-0.72c0.021-0.22,0.057-0.587,0.083-0.669
			c0.069-0.135,0.601-0.892,1.029-1.482l0.225-0.258l0.503,0.223l0.728,1.527l0.448,1.402L99.997,204.266z M94.674,182.582
			c0.046-0.061,0.081-0.131,0.092-0.209l0.574-3.944l2.062,0.812l0.751,0.592l-0.378,1.714c-0.025,0.114-0.002,0.218,0.058,0.315
			L97.45,181.9l-1.093-0.551c-0.176-0.088-0.388-0.054-0.527,0.084L94.674,182.582z M101.48,191.783
			c-0.068,0.013-0.139,0.052-0.211,0.113C101.304,191.857,101.375,191.803,101.48,191.783z M126.857,228.741l0.898,2.47
			c0.056,0.154,0.189,0.266,0.351,0.293c0.161,0.027,0.325-0.032,0.43-0.158l0.898-1.083c0.12-0.146,0.139-0.35,0.047-0.513
			c-0.006-0.012-0.512-0.922-0.781-1.445c0.108-0.025,0.244-0.048,0.371-0.059l1.295,0.365l-0.401,1.649
			c-0.005,0.021-0.009,0.044-0.011,0.065l-0.286,3.085c-0.007,0.083,0.008,0.167,0.045,0.243l0.571,1.164
			c0.018,0.035,0.039,0.069,0.066,0.1l2.233,2.562c0.833,0.867,1.754,1.837,2.108,2.228c-0.191,0.275-0.624,0.784-1.002,1.192
			c-0.125,0.135-0.157,0.333-0.08,0.501l1.266,2.765c0.017,0.038,0.04,0.074,0.067,0.105l1.103,1.3
			c0.046,0.055,0.106,0.1,0.174,0.126l2.776,1.144l1.473,0.722c0.02,0.009,0.037,0.018,0.057,0.022l3.516,1.172l1.094,0.493
			c0.277,0.344,1.343,1.685,1.773,2.509c0.162,0.309,0.3,0.546,0.416,0.744c0.248,0.428,0.362,0.622,0.401,1
			c0.085,0.824,0.472,0.98,0.895,1.079c0.05,0.013,0.104,0.024,0.161,0.042c0.212,0.063,0.478,0.346,0.646,0.598
			c0.187,0.277,2.02,1.965,2.747,2.346c0.023,0.013,0.04,0.023,0.049,0.027c-0.039,0.111-0.278,0.361-0.662,0.511
			c-0.379,0.146-0.503,0.088-0.531,0.074c-0.122-0.118-0.303-0.159-0.465-0.104c-0.18,0.062-0.303,0.228-0.309,0.419
			c-0.001,0.024-0.019,0.619,0.051,1.076c0.08,0.541,0.453,0.627,0.613,0.664c0.08,0.019,0.094,0.021,0.133,0.064
			c0.296,0.324,0.945,0.545,1.332,0.652c0.15,0.361,0.445,1.012,0.725,1.287c0.209,0.242,0.662,1.766,0.676,2.4
			c0.008,0.302,0.047,0.454,0.077,0.535c-0.005,0.041-0.054,0.174-0.14,0.395c-0.048,0.115-0.072,0.115-0.113,0.115
			c-0.169,0-0.447-0.136-0.67-0.245c-0.086-0.044-0.169-0.084-0.245-0.118c-0.157-0.07-0.3-0.104-0.438-0.104
			c-0.428,0-0.679,0.324-0.72,0.656c-0.238,0.703-0.591,1.529-0.783,1.767c-0.205-0.04-0.678-0.354-0.998-0.569
			c-0.271-0.181-0.551-0.369-0.832-0.527c-0.559-0.311-0.734-0.354-1.021-0.41c-0.172-0.033-0.407-0.078-0.939-0.268
			c-0.229-0.082-0.426-0.15-0.603-0.213c-0.804-0.279-1.169-0.407-2.11-0.918c-0.693-0.373-1.172-0.59-1.556-0.764
			c-0.276-0.124-0.515-0.232-0.759-0.365c-0.441-0.242-0.877-0.379-1.598-0.605c-0.35-0.111-0.773-0.244-1.305-0.425
			c-1.065-0.358-1.451-0.385-1.682-0.399c-0.09-0.006-0.09-0.006-0.125-0.022c-0.191-0.103-1.449-0.995-2.56-1.802
			c-0.872-0.551-2.351-1.519-2.609-1.771c-0.099-0.098-0.214-0.193-0.335-0.294c-0.317-0.265-0.618-0.514-0.688-0.872
			c0.125-0.069,0.465-0.145,0.719-0.2c0.428-0.095,0.959-0.212,1.516-0.443c0.459-0.19,0.875-0.396,0.931-0.795
			c0.053-0.381-0.235-0.609-0.514-0.833c-0.211-0.168-0.474-0.378-0.698-0.688c-0.227-0.315-0.513-0.638-0.911-0.638
			c-0.437,0-0.679,0.365-0.936,0.75c-0.15,0.226-0.321,0.482-0.55,0.725c-0.021,0.022-0.04,0.042-0.059,0.061
			c-0.067-0.16-0.166-0.341-0.336-0.49c-0.568-0.496-1.713-0.717-2.237-0.627c-0.467,0.082-0.836,0.516-1.163,0.898
			c-0.064,0.076-0.125,0.148-0.188,0.216l-1.116-1.435c-0.083-0.105-0.206-0.169-0.34-0.177l-1.478-0.067
			c-0.893-0.703-1.699-1.512-1.806-1.809c0.145-0.361,0.492-0.716,0.826-0.633c0.176,0.041,0.296,0.091,0.393,0.13
			c0.108,0.044,0.21,0.085,0.334,0.085c0.15,0,0.504-0.063,0.537-0.633c0.048-0.838-0.279-1.627-1-2.414
			c-0.215-0.234-0.552-0.547-0.987-0.547c-0.36,0-0.606,0.205-0.804,0.371c-0.104,0.087-0.194,0.163-0.277,0.193
			c-0.014-0.049-0.032-0.1-0.058-0.152c0.026-0.048,0.067-0.111,0.1-0.162c0.219-0.338,0.586-0.902,0.314-1.72
			c-0.179-0.536-0.611-0.845-1.186-0.845c-0.577,0-1.138,0.305-1.2,0.34c-0.073,0.041-0.133,0.102-0.174,0.174
			c-0.224,0.394-0.544,0.795-0.669,0.887c-0.116-0.087-0.287-0.336-0.439-0.559c-0.199-0.291-0.446-0.652-0.786-1.02
			c-0.255-0.276-0.516-0.41-0.794-0.41c-0.43,0-0.71,0.325-0.914,0.564c-0.072,0.083-0.191,0.224-0.232,0.243
			c-0.125,0.021-0.218-0.023-0.273-0.065c-0.087-0.976-0.129-2.106-0.07-2.301c0.077-0.128,0.119-0.258,0.125-0.378
			c1.663-0.884,1.895-1.374,1.895-1.739c0-0.598-0.45-0.928-1.266-1.528c-0.302-0.222-0.672-0.493-1.116-0.845
			c-0.417-0.329-0.653-0.451-0.872-0.451c-0.189,0-0.357,0.096-0.45,0.252c-0.199,0.34,0.002,0.727,0.514,1.646
			c0.185,0.331,0.394,0.707,0.46,0.898c0.005,0.016,0.009,0.029,0.013,0.041c-0.077,0.02-0.19,0.041-0.272,0.055
			c-0.188,0.034-0.4,0.072-0.613,0.151c-0.067,0.024-0.109,0.034-0.132,0.038c-0.018-0.016-0.035-0.035-0.053-0.055
			c-0.098-0.101-0.246-0.253-0.495-0.37c-0.11-0.052-0.219-0.101-0.327-0.148c-0.364-0.162-0.708-0.316-1.088-0.587
			c-0.333-0.238-0.43-0.35-0.496-0.426c-0.023-0.028-0.049-0.057-0.08-0.088c-0.026-0.1-0.049-0.375,0.15-0.675
			c0.069-0.106,0.19-0.218,0.317-0.335c0.396-0.369,1.134-1.057,0.17-2.107c-0.22-0.242-0.52-0.518-0.882-0.518
			c-0.399,0-0.605,0.303-0.743,0.504c-0.057,0.084-0.143,0.209-0.22,0.216c-0.411,0-1.243-0.539-1.801-1.056
			c0.066-0.133,0.358-0.41,0.821-0.668c0.594-0.33,1.199-0.883,0.596-2.24c-0.33-0.742-0.969-1.151-1.801-1.151
			c-0.259,0-0.531,0.043-0.767,0.121c-0.568,0.187-0.55,0.59-0.539,0.856c0.01,0.25,0.029,0.668-0.185,1.494
			c-0.006,0.021-0.011,0.044-0.017,0.064c-0.042-0.075-0.083-0.152-0.121-0.221c-0.21-0.389-0.472-0.871-0.816-1.301
			c-0.787-0.984-0.883-1.069-1.507-1.544c-0.152-0.114-0.34-0.258-0.585-0.45c-0.376-0.298-0.668-0.43-0.947-0.43
			c-0.61,0-0.806,0.578-0.949,1.002c-0.076,0.223-0.154,0.454-0.273,0.635c-0.034,0.05-0.059,0.07-0.055,0.07
			c-0.076,0-0.251-0.096-0.651-0.551c-0.056-0.063-0.104-0.117-0.138-0.152c-0.114-0.115-0.323-0.342-0.496-0.53l0.512-0.556
			c0.061-0.064,0.1-0.145,0.115-0.232c0.112-0.657,0.241-1.827-0.153-2.295c-0.106-0.125-0.244-0.206-0.408-0.232
			c-0.009-0.131,0.019-0.361,0.07-0.549c0.017-0.061,0.021-0.125,0.012-0.187l-0.353-2.433c-0.035-0.235-0.241-0.402-0.48-0.391
			c-0.005,0-0.469,0.029-0.945,0.029c-0.483,0-0.688-0.031-0.762-0.046c-0.185-0.202-0.481-0.7-0.647-0.976
			c-0.14-0.234-0.625-1.514-0.945-2.359c-0.189-0.498-0.363-0.959-0.482-1.252c-0.137-0.34-0.116-0.371-0.032-0.506
			c0.086-0.137,0.216-0.342,0.274-0.686c0.018-0.106,0.032-0.205,0.039-0.296c0.352-0.12,0.737-0.274,0.907-0.557
			c0.333-0.118,1.404-0.286,2.326-0.387c0.811,0.217,3.048,0.812,3.218,0.843c0.135,0.023,1.211,0.2,1.677,0.275l0.979,1.699
			c0.042,0.071,0.102,0.131,0.175,0.17c2.384,1.311,3.767,1.976,4.109,1.976c0.038,0,0.079-0.006,0.12-0.017
			c0.196,0.051,0.741,0.314,1.226,0.594c0.057,0.032,0.119,0.052,0.183,0.059l0.894,0.091l1.707,0.67l1.821,1.015
			c0.027,0.016,0.057,0.027,0.086,0.037l2.688,0.838l2.464,0.663l1.925,0.483l2.773,0.901c0.056,0.018,0.115,0.023,0.172,0.021
			l1.803-0.122L126.857,228.741z M125.012,226.328l-0.895,0.061l-2.719-0.885l-1.946-0.488l-0.375-0.101
			c0.136-0.02,0.362-0.036,0.741-0.012c0.303,0.02,0.881,0.114,1.44,0.207c1.242,0.206,1.584,0.247,1.799,0.179
			c0.275-0.078,1.644-0.238,2.126-0.16c-0.006,0.233-0.086,0.618-0.18,0.912C124.974,226.135,124.98,226.236,125.012,226.328z
			 M135.458,230.118c-0.149,0.233-0.426,0.597-0.709,0.921c-0.021,0.023-0.041,0.051-0.057,0.079
			c-0.138,0.249-0.387,0.656-0.497,0.771c-0.001,0-0.189-0.006-0.218-0.014c-0.139-0.046-0.291-0.021-0.41,0.064
			c-0.118,0.086-0.188,0.224-0.188,0.369v1.214c-0.077,0.087-0.155,0.167-0.218,0.227c-0.206-0.096-0.552-0.262-0.902-0.433
			l-0.057-1.652l1.549-1.619l0.667-0.549C134.707,229.672,135.149,229.937,135.458,230.118z M144.58,237.947l-0.01,0.02
			l-1.111,0.596l-1.369-0.084c-0.017-0.001-0.031-0.002-0.047-0.001l-2.079,0.083c-0.181,0.008-0.339,0.121-0.406,0.287
			c-0.067,0.169-0.028,0.36,0.098,0.489l1.263,1.292c0.014,0.015,0.029,0.027,0.045,0.041l1.308,1.023l1.161,1.299v0.877
			l-0.796-0.145l-1.95-0.896l-2.129-2.9l-1.129-1.935l-0.268-0.884c-0.004-0.017-0.012-0.033-0.018-0.049
			c-0.579-1.35-0.962-2.121-1.137-2.295l-0.239-0.238c0.409-0.977,0.628-1.65,0.653-2.008c0.17-0.172,0.73-0.491,0.98-0.634
			c0.33-0.188,0.447-0.257,0.531-0.349c0.149-0.164,0.291-0.319-0.159-2.3c-0.024-0.111-0.092-0.209-0.186-0.274l-1.495-1.033
			c-0.088-0.063-0.196-0.088-0.303-0.08l-1.051,0.102l-1.872-0.137l0.05-0.869c0.01-0.182-0.087-0.351-0.248-0.435l-1.892-0.966
			c-0.047-0.025-0.1-0.039-0.152-0.046l-2.052-0.25c-0.042-0.006-0.084-0.006-0.125,0.001l-2.398,0.375
			c0.051-0.297,0.076-0.629,0.008-0.88c-0.031-0.114-0.112-0.274-0.32-0.388c-0.645-0.352-2.561-0.023-2.904,0.049
			c-0.17,0.015-0.926-0.115-1.424-0.196c-0.609-0.103-1.184-0.197-1.533-0.218c-0.312-0.02-0.545-0.016-0.723-0.002
			c-0.034-0.2-0.073-0.461-0.105-0.699c0.021-0.246-0.059-0.717-0.667-1.429c-0.389-0.455-0.75-0.671-1.105-0.654
			c-0.144,0.006-0.266,0.05-0.362,0.11l-1.171,0.195l-0.651-0.113l-0.137-0.715c0.263-0.299,0.596-0.674,0.669-0.748
			c0.181-0.152,1.899-1.273,2.213-1.475c0.116-0.072,0.198-0.195,0.213-0.341c0.041-0.396-0.134-0.446-0.86-0.598
			c-0.175-0.118-0.604-0.396-1.007-0.567c-0.383-0.159-1.013-0.201-1.737-0.236c-0.195-0.01-0.365-0.017-0.48-0.029
			c-0.307-0.033-0.535,0.049-0.694,0.115c-0.002-0.012-0.006-0.021-0.01-0.034c-0.046-0.15-0.116-0.379-0.256-0.733
			c-0.197-0.498-0.495-0.584-0.712-0.588c-0.479,0.016-0.778,0.577-0.949,1.074c-0.043,0.047-0.112,0.115-0.194,0.197
			c-0.423,0.422-0.815,0.834-0.995,1.254c-0.233-0.092-0.572-0.197-1.031-0.197c-0.59,0-0.723-0.566-0.742-0.677
			c-0.031-0.188-0.175-0.337-0.362-0.374c-0.535-0.106-1.182-0.244-1.277-0.277c-0.213-0.1-2.021-1.143-2.5-1.486
			c-0.002-0.324,0.039-1.115,0.086-1.787c0.009-0.143-0.047-0.28-0.154-0.375l-1.292-1.132l-1.196-1.011l-0.164-0.889l0.332-0.67
			c0.505,0.027,1.128,0.121,1.324,0.271c0.324,0.254,0.763,0.248,1.202-0.011c0.503-0.298,0.987-0.933,0.893-1.522
			c-0.042-0.261-0.187-0.461-0.408-0.565c-0.393-0.187-0.901,0.009-1.201,0.165l-1.985-0.266c-0.038-0.117-0.068-0.232-0.082-0.314
			c0.335-0.225,1.338-0.758,2.198-1.185c0.083-0.04,0.151-0.106,0.197-0.188c1.448-2.626,1.305-3.086,1.257-3.236
			c-0.046-0.146-0.143-0.262-0.273-0.328c-0.471-0.233-0.974,0.178-2.006,1.172c-0.138,0.133-0.305,0.293-0.382,0.357
			c-0.067,0.018-0.25,0.047-0.652,0.029c-0.051-0.11-0.103-0.341-0.117-0.535c-0.004-0.052-0.017-0.104-0.037-0.152l-0.64-1.452
			l-0.687-2.896l0.33-1.657c0.006-0.032,0.009-0.066,0.008-0.102c-0.02-0.711-0.034-1.52-0.024-1.709
			c0.122-0.377,0.776-2.007,1.023-2.344c0.545-0.297,0.471-1.557,0.467-1.615c-0.051-0.794-0.378-1.342-0.897-1.535
			c0-0.002,0-0.004,0-0.004c0.036-0.145,0-0.297-0.098-0.409c-0.354-0.406-1.525-1.748-1.744-1.933
			c-0.124-0.105-0.501-0.425-1.553,0.455c-0.04,0.033-0.073,0.073-0.101,0.118c-0.265,0.448-0.59,0.968-0.777,1.233
			c-0.001,0-0.001,0-0.001,0c-0.161-0.119-0.38-0.283-0.692-0.418c-0.359-0.158-0.432-0.226-0.444-0.245
			c-0.001-0.003-0.011-0.034-0.005-0.153c0.009-0.171,0.153-0.495,0.281-0.732c1.009-0.345,2.099-0.697,2.26-0.726
			c0.165-0.013,0.333-0.128,0.403-0.278c0.107-0.229,0.202-0.43-1.246-2.457c-0.092-0.13-0.242-0.202-0.404-0.191
			c-0.159,0.011-0.3,0.104-0.374,0.244l-0.388,0.746l-1.022-0.603l-0.28-0.762l1.062-1.053l0.918,0.462
			c0.078,0.039,0.166,0.055,0.253,0.047l1.068-0.112l0.115,0.15c0.082,0.11,0.21,0.11,0.348,0.11h0.02
			c0.131,0,0.257,0.018,0.344-0.081l1.264-1.368l2.188,0.275c0.217,0.029,0.426-0.104,0.493-0.313l0.336-1.053l0.712,0.226
			l0.528,1.33c0.048,0.119,0.145,0.213,0.267,0.26c0.122,0.044,0.256,0.035,0.372-0.025l1.328-0.702
			c0.089-0.048,0.161-0.122,0.202-0.214l1.158-2.539l0.59-1.368c0.031-0.073,0.043-0.154,0.034-0.234l-0.242-2.063l-0.094-1.805
			c-0.006-0.123-0.062-0.238-0.155-0.32c-0.093-0.08-0.215-0.121-0.338-0.109l-0.608,0.05l-0.319-0.706l2.01-1.998l1.386-0.013
			c0.018,0,0.035-0.002,0.052-0.004l1.165-0.146l0.456,0.234l-0.532,0.846c-0.03,0.049-0.052,0.104-0.062,0.162l-0.342,1.882
			c-0.023,0.129,0.01,0.263,0.093,0.366l0.849,1.063c0.089,0.113,0.229,0.185,0.37,0.172l1.264-0.035l0.635,1.085
			c0.059,0.101,0.152,0.175,0.264,0.207l1.245,0.372c0.044,0.014,0.089,0.02,0.137,0.02l0.081-0.002l0.433,2.039
			c0.031,0.146,0.13,0.266,0.266,0.324l1.576,0.681l0.298,0.544c-0.295,0.127-0.698,0.299-1.101,0.469
			c-1.013,0.43-1.242,1.756-1.242,2.188c0,0.243,0,0.547,3.061,2.569c0.16,0.105,0.368,0.101,0.522-0.013l0.436-0.318
			c0.142-0.075,0.726-0.382,1.121-0.614c0.194-0.112,0.941-0.208,1.387-0.265c0.178-0.023,0.344-0.045,0.492-0.067
			c0.009,0.063,0.024,0.128,0.045,0.196c0.233,0.769,0.837,1.042,0.906,1.07c0.051,0.021,0.105,0.033,0.161,0.037
			c0,0,1.982,0.07,2.878,0.1c0.419,0.014,0.625,0.838,0.657,1.058c0.017,0.116,0.076,0.22,0.168,0.294
			c0.006,0.006,0.699,0.558,1.522,1.258c0.168,0.143,0.261,0.287,0.254,0.398c-0.003,0.045-0.022,0.082-0.042,0.107
			c-0.25,0.004-0.583,0.194-0.97,1.069c-0.007,0.019-0.015,0.036-0.021,0.056c-0.022,0.077-0.221,0.766-0.221,1.205
			c0,0.315-0.008,0.53-0.129,0.635c-0.297,0.256-1.044,0.908-1.044,0.908c-0.012,0.012-0.024,0.022-0.035,0.033l-0.711,0.771
			c-0.063,0.067-0.104,0.154-0.117,0.248l-0.229,1.658c-0.007,0.058-0.004,0.115,0.009,0.171l0.554,2.252
			c0.024,0.097,0.079,0.184,0.157,0.246l2.514,2.026l1.107,1.605l0.199,1.086c-0.06,0.592-0.224,2.203-0.224,2.426
			c-0.006,0.098-0.162,0.614-0.778,1.167c-0.167,0.151-0.561,0.504-0.313,0.897c0.178,0.282,0.487,0.278,0.831,0.176l0.764,1.018
			c0.201,0.744,0.521,1.637,0.935,1.87c0.177,0.1,0.335,0.136,0.476,0.167c0.212,0.049,0.43,0.099,0.862,0.448
			c0.233,0.189,0.545,0.396,0.879,0.327c0.319-0.066,0.455-0.331,0.537-0.488c0.025-0.048,0.062-0.121,0.073-0.134
			c0.087-0.038,0.402,0.006,0.59,0.032c0.198,0.028,0.398,0.059,0.593,0.053c0.012,0.219,0.049,0.491,0.152,0.797
			c0.162,0.477,0.458,0.664,0.678,0.738c0.374,0.125,0.75-0.003,0.971-0.111c0.73,0.182,2.088,0.506,2.402,0.506
			c0.135,0,0.32-0.025,0.533-0.053c0.195-0.025,0.541-0.072,0.694-0.064c0.163,0.142,0.411,0.311,0.565,0.41l0.782,1.469
			c0.022,0.043,0.052,0.08,0.085,0.113l1.759,1.705l0.837,0.783c0.012,0.01,0.022,0.021,0.035,0.031l0.711,0.541
			c0.044,0.033,0.092,0.057,0.146,0.072l0.424,0.128l-0.589,0.225c-0.152,0.059-0.263,0.193-0.289,0.354l-0.241,1.51
			c-0.028,0.174,0.048,0.35,0.193,0.449l1.694,1.16c0.213,0.311,0.449,0.67,0.523,0.805c-0.006,0.115-0.037,0.363-0.061,0.553
			c-0.043,0.342-0.076,0.61-0.087,0.823c-0.59,0.007-1.866,0.024-2.04,0.024c-0.115,0-1.482,0.25-1.482,0.931
			c0,0.154,0,0.348,0.967,1.363c0.244,0.278,0.494,0.622,0.567,0.772c-0.041,0.133-0.151,0.389-0.208,0.521
			c-0.003,0.008-0.007,0.016-0.01,0.021c-0.367-0.141-0.973-0.404-1.376-0.592c-0.034-0.016-0.067-0.036-0.099-0.053
			c-0.154-0.088-0.389-0.219-0.668-0.125c-0.188,0.063-0.331,0.205-0.43,0.426c-0.158,0.359-0.404,1.081-0.493,1.423
			c-0.036,0.14-0.132,0.503,0.824,1.765l-0.258,2.113c-0.005,0.042-0.005,0.085,0.003,0.127l0.229,1.42
			c0.006,0.033,0.014,0.064,0.026,0.096l0.955,2.406L144.58,237.947z"/>
	</g>
	<g>
		<path id="Mainland-_x2F_-Southwest" fill="#224176" stroke="#FFFFFF" stroke-miterlimit="10" d="M182.944,252.897h-15.032
			c-0.025,0-0.051,0.003-0.076,0.005l-2.676,0.451h-5.063c-0.256,0-0.463,0.004-0.629,0.005c-0.169,0.003-0.332,0.004-0.432,0.001
			c-0.027-0.06-0.063-0.131-0.111-0.217c-0.104-0.182-0.199-0.316-0.283-0.434c-0.158-0.223-0.201-0.281-0.201-0.524
			c0-0.362-0.19-0.52-0.305-0.578c-0.329-0.175-0.645,0.037-0.896,0.208c-0.063,0.042-0.156,0.106-0.218,0.138
			c-0.319-0.062-0.563,0.144-0.728,0.284c-0.193,0.163-0.435,0.367-0.926,0.479c-0.076,0.016-0.134,0.026-0.176,0.031
			c-0.039-0.207-0.105-0.547-0.462-0.791c-0.022-0.017-0.044-0.031-0.063-0.045c-0.051-0.1-0.123-0.18-0.172-0.234l-0.102-0.106
			c-0.222-0.235-0.383-0.405-0.629-1.511c-0.052-0.231-0.074-0.379-0.084-0.473c0.132-0.039,0.299-0.123,0.434-0.32
			c0.042-0.061,0.088-0.121,0.132-0.182c0.258-0.346,0.644-0.865,0.306-1.459c-0.043-0.074-0.069-0.145-0.098-0.213
			c-0.152-0.381-0.333-0.723-1.126-1.353c-0.094-0.075-0.144-0.13-0.167-0.163c0.073-0.065,0.234-0.148,0.303-0.184
			c0.143-0.073,0.425-0.219,0.424-0.516c0.034-0.131,0.171-0.502,0.264-0.754c0.109-0.293,0.217-0.587,0.275-0.777
			c0.112-0.369,0.034-0.648-0.014-0.814c-0.006-0.023-0.014-0.045-0.018-0.066c0.081-0.184,0.065-0.395-0.048-0.583
			c-0.229-0.384-0.938-0.726-1.335-0.726c-0.561,0-0.771,0.604-0.977,1.189c-0.046,0.131-0.094,0.265-0.145,0.396
			c-0.083,0.21-0.219,0.438-0.351,0.659c-0.241,0.402-0.468,0.782-0.468,1.182c0,0.328-0.333,1.049-0.574,1.244
			c-0.002,0.002-0.004,0.002-0.006,0.004c-0.029-0.023-0.061-0.045-0.096-0.061c0,0-0.83-0.391-0.98-0.468
			c-0.166-0.087-1.797-0.743-2.215-0.839c-0.247-0.059-0.957-0.457-1.119-0.609c-0.037-0.066-0.11-0.193-0.202-0.354
			c-0.217-0.381-0.771-1.355-0.892-1.611c-0.025-0.316-0.16-0.971-0.479-2.518l0.563-1.02l0.01-0.005
			c0.146-0.078,0.238-0.229,0.24-0.396l0.001-0.055l0.094-0.17l-0.091-0.05l0.025-2.056c0-0.06-0.01-0.118-0.031-0.174l-0.971-2.445
			l-0.211-1.307l0.273-2.233c0.014-0.121-0.02-0.241-0.094-0.337c-0.357-0.457-0.695-0.988-0.761-1.184
			c0.073-0.262,0.226-0.714,0.353-1.036c0.018,0.009,0.033,0.017,0.052,0.024c1.925,0.898,2.065,0.82,2.26,0.711
			c0.128-0.072,0.213-0.167,0.229-0.313c0.018-0.059,0.066-0.168,0.121-0.294c0.152-0.354,0.262-0.62,0.289-0.815
			c0.017-0.126,0.063-0.461-0.813-1.457c-0.193-0.202-0.412-0.446-0.564-0.631c0.158-0.066,0.335-0.127,0.406-0.135
			c0.229,0,2.351-0.031,2.351-0.031c0.065,0,0.13-0.021,0.189-0.049l0.228-0.118h0.001l0.064-0.021
			c0.165-0.078,0.261-0.231,0.262-0.402c0-0.066-0.014-0.133-0.044-0.195c-0.023-0.049-0.055-0.094-0.092-0.131
			c0.014-0.209,0.053-0.51,0.076-0.698c0.072-0.578,0.092-0.769,0.033-0.933c-0.069-0.198-0.418-0.723-0.7-1.127
			c-0.032-0.047-0.071-0.086-0.118-0.117l-1.525-1.043l0.154-0.963l1.792-0.686l-0.014-0.037l2.44-0.574
			c0.029-0.006,0.059-0.016,0.086-0.03c0.394-0.181,2.372-1.133,2.759-2.12c0.058-0.15,0.103-0.254,0.134-0.324
			c0.061-0.041,0.112-0.096,0.148-0.162l1.254-2.264l1.602-0.152l0.555,0.397c0.031,0.021,0.063,0.039,0.098,0.053
			c0.023,0.009,2.359,0.937,2.845,1.15c0.717,0.316,1.177-0.434,1.452-0.881c0.093-0.15,0.188-0.305,0.263-0.388
			c0.101-0.113,0.175-0.264,0.228-0.433l0.447,0.278l1.398,1.445c0.038,0.04,0.082,0.072,0.132,0.095l2.691,1.282
			c0.032,0.014,0.063,0.025,0.097,0.033l1.855,0.416c0.048,0.012,0.098,0.014,0.146,0.008l2.34-0.237l0.371,0.97l-0.743,3.117
			c-0.007,0.035-0.013,0.07-0.013,0.105v3.582l-1.125,1.139c-0.028,0.027-0.054,0.061-0.073,0.096l-0.688,1.213
			c-0.618-0.098-1.688-0.264-1.922-0.264c-0.427,0-0.624,0.318-0.741,0.509c-0.048,0.078-0.094,0.153-0.152,0.216
			c-0.266,0.293-0.668,1.319-0.846,1.797l-1.239,1.895c-0.101,0.152-0.099,0.352,0.004,0.505l0.931,1.386
			c0.051,0.076,0.124,0.136,0.209,0.169l1.875,0.748c0.015,0.006,0.029,0.011,0.045,0.015l2.604,0.739
			c0.103,0.028,0.212,0.022,0.309-0.021c0.165-0.071,1.526-0.674,1.979-0.92c0.08,0.048,0.213,0.166,0.299,0.274
			c0.087,0.109,0.219,0.174,0.359,0.174h3.528c0.167,0.27,0.278,0.569,0.237,0.672c-0.274,0.709,0.67,1.516,1.295,1.955
			c0.442,0.508,0.938,1.09,1.152,1.363c-0.129,0.182-0.436,0.514-0.83,0.864c-0.289,0.257-0.211,0.642-0.148,0.95
			c0.022,0.109,0.064,0.316,0.059,0.359c-0.099,0.167-0.109,0.365-0.031,0.541c0.141,0.319,0.6,0.563,1.396,0.727l1.586,0.222
			l0.037,0.695l-1.065,1.189c-0.059,0.065-0.098,0.146-0.112,0.235l-0.258,1.664l-0.645,1.58c-0.05,0.121-0.045,0.257,0.013,0.375
			c0.058,0.117,0.163,0.203,0.289,0.238c0.024,0.006,2.512,0.685,3.226,0.913c0.288,0.093,0.428,0.248,0.494,0.354
			c-0.178,0.38-0.586,1.25-0.711,1.502c-0.195,0.389-0.067,1.244,0.074,1.894c0.021,0.094,0.07,0.175,0.142,0.239l0.628,0.555
			L182.944,252.897z"/>
	</g>
	<g>
		<path id="Thompson-Okanagan" fill="#224176" stroke="#FFFFFF" stroke-miterlimit="10" d="M202.537,248.891l-0.392,2.826
			l-7.923,1.08h-7.492l-2.764,0.104l0.396-1.077c0.064-0.175,0.016-0.373-0.123-0.498l-0.748-0.668
			c-0.102-0.509-0.153-1.031-0.121-1.15c0.164-0.33,0.805-1.705,0.805-1.705c0.043-0.091,0.055-0.191,0.034-0.289
			c-0.065-0.307-0.383-0.894-1.16-1.142c-0.538-0.173-1.991-0.576-2.765-0.788l0.47-1.152c0.013-0.033,0.022-0.066,0.028-0.103
			l0.246-1.585l1.101-1.229c0.081-0.089,0.122-0.208,0.115-0.329l-0.067-1.262c-0.012-0.217-0.177-0.396-0.394-0.427l-1.927-0.268
			c-0.227-0.048-0.477-0.126-0.631-0.191c0.041-0.245-0.011-0.5-0.055-0.719c-0.011-0.053-0.025-0.122-0.034-0.179
			c1.229-1.117,1.166-1.502,1.007-1.774c-0.15-0.263-1.104-1.356-1.392-1.687c-0.024-0.028-0.053-0.053-0.083-0.074
			c-0.458-0.316-0.922-0.766-0.992-0.955c0.225-0.693-0.379-1.527-0.506-1.689c-0.086-0.113-0.22-0.178-0.361-0.178h-3.561
			c-0.354-0.37-0.835-0.623-1.264-0.359c-0.202,0.122-1.152,0.555-1.8,0.844l-2.423-0.689l-1.722-0.687l-0.683-1.018l1.101-1.683
			c0.019-0.03,0.034-0.06,0.047-0.094c0.233-0.633,0.565-1.404,0.683-1.545c0.116-0.129,0.193-0.253,0.256-0.355
			c0.013-0.02,0.027-0.044,0.043-0.066c0.3,0.029,1.204,0.166,2.009,0.297c0.188,0.03,0.376-0.059,0.47-0.227l0.815-1.435
			l1.215-1.229c0.085-0.086,0.132-0.201,0.132-0.32v-3.716l0.764-3.202c0.021-0.09,0.016-0.184-0.018-0.271l-0.549-1.427
			c-0.074-0.193-0.268-0.313-0.473-0.291l-2.611,0.266l-1.734-0.388l-2.57-1.226l-1.379-1.427c-0.025-0.026-0.056-0.05-0.087-0.071
			l-0.853-0.529c0-0.286-0.02-0.548-0.039-0.72c-0.012-0.115-0.066-0.22-0.151-0.296l-0.759-0.668l0.309-2.488l1.539-0.514
			c0.023-0.008,0.048-0.019,0.07-0.031l0.889-0.478h5.824c0.253,0,0.457-0.204,0.457-0.456v-0.457h3.198v1.461
			c0,0.186,0.111,0.354,0.283,0.423l2.092,0.862c0.098,0.039,0.204,0.045,0.306,0.014l1.277-0.383
			c0.061-0.02,0.117-0.049,0.165-0.09l1.071-0.917h6.228c0.252,0,0.456-0.206,0.456-0.457v-3.878l0.372-1l1.923-0.638
			c0.197-0.065,0.326-0.255,0.313-0.463l-0.117-1.79c0.074-0.339,0.426-1.912,0.452-2.027c0.011-0.049,0.04-0.178,0.055-1.525
			c0-0.02-0.001-0.039-0.003-0.059l-0.271-2.348c-0.013-0.103-0.061-0.199-0.135-0.271l-2.222-2.182l-0.505-2.243
			c-0.017-0.296-0.098-1.689-0.252-2.247c0.076-0.067,0.277-0.16,0.447-0.201c0.031-0.008,0.063-0.018,0.092-0.033l1.34-0.643
			c0.045-0.021,0.086-0.049,0.121-0.084c0.287-0.276,0.939-0.989,0.82-1.603c-0.059-0.295-0.023-0.693-0.006-0.823
			c0.012-0.079,0.001-0.163-0.031-0.238c-0.238-0.575-0.831-1.947-1.166-2.281c-0.108-0.123-0.084-0.662,0.031-0.871
			c0.174-0.104,0.814-0.254,1.474-0.348l0.883,0.902c0.565,0.78,1.188,1.772,1.227,2.027c0.112,0.752,1.429,1.106,2.205,1.252
			c0.132,0.025,0.27-0.011,0.374-0.096l1.365-1.126l0.639,0.042l1.489,1.375c0.072,0.067,0.165,0.109,0.264,0.119l1.681,0.168
			c0.117,0.011,0.23-0.023,0.324-0.094l1.344-1.031l1.693,1.018l1.142,1.471v2.48c0,0.122,0.05,0.239,0.137,0.324l0.931,0.916
			l-0.459,0.359c-0.104,0.082-0.168,0.205-0.174,0.34c-0.006,0.133,0.045,0.262,0.143,0.353l1.316,1.242
			c0.08,0.076,0.188,0.122,0.298,0.125l1.802,0.058c0.146,0.01,0.289-0.062,0.379-0.179l0.895-1.174
			c0.029-0.038,0.053-0.081,0.068-0.127l0.727-2.099l1.975-0.658c0.129-0.043,0.232-0.141,0.28-0.266l0.234-0.594l0.944,0.053
			c0.209,0.014,0.398-0.119,0.461-0.318l0.355-1.132l0.738,0.815c0.059,0.064,0.137,0.111,0.221,0.135l1.91,0.511l0.408,0.731
			l-1.226,2.166c-0.065,0.116-0.076,0.254-0.031,0.378c0.044,0.126,0.14,0.224,0.264,0.272l1.344,0.525
			c0.082,0.031,0.171,0.039,0.257,0.021l0.412-0.082l0.54,0.816c0.121,0.18,0.351,0.252,0.552,0.17l0.95-0.381h1.168
			c0.169,0,0.323-0.095,0.402-0.24l0.367,1.199c0.024,0.079,0.071,0.15,0.134,0.207l1.111,0.986c0.012,0.009,0.023,0.02,0.037,0.027
			l0.9,0.647l0.855,1.309c0.027,0.042,0.061,0.08,0.102,0.109l1,0.782l0.561,1.92l0.205,0.6c0.053,0.155,0.185,0.27,0.346,0.301
			c0.161,0.032,0.326-0.026,0.433-0.15c0.865-1.007,1.305-1.709,1.305-2.089c0-0.118,0.091-0.361,0.235-0.485
			c0.076-0.064,0.123-0.057,0.143-0.055c0.357,0.062,0.941,0.383,1.109,0.57c-0.121,0.346-0.059,0.619-0.012,0.824
			c0.018,0.086,0.035,0.158,0.035,0.225c0.006,0.396,0.358,1.149,0.509,1.456c0.032,0.063,0.078,0.121,0.136,0.163l1.884,1.414
			l0.638,1.459c0.037,0.085,0.1,0.156,0.178,0.205l0.959,0.598l0.383,1.57l0.013,0.335l-0.499,1.118
			c-0.024,0.057-0.037,0.117-0.039,0.178l-0.02,1.189c-0.198,0.979-0.014,1.206,0.066,1.305c0.076,0.097,0.183,0.16,0.299,0.186
			c0.086,0.08,0.201,0.274,0.226,0.381c-0.094,0.15-0.208,0.299-0.292,0.387c-0.193-0.027-0.417,0.057-0.676,0.242
			c-0.838,0.608-0.679,0.922-0.611,1.055c0.07,0.139,0.219,0.228,0.375,0.248c0.203,0.133,0.74,0.661,1.211,1.167
			c-0.07,0.222-0.154,0.433-0.218,0.539c-0.575,0.055-2.315,0.313-2.692,0.368c-0.031,0.006-0.061,0.014-0.091,0.023
			c-0.537,0.197-1.472,0.601-1.692,1.096c-0.554,1.244-0.689,1.834-0.704,2.137c-0.204,0.049-0.573,0.086-0.919,0.092
			c-0.6-0.223-1.312-0.537-1.544-0.701c-0.044-0.307-0.157-0.738-0.206-0.918v-0.681c0-0.764-0.846-1.456-1.153-1.622
			c-0.041-0.021-0.119-0.061-0.222-0.111c-0.566-0.281-0.953-0.489-1.154-0.622c0.02-0.039,0.037-0.08,0.053-0.112
			c0.221-0.482,0.432-0.936,0.064-1.223c-0.363-0.284-0.789,0.055-1.018,0.235c-1.113,0.89-1.652,2.194-1.727,2.653
			c-0.054,0.318-0.041,0.789-0.032,1.1c0.003,0.083,0.005,0.152,0.005,0.203c0,0.229,0.277,1.536,0.508,2.59
			c0.01,0.04,0.023,0.08,0.043,0.117l0.783,1.469c0.066,0.126,0.189,0.213,0.329,0.236l0.887,0.144l0.768,1.54l-0.962,1.01
			c-0.618,0.365-1.297,0.692-1.474,0.705c-0.245,0.021-0.865-0.104-1.253-0.204c-0.66-0.313-1.436-0.718-1.554-0.819
			c-0.364-0.409-1.479-0.245-1.698-0.209c-0.323,0.055-0.67,0.15-0.793,0.448l-0.031,0.08c-0.028,0.069-0.094,0.233-0.147,0.321
			c-0.028,0.002-0.059,0.005-0.093,0.008c-0.619,0.053-0.842,0.012-0.923-0.027c-0.118-0.523-0.27-1.497-0.271-1.508
			c-0.019-0.12-0.086-0.229-0.186-0.301l-1.07-0.768c-1.295-0.77-1.543-0.604-1.707-0.493c-0.167,0.111-0.25,0.309-0.221,0.514
			c0.012,0.084,0.015,0.216,0.02,0.367c0.018,0.485,0.038,1.089,0.263,1.454c0.163,0.264,0.39,1.296,0.392,1.555
			c-0.037,0.195-0.477,0.961-0.863,1.555c-0.053,0.082-0.079,0.178-0.072,0.275l0.094,1.607c0,0.02,0.004,0.039,0.006,0.057
			l0.359,1.941l0.076,1.65c-0.09,0.521-0.246,1.072-0.371,1.324c-0.43-0.17-1.082-0.281-1.527-0.01
			c-0.271,0.166-0.419,0.44-0.413,0.773c0.012,0.66,0.065,1.537,0.244,1.984c0.146,0.359,0.827,1.875,0.856,1.939
			c0.008,0.02,0.018,0.037,0.028,0.053l0.354,0.573l-8.518,1.063c-0.107,0.014-0.206,0.065-0.279,0.145l-0.492,0.534l-1.508,0.913
			c-0.023,0.014-0.045,0.031-0.066,0.048c-0.132,0.117-0.793,0.732-0.793,1.364c0,0.482,0.622,3.325,0.747,3.891
			c0.007,0.026,0.015,0.053,0.026,0.079c0.17,0.399,0.733,1.717,0.854,1.923c0.091,0.157,0.599,1.072,0.798,1.432L202.537,248.891z"
			/>
	</g>
	<g>
		<path id="Kootenay" fill="#224176" stroke="#FFFFFF" stroke-miterlimit="10" d="M265.273,245.65l-11.201,2.021l-12.689,1.119
			l-15.752,1.822l-16.283,0.85c-0.055,0.002-0.107,0.017-0.157,0.039l-1.004,0.438l-5.175-0.166l0.369-2.65l0.408-2.131
			c0.021-0.105,0.003-0.213-0.049-0.307c0,0-0.774-1.396-0.89-1.594c-0.067-0.119-0.45-0.991-0.788-1.781
			c-0.352-1.6-0.715-3.392-0.717-3.65c0-0.123,0.219-0.433,0.457-0.652l1.526-0.924c0.037-0.023,0.071-0.051,0.101-0.082
			l0.422-0.459l9.058-1.131c0.154-0.02,0.289-0.117,0.355-0.257c0.067-0.141,0.058-0.306-0.024-0.438l-0.714-1.152
			c-0.095-0.209-0.7-1.562-0.829-1.879c-0.093-0.23-0.162-0.868-0.176-1.646c0.133-0.048,0.523-0.008,0.803,0.143
			c0.185,0.1,0.398,0.104,0.587,0.012c0.506-0.249,0.776-1.299,0.915-2.135c0.004-0.032,0.006-0.064,0.005-0.096l-0.079-1.73
			c0-0.021-0.004-0.041-0.008-0.063l-0.359-1.944l-0.083-1.429c0.615-0.959,0.927-1.596,0.927-1.894
			c0-0.399-0.242-1.608-0.523-2.065c-0.083-0.137-0.109-0.568-0.122-0.863c0.157,0.078,0.333,0.172,0.489,0.263l0.883,0.634
			c0.054,0.332,0.169,1.02,0.264,1.43c0.194,0.834,1.334,0.732,1.882,0.686c0.062-0.005,0.109-0.01,0.14-0.01
			c0.48,0,0.707-0.491,0.843-0.828c0.264-0.072,0.877-0.104,1.085-0.052c0.235,0.198,0.846,0.532,1.816,0.993
			c0.025,0.012,0.052,0.022,0.08,0.028c0.178,0.048,1.096,0.274,1.596,0.242c0.516-0.04,1.604-0.673,1.926-0.864
			c0.035-0.021,0.068-0.048,0.097-0.078l1.226-1.287c0.133-0.139,0.164-0.346,0.077-0.518l-1.016-2.039
			c-0.065-0.131-0.19-0.223-0.335-0.246l-0.896-0.145l-0.646-1.213c-0.227-1.031-0.462-2.176-0.475-2.334
			c0-0.055-0.002-0.135-0.004-0.227c-0.008-0.26-0.02-0.693,0.02-0.93c0.029-0.18,0.271-0.824,0.764-1.444
			c0.084,0.313,0.488,0.579,1.712,1.185c0.089,0.046,0.159,0.078,0.194,0.098c0.195,0.105,0.672,0.56,0.672,0.816v0.743
			c0,0.043,0.006,0.083,0.018,0.124c0.08,0.283,0.197,0.758,0.206,0.93c0.013,0.238,0.034,0.599,2.205,1.39
			c0.05,0.019,0.103,0.028,0.156,0.028c0.974,0,1.583-0.151,1.81-0.451c0.113-0.148,0.148-0.336,0.104-0.496
			c-0.002-0.014-0.027-0.359,0.617-1.809c0.09-0.133,0.625-0.418,1.137-0.611c1.188-0.175,2.499-0.357,2.672-0.361
			c0.177-0.002,0.646-0.009,1.01-1.451c0.037-0.147-0.002-0.305-0.104-0.418c-0.588-0.65-0.998-1.055-1.291-1.299
			c0.021-0.016,0.04-0.029,0.059-0.043c0.064,0.017,0.135,0.019,0.203,0.012c0.418-0.052,0.803-0.607,0.994-0.932
			c0.161-0.272,0.122-0.645-0.106-1.047c-0.077-0.134-0.244-0.391-0.477-0.537c0.007-0.145,0.035-0.364,0.075-0.554
			c0.006-0.028,0.01-0.056,0.01-0.085l0.02-1.139l0.27-0.603l0.935,0.179l0.37,0.337l1.222,1.75
			c0.017,0.023,0.035,0.046,0.056,0.065l1.465,1.436c0.092,0.091,0.215,0.137,0.346,0.13l1.396-0.076l-0.062,0.356
			c-0.036,0.203,0.067,0.402,0.253,0.491l1.041,0.497l0.966,1.822l0.217,0.352l-0.398,0.173c-0.145,0.062-0.246,0.194-0.27,0.349
			c-0.023,0.156,0.033,0.313,0.153,0.416l1.191,1.025c0.048,0.043,0.106,0.073,0.167,0.092l0.977,0.293l0.992,0.458
			c0.029,0.014,0.059,0.024,0.09,0.031l1.034,0.236l0.179,1.169c-0.014,0.435,0.047,1.137,0.553,1.311
			c0.351,0.121,1.045-0.059,1.605-0.24c0.452-0.192,0.991-0.399,1.315-0.502c0.091,0.301,0.22,0.785,0.321,1.203
			c0.005,0.023,0.012,0.045,0.021,0.064c0.056,0.137,0.226,0.368,0.72,0.686c0.345,0.221,1.594,1.209,2.205,1.698l0.134,1.291v2.024
			c0,0.107,0.039,0.213,0.108,0.296l1.115,1.309l0.014,0.515c0.004,0.122,0.057,0.238,0.146,0.322l0.338,0.313l0.144,0.766
			l-0.275,0.973c-0.024,0.091-0.022,0.188,0.009,0.274l0.447,1.278c0.204,0.488,0.43,1.117,0.441,1.266
			c0,0.336,0.179,1.141,0.22,1.316l0.278,1.037l-0.631,0.825c-0.029,0.038-0.053,0.08-0.069,0.125l-0.248,0.702
			c-0.034,0.099-0.034,0.205,0,0.305l0.229,0.645c0.045,0.126,0.142,0.226,0.265,0.273c0.805,0.314,0.938,0.285,1.043,0.264
			c0.061-0.014,0.131-0.027,0.539-0.283v2.555c0,0.131,0.057,0.257,0.155,0.344l0.835,0.736l0.774,1.328
			c0.023,0.039,0.052,0.074,0.085,0.105l0.863,0.801l0.265,0.541c0.077,0.158,0.235,0.258,0.411,0.258h1.959l1.293,0.831
			l0.604,1.479L265.273,245.65z"/>
	</g>
</g>
</svg>
